<svg width="24" height="24" viewBox="0 0 24 24" fill="none" xmlns="http://www.w3.org/2000/svg">
<path d="M12.7069 16.7069L16.7066 12.7072C16.8934 12.5192 16.9983 12.2649 16.9983 11.9999C16.9983 11.7348 16.8934 11.4806 16.7066 11.2926L12.7069 7.29292C12.5188 7.10821 12.2654 7.00525 12.0018 7.00644C11.7382 7.00764 11.4857 7.11289 11.2993 7.2993C11.1129 7.4857 11.0076 7.73818 11.0064 8.0018C11.0053 8.26541 11.1082 8.51883 11.2929 8.70692L13.5859 10.9999L7.99992 10.9999C7.73471 10.9999 7.48035 11.1053 7.29282 11.2928C7.10528 11.4803 6.99992 11.7347 6.99992 11.9999C6.99992 12.2651 7.10528 12.5195 7.29282 12.707C7.48035 12.8946 7.73471 12.9999 7.99992 12.9999L13.5859 12.9999L11.2929 15.2929C11.1073 15.4808 11.0036 15.7345 11.0045 15.9986C11.0053 16.2627 11.1106 16.5158 11.2973 16.7025C11.4841 16.8893 11.7371 16.9945 12.0012 16.9954C12.2653 16.9962 12.519 16.8925 12.7069 16.7069Z" fill="#F6F9FE"/>
<path d="M22 12C22 10.0222 21.4135 8.08879 20.3147 6.4443C19.2159 4.79981 17.6541 3.51808 15.8268 2.7612C13.9996 2.00433 11.9889 1.80629 10.0491 2.19215C8.10929 2.578 6.32746 3.53041 4.92893 4.92893C3.53041 6.32746 2.578 8.10929 2.19215 10.0491C1.80629 11.9889 2.00433 13.9996 2.7612 15.8268C3.51808 17.6541 4.79981 19.2159 6.4443 20.3147C8.08879 21.4135 10.0222 22 12 22C14.6513 21.9971 17.1931 20.9425 19.0678 19.0678C20.9425 17.1931 21.9971 14.6513 22 12ZM11.293 16.707C11.2001 16.6142 11.1264 16.5039 11.0762 16.3826C11.0259 16.2613 11 16.1313 11 16C11 15.8687 11.0259 15.7386 11.0762 15.6173C11.1264 15.496 11.2001 15.3858 11.293 15.2929L13.5859 13L8 13C7.73478 13 7.48043 12.8946 7.29289 12.7071C7.10536 12.5196 7 12.2652 7 12C7 11.7348 7.10536 11.4804 7.29289 11.2929C7.48043 11.1054 7.73478 11 8 11L13.5859 11L11.2929 8.707C11.1074 8.51908 11.0037 8.26538 11.0045 8.00128C11.0054 7.73718 11.1107 7.48415 11.2974 7.2974C11.4842 7.11066 11.7372 7.00539 12.0013 7.00456C12.2654 7.00374 12.5191 7.10743 12.707 7.293L16.7067 11.2927C16.8935 11.4807 16.9984 11.735 16.9984 12C16.9984 12.2651 16.8935 12.5194 16.7067 12.7074L12.707 16.707C12.6142 16.7999 12.504 16.8735 12.3826 16.9238C12.2613 16.9741 12.1313 16.9999 12 16.9999C11.8687 16.9999 11.7387 16.9741 11.6174 16.9238C11.496 16.8735 11.3858 16.7999 11.293 16.707Z" fill="#52A6F8"/>
</svg>
