<svg width="18" height="18" viewBox="0 0 18 18" fill="none" xmlns="http://www.w3.org/2000/svg">
<path d="M5.43201 16.5H2.25C2.1515 16.5 2.05396 16.4806 1.96296 16.443C1.87195 16.4053 1.78926 16.35 1.71961 16.2804C1.64996 16.2107 1.59472 16.1281 1.55704 16.037C1.51936 15.946 1.49997 15.8485 1.5 15.75V12.5676C1.49999 12.4691 1.5194 12.3716 1.5571 12.2806C1.59481 12.1896 1.65008 12.107 1.71975 12.0374L12.0395 1.71972C12.1092 1.65007 12.1918 1.59481 12.2828 1.55711C12.3738 1.5194 12.4713 1.5 12.5698 1.5C12.6683 1.5 12.7658 1.5194 12.8568 1.55711C12.9478 1.59481 13.0305 1.65007 13.1001 1.71972L16.2803 4.89917C16.3499 4.96879 16.4052 5.05146 16.4429 5.14244C16.4806 5.23343 16.5 5.33095 16.5 5.42944C16.5 5.52793 16.4806 5.62545 16.4429 5.71644C16.4052 5.80743 16.3499 5.89009 16.2803 5.95971L5.96228 16.2803C5.82165 16.4209 5.63091 16.5 5.43201 16.5Z" fill="#52A6F8" fill-opacity="0.5"/>
<path d="M16.2802 4.89917L13.1001 1.71972C13.0304 1.65007 12.9478 1.59481 12.8568 1.55711C12.7658 1.5194 12.6683 1.5 12.5698 1.5C12.4713 1.5 12.3738 1.5194 12.2828 1.55711C12.1918 1.59481 12.1091 1.65007 12.0395 1.71972L9.3866 4.37238L13.6273 8.61219L16.2802 5.95971C16.3499 5.89009 16.4051 5.80743 16.4428 5.71644C16.4805 5.62545 16.5 5.52793 16.5 5.42944C16.5 5.33095 16.4805 5.23343 16.4428 5.14244C16.4051 5.05146 16.3499 4.96879 16.2802 4.89917Z" fill="#52A6F8"/>
</svg>
