<svg width="149" height="16" viewBox="0 0 149 16" fill="none" xmlns="http://www.w3.org/2000/svg">
<path d="M10.1937 10.8601L8.66699 12.3934L8.66699 6.00011C8.66699 5.8233 8.59676 5.65373 8.47173 5.52871C8.34671 5.40368 8.17714 5.33344 8.00033 5.33344C7.82352 5.33344 7.65395 5.40368 7.52892 5.52871C7.4039 5.65373 7.33366 5.8233 7.33366 6.00011L7.33366 12.3934L5.80699 10.8601C5.74502 10.7976 5.67128 10.748 5.59004 10.7142C5.50881 10.6803 5.42167 10.6629 5.33366 10.6629C5.24565 10.6629 5.15851 10.6803 5.07728 10.7142C4.99604 10.748 4.9223 10.7976 4.86033 10.8601C4.79784 10.9221 4.74825 10.9958 4.7144 11.0771C4.68055 11.1583 4.66313 11.2454 4.66313 11.3334C4.66313 11.4215 4.68055 11.5086 4.7144 11.5898C4.74825 11.6711 4.79784 11.7448 4.86033 11.8068L7.52699 14.4734C7.5904 14.5341 7.66516 14.5817 7.74699 14.6134C7.9093 14.6801 8.09135 14.6801 8.25366 14.6134C8.33549 14.5817 8.41026 14.5341 8.47366 14.4734L11.1403 11.8068C11.2025 11.7446 11.2518 11.6708 11.2854 11.5896C11.3191 11.5084 11.3364 11.4213 11.3364 11.3334C11.3364 11.2455 11.3191 11.1585 11.2854 11.0773C11.2518 10.9961 11.2025 10.9223 11.1403 10.8601C11.0782 10.798 11.0044 10.7486 10.9232 10.715C10.8419 10.6814 10.7549 10.664 10.667 10.664C10.5791 10.664 10.492 10.6814 10.4108 10.715C10.3296 10.7486 10.2558 10.798 10.1937 10.8601ZM2.00033 6.66678C2.17714 6.66678 2.34671 6.59654 2.47173 6.47152C2.59676 6.34649 2.66699 6.17692 2.66699 6.00011L2.66699 3.33344C2.66699 3.15663 2.73723 2.98706 2.86226 2.86204C2.98728 2.73701 3.15685 2.66678 3.33366 2.66678L12.667 2.66678C12.8438 2.66678 13.0134 2.73701 13.1384 2.86204C13.2634 2.98706 13.3337 3.15663 13.3337 3.33344L13.3337 6.00011C13.3337 6.17692 13.4039 6.34649 13.5289 6.47152C13.6539 6.59654 13.8235 6.66678 14.0003 6.66678C14.1771 6.66678 14.3467 6.59654 14.4717 6.47152C14.5968 6.34649 14.667 6.17692 14.667 6.00011L14.667 3.33344C14.667 2.80301 14.4563 2.2943 14.0812 1.91923C13.7061 1.54416 13.1974 1.33345 12.667 1.33345L3.33366 1.33345C2.80323 1.33345 2.29452 1.54416 1.91945 1.91923C1.54437 2.2943 1.33366 2.80301 1.33366 3.33344L1.33366 6.00011C1.33366 6.17692 1.4039 6.34649 1.52892 6.47152C1.65395 6.59654 1.82352 6.66678 2.00033 6.66678Z" fill="#52A6F8"/>
<path d="M26.756 3.62409C27.636 3.62409 28.408 3.79609 29.072 4.14009C29.744 4.48409 30.26 4.97609 30.62 5.61609C30.988 6.24809 31.172 6.98409 31.172 7.82409C31.172 8.66409 30.988 9.40009 30.62 10.0321C30.26 10.6561 29.744 11.1401 29.072 11.4841C28.408 11.8281 27.636 12.0001 26.756 12.0001H23.828V3.62409H26.756ZM26.696 10.5721C27.576 10.5721 28.256 10.3321 28.736 9.85209C29.216 9.37209 29.456 8.69609 29.456 7.82409C29.456 6.95209 29.216 6.27209 28.736 5.78409C28.256 5.28809 27.576 5.04009 26.696 5.04009H25.508V10.5721H26.696ZM35.3816 12.1081C34.7416 12.1081 34.1656 11.9681 33.6536 11.6881C33.1416 11.4001 32.7376 10.9961 32.4416 10.4761C32.1536 9.95609 32.0096 9.35609 32.0096 8.67609C32.0096 7.99609 32.1576 7.39609 32.4536 6.87609C32.7576 6.35609 33.1696 5.95609 33.6896 5.67609C34.2096 5.38809 34.7896 5.24409 35.4296 5.24409C36.0696 5.24409 36.6496 5.38809 37.1696 5.67609C37.6896 5.95609 38.0976 6.35609 38.3936 6.87609C38.6976 7.39609 38.8496 7.99609 38.8496 8.67609C38.8496 9.35609 38.6936 9.95609 38.3816 10.4761C38.0776 10.9961 37.6616 11.4001 37.1336 11.6881C36.6136 11.9681 36.0296 12.1081 35.3816 12.1081ZM35.3816 10.6441C35.6856 10.6441 35.9696 10.5721 36.2336 10.4281C36.5056 10.2761 36.7216 10.0521 36.8816 9.75609C37.0416 9.46009 37.1216 9.10009 37.1216 8.67609C37.1216 8.04409 36.9536 7.56009 36.6176 7.22409C36.2896 6.88009 35.8856 6.70809 35.4056 6.70809C34.9256 6.70809 34.5216 6.88009 34.1936 7.22409C33.8736 7.56009 33.7136 8.04409 33.7136 8.67609C33.7136 9.30809 33.8696 9.79609 34.1816 10.1401C34.5016 10.4761 34.9016 10.6441 35.3816 10.6441ZM49.2979 5.35209L47.3539 12.0001H45.5419L44.3299 7.35609L43.1179 12.0001H41.2939L39.3379 5.35209H41.0419L42.2179 10.4161L43.4899 5.35209H45.2659L46.5139 10.4041L47.6899 5.35209H49.2979ZM53.8909 5.25609C54.6829 5.25609 55.3229 5.50809 55.8109 6.01209C56.2989 6.50809 56.5429 7.20409 56.5429 8.10009V12.0001H54.8629V8.32809C54.8629 7.80009 54.7309 7.39609 54.4669 7.11609C54.2029 6.82809 53.8429 6.68409 53.3869 6.68409C52.9229 6.68409 52.5549 6.82809 52.2829 7.11609C52.0189 7.39609 51.8869 7.80009 51.8869 8.32809V12.0001H50.2069V5.35209H51.8869V6.18009C52.1109 5.89209 52.3949 5.66809 52.7389 5.50809C53.0909 5.34009 53.4749 5.25609 53.8909 5.25609ZM59.8205 3.12009V12.0001H58.1405V3.12009H59.8205ZM64.4323 12.1081C63.7923 12.1081 63.2163 11.9681 62.7043 11.6881C62.1923 11.4001 61.7883 10.9961 61.4923 10.4761C61.2043 9.95609 61.0603 9.35609 61.0603 8.67609C61.0603 7.99609 61.2083 7.39609 61.5043 6.87609C61.8083 6.35609 62.2203 5.95609 62.7403 5.67609C63.2603 5.38809 63.8403 5.24409 64.4803 5.24409C65.1203 5.24409 65.7003 5.38809 66.2203 5.67609C66.7403 5.95609 67.1483 6.35609 67.4443 6.87609C67.7483 7.39609 67.9003 7.99609 67.9003 8.67609C67.9003 9.35609 67.7443 9.95609 67.4323 10.4761C67.1283 10.9961 66.7123 11.4001 66.1843 11.6881C65.6643 11.9681 65.0803 12.1081 64.4323 12.1081ZM64.4323 10.6441C64.7363 10.6441 65.0203 10.5721 65.2843 10.4281C65.5563 10.2761 65.7723 10.0521 65.9323 9.75609C66.0923 9.46009 66.1723 9.10009 66.1723 8.67609C66.1723 8.04409 66.0043 7.56009 65.6683 7.22409C65.3403 6.88009 64.9363 6.70809 64.4563 6.70809C63.9763 6.70809 63.5723 6.88009 63.2443 7.22409C62.9243 7.56009 62.7643 8.04409 62.7643 8.67609C62.7643 9.30809 62.9203 9.79609 63.2323 10.1401C63.5523 10.4761 63.9523 10.6441 64.4323 10.6441ZM68.7007 8.65209C68.7007 7.98009 68.8327 7.38409 69.0967 6.86409C69.3687 6.34409 69.7327 5.94409 70.1887 5.66409C70.6527 5.38409 71.1687 5.24409 71.7367 5.24409C72.2327 5.24409 72.6647 5.34409 73.0327 5.54409C73.4087 5.74409 73.7087 5.99609 73.9327 6.30009V5.35209H75.6247V12.0001H73.9327V11.0281C73.7167 11.3401 73.4167 11.6001 73.0327 11.8081C72.6567 12.0081 72.2207 12.1081 71.7247 12.1081C71.1647 12.1081 70.6527 11.9641 70.1887 11.6761C69.7327 11.3881 69.3687 10.9841 69.0967 10.4641C68.8327 9.93609 68.7007 9.33209 68.7007 8.65209ZM73.9327 8.67609C73.9327 8.26809 73.8527 7.92009 73.6927 7.63209C73.5327 7.33609 73.3167 7.11209 73.0447 6.96009C72.7727 6.80009 72.4807 6.72009 72.1687 6.72009C71.8567 6.72009 71.5687 6.79609 71.3047 6.94809C71.0407 7.10009 70.8247 7.32409 70.6567 7.62009C70.4967 7.90809 70.4167 8.25209 70.4167 8.65209C70.4167 9.05209 70.4967 9.40409 70.6567 9.70809C70.8247 10.0041 71.0407 10.2321 71.3047 10.3921C71.5767 10.5521 71.8647 10.6321 72.1687 10.6321C72.4807 10.6321 72.7727 10.5561 73.0447 10.4041C73.3167 10.2441 73.5327 10.0201 73.6927 9.73209C73.8527 9.43609 73.9327 9.08409 73.9327 8.67609ZM76.8335 8.65209C76.8335 7.98009 76.9655 7.38409 77.2295 6.86409C77.5015 6.34409 77.8695 5.94409 78.3335 5.66409C78.7975 5.38409 79.3135 5.24409 79.8815 5.24409C80.3135 5.24409 80.7255 5.34009 81.1175 5.53209C81.5095 5.71609 81.8215 5.96409 82.0535 6.27609V3.12009H83.7575V12.0001H82.0535V11.0161C81.8455 11.3441 81.5535 11.6081 81.1775 11.8081C80.8015 12.0081 80.3655 12.1081 79.8695 12.1081C79.3095 12.1081 78.7975 11.9641 78.3335 11.6761C77.8695 11.3881 77.5015 10.9841 77.2295 10.4641C76.9655 9.93609 76.8335 9.33209 76.8335 8.65209ZM82.0655 8.67609C82.0655 8.26809 81.9855 7.92009 81.8255 7.63209C81.6655 7.33609 81.4495 7.11209 81.1775 6.96009C80.9055 6.80009 80.6135 6.72009 80.3015 6.72009C79.9895 6.72009 79.7015 6.79609 79.4375 6.94809C79.1735 7.10009 78.9575 7.32409 78.7895 7.62009C78.6295 7.90809 78.5495 8.25209 78.5495 8.65209C78.5495 9.05209 78.6295 9.40409 78.7895 9.70809C78.9575 10.0041 79.1735 10.2321 79.4375 10.3921C79.7095 10.5521 79.9975 10.6321 80.3015 10.6321C80.6135 10.6321 80.9055 10.5561 81.1775 10.4041C81.4495 10.2441 81.6655 10.0201 81.8255 9.73209C81.9855 9.43609 82.0655 9.08409 82.0655 8.67609ZM90.2137 6.73209V9.94809C90.2137 10.1721 90.2657 10.3361 90.3697 10.4401C90.4817 10.5361 90.6657 10.5841 90.9217 10.5841H91.7017V12.0001H90.6457C89.2297 12.0001 88.5217 11.3121 88.5217 9.93609V6.73209H87.7297V5.35209H88.5217V3.70809H90.2137V5.35209H91.7017V6.73209H90.2137ZM95.862 12.1081C95.222 12.1081 94.646 11.9681 94.134 11.6881C93.622 11.4001 93.218 10.9961 92.922 10.4761C92.634 9.95609 92.49 9.35609 92.49 8.67609C92.49 7.99609 92.638 7.39609 92.934 6.87609C93.238 6.35609 93.65 5.95609 94.17 5.67609C94.69 5.38809 95.27 5.24409 95.91 5.24409C96.55 5.24409 97.13 5.38809 97.65 5.67609C98.17 5.95609 98.578 6.35609 98.874 6.87609C99.178 7.39609 99.33 7.99609 99.33 8.67609C99.33 9.35609 99.174 9.95609 98.862 10.4761C98.558 10.9961 98.142 11.4001 97.614 11.6881C97.094 11.9681 96.51 12.1081 95.862 12.1081ZM95.862 10.6441C96.166 10.6441 96.45 10.5721 96.714 10.4281C96.986 10.2761 97.202 10.0521 97.362 9.75609C97.522 9.46009 97.602 9.10009 97.602 8.67609C97.602 8.04409 97.434 7.56009 97.098 7.22409C96.77 6.88009 96.366 6.70809 95.886 6.70809C95.406 6.70809 95.002 6.88009 94.674 7.22409C94.354 7.56009 94.194 8.04409 94.194 8.67609C94.194 9.30809 94.35 9.79609 94.662 10.1401C94.982 10.4761 95.382 10.6441 95.862 10.6441ZM103.014 7.80009C103.014 6.97609 103.198 6.24009 103.566 5.59209C103.942 4.93609 104.45 4.42809 105.09 4.06809C105.738 3.70009 106.462 3.51609 107.262 3.51609C108.198 3.51609 109.018 3.75609 109.722 4.23609C110.426 4.71609 110.918 5.38009 111.198 6.22809H109.266C109.074 5.82809 108.802 5.52809 108.45 5.32809C108.106 5.12809 107.706 5.02809 107.25 5.02809C106.762 5.02809 106.326 5.14409 105.942 5.37609C105.566 5.60009 105.27 5.92009 105.054 6.33609C104.846 6.75209 104.742 7.24009 104.742 7.80009C104.742 8.35209 104.846 8.84009 105.054 9.26409C105.27 9.68009 105.566 10.0041 105.942 10.2361C106.326 10.4601 106.762 10.5721 107.25 10.5721C107.706 10.5721 108.106 10.4721 108.45 10.2721C108.802 10.0641 109.074 9.76009 109.266 9.36009H111.198C110.918 10.2161 110.426 10.8841 109.722 11.3641C109.026 11.8361 108.206 12.0721 107.262 12.0721C106.462 12.0721 105.738 11.8921 105.09 11.5321C104.45 11.1641 103.942 10.6561 103.566 10.0081C103.198 9.36009 103.014 8.62409 103.014 7.80009ZM115.525 12.0841C114.941 12.0841 114.413 11.9841 113.941 11.7841C113.477 11.5841 113.109 11.2961 112.837 10.9201C112.565 10.5441 112.425 10.1001 112.417 9.58809H114.217C114.241 9.93209 114.361 10.2041 114.577 10.4041C114.801 10.6041 115.105 10.7041 115.489 10.7041C115.881 10.7041 116.189 10.6121 116.413 10.4281C116.637 10.2361 116.749 9.98809 116.749 9.68409C116.749 9.43609 116.673 9.23209 116.521 9.07209C116.369 8.91209 116.177 8.78809 115.945 8.70009C115.721 8.60409 115.409 8.50009 115.009 8.38809C114.465 8.22809 114.021 8.07209 113.677 7.92009C113.341 7.76009 113.049 7.52409 112.801 7.21209C112.561 6.89209 112.441 6.46809 112.441 5.94009C112.441 5.44409 112.565 5.01209 112.813 4.64409C113.061 4.27609 113.409 3.99609 113.857 3.80409C114.305 3.60409 114.817 3.50409 115.393 3.50409C116.257 3.50409 116.957 3.71609 117.493 4.14009C118.037 4.55609 118.337 5.14009 118.393 5.89209H116.545C116.529 5.60409 116.405 5.36809 116.173 5.18409C115.949 4.99209 115.649 4.89609 115.273 4.89609C114.945 4.89609 114.681 4.98009 114.481 5.14809C114.289 5.31609 114.193 5.56009 114.193 5.88009C114.193 6.10409 114.265 6.29209 114.409 6.44409C114.561 6.58809 114.745 6.70809 114.961 6.80409C115.185 6.89209 115.497 6.99609 115.897 7.11609C116.441 7.27609 116.885 7.43609 117.229 7.59609C117.573 7.75609 117.869 7.99609 118.117 8.31609C118.365 8.63609 118.489 9.05609 118.489 9.57609C118.489 10.0241 118.373 10.4401 118.141 10.8241C117.909 11.2081 117.569 11.5161 117.121 11.7481C116.673 11.9721 116.141 12.0841 115.525 12.0841ZM127.469 3.62409L124.397 12.0001H122.357L119.285 3.62409H121.085L123.389 10.2841L125.681 3.62409H127.469ZM134.384 6.73209H133.22V12.0001H131.516V6.73209H130.76V5.35209H131.516V5.01609C131.516 4.20009 131.748 3.60009 132.212 3.21609C132.676 2.83209 133.376 2.65209 134.312 2.67609V4.09209C133.904 4.08409 133.62 4.15209 133.46 4.29609C133.3 4.44009 133.22 4.70009 133.22 5.07609V5.35209H134.384V6.73209ZM136.325 4.56009C136.029 4.56009 135.781 4.46809 135.581 4.28409C135.389 4.09209 135.293 3.85609 135.293 3.57609C135.293 3.29609 135.389 3.06409 135.581 2.88009C135.781 2.68809 136.029 2.59209 136.325 2.59209C136.621 2.59209 136.865 2.68809 137.057 2.88009C137.257 3.06409 137.357 3.29609 137.357 3.57609C137.357 3.85609 137.257 4.09209 137.057 4.28409C136.865 4.46809 136.621 4.56009 136.325 4.56009ZM137.153 5.35209V12.0001H135.473V5.35209H137.153ZM140.492 3.12009V12.0001H138.812V3.12009H140.492ZM148.332 8.53209C148.332 8.77209 148.316 8.98809 148.284 9.18009H143.424C143.464 9.66009 143.632 10.0361 143.928 10.3081C144.224 10.5801 144.588 10.7161 145.02 10.7161C145.644 10.7161 146.088 10.4481 146.352 9.91209H148.164C147.972 10.5521 147.604 11.0801 147.06 11.4961C146.516 11.9041 145.848 12.1081 145.056 12.1081C144.416 12.1081 143.84 11.9681 143.328 11.6881C142.824 11.4001 142.428 10.9961 142.14 10.4761C141.86 9.95609 141.72 9.35609 141.72 8.67609C141.72 7.98809 141.86 7.38409 142.14 6.86409C142.42 6.34409 142.812 5.94409 143.316 5.66409C143.82 5.38409 144.4 5.24409 145.056 5.24409C145.688 5.24409 146.252 5.38009 146.748 5.65209C147.252 5.92409 147.64 6.31209 147.912 6.81609C148.192 7.31209 148.332 7.88409 148.332 8.53209ZM146.592 8.05209C146.584 7.62009 146.428 7.27609 146.124 7.02009C145.82 6.75609 145.448 6.62409 145.008 6.62409C144.592 6.62409 144.24 6.75209 143.952 7.00809C143.672 7.25609 143.5 7.60409 143.436 8.05209H146.592Z" fill="#52A6F8"/>
</svg>
