<svg width="60" height="60" viewBox="0 0 60 60" fill="none" xmlns="http://www.w3.org/2000/svg">
<path d="M50.1429 55H9.85725C8.53096 54.9998 7.2281 54.6505 6.07956 53.9872C4.93102 53.324 3.97725 52.3702 3.31408 51.2216C2.6509 50.073 2.30169 48.7701 2.30151 47.4438C2.30134 46.1175 2.65021 44.8145 3.31308 43.6658L23.4559 8.77809C24.1191 7.62939 25.0731 6.67552 26.2218 6.01233C27.3706 5.34914 28.6736 5 30.0001 5C31.3265 5 32.6296 5.34914 33.7783 6.01233C34.9271 6.67552 35.881 7.62939 36.5443 8.77809L56.6871 43.6658C57.3499 44.8145 57.6988 46.1175 57.6986 47.4438C57.6985 48.7701 57.3492 50.073 56.6861 51.2216C56.0229 52.3702 55.0691 53.324 53.9206 53.9872C52.772 54.6505 51.4692 54.9998 50.1429 55Z" fill="#52A6F8"/>
<path d="M30 45C31.3807 45 32.5 43.8807 32.5 42.5C32.5 41.1193 31.3807 40 30 40C28.6193 40 27.5 41.1193 27.5 42.5C27.5 43.8807 28.6193 45 30 45Z" fill="#F6F9FE"/>
<path d="M30 35C29.337 35 28.7011 34.7366 28.2322 34.2678C27.7634 33.7989 27.5 33.163 27.5 32.5V22.5C27.5 21.837 27.7634 21.2011 28.2322 20.7322C28.7011 20.2634 29.337 20 30 20C30.663 20 31.2989 20.2634 31.7678 20.7322C32.2366 21.2011 32.5 21.837 32.5 22.5V32.5C32.5 33.163 32.2366 33.7989 31.7678 34.2678C31.2989 34.7366 30.663 35 30 35Z" fill="#F6F9FE"/>
</svg>
