<svg width="20" height="20" viewBox="0 0 20 20" fill="none" xmlns="http://www.w3.org/2000/svg">
<path d="M16.6667 5.00033H13.3333V4.16699C13.3333 2.75033 12.25 1.66699 10.8333 1.66699H9.16667C7.75 1.66699 6.66667 2.75033 6.66667 4.16699V5.00033H3.33333C2.83333 5.00033 2.5 5.33366 2.5 5.83366C2.5 6.33366 2.83333 6.66699 3.33333 6.66699H4.16667V15.8337C4.16667 17.2503 5.25 18.3337 6.66667 18.3337H13.3333C14.75 18.3337 15.8333 17.2503 15.8333 15.8337V6.66699H16.6667C17.1667 6.66699 17.5 6.33366 17.5 5.83366C17.5 5.33366 17.1667 5.00033 16.6667 5.00033ZM8.33333 4.16699C8.33333 3.66699 8.66667 3.33366 9.16667 3.33366H10.8333C11.3333 3.33366 11.6667 3.66699 11.6667 4.16699V5.00033H8.33333V4.16699ZM9.16667 14.167C9.16667 14.667 8.83333 15.0003 8.33333 15.0003C7.83333 15.0003 7.5 14.667 7.5 14.167V9.16699C7.5 8.66699 7.83333 8.33366 8.33333 8.33366C8.83333 8.33366 9.16667 8.66699 9.16667 9.16699V14.167ZM12.5 14.167C12.5 14.667 12.1667 15.0003 11.6667 15.0003C11.1667 15.0003 10.8333 14.667 10.8333 14.167V9.16699C10.8333 8.66699 11.1667 8.33366 11.6667 8.33366C12.1667 8.33366 12.5 8.66699 12.5 9.16699V14.167Z" fill="#7D87AA"/>
</svg>
