<svg width="80" height="80" viewBox="0 0 80 80" fill="none" xmlns="http://www.w3.org/2000/svg">
<circle cx="40" cy="40" r="40" fill="#52A6F8" fill-opacity="0.1"/>
<path d="M40.3524 50.1695C43.8148 47.6383 48.1607 46.6311 52.3836 47.381C53.1783 47.514 53.9303 46.9776 54.0633 46.183C54.0766 46.1036 54.0833 46.0232 54.0833 45.9426V28.4426C54.0831 27.7304 53.5687 27.1225 52.8664 27.0042C51.8234 26.8224 50.767 26.7281 49.7083 26.7222C46.0876 26.7177 42.5426 27.7595 39.5 29.7222V50.4444C39.8059 50.4445 40.1041 50.3483 40.3524 50.1695Z" fill="#52A6F8" fill-opacity="0.5"/>
<path d="M29.2915 26.7222C28.2328 26.7281 27.1764 26.8224 26.1334 27.0042C25.4311 27.1225 24.9168 27.7304 24.9165 28.4426V45.9426C24.9168 46.7484 25.5702 47.4013 26.3759 47.401C26.4564 47.401 26.5368 47.3943 26.6162 47.381C27.4997 47.2257 28.3946 47.1447 29.2915 47.1389C32.6519 47.1363 35.9268 48.1972 38.6475 50.1695C38.8957 50.3483 39.1939 50.4445 39.4998 50.4444V29.7222C36.4572 27.7595 32.9123 26.7177 29.2915 26.7222Z" fill="#52A6F8"/>
<path d="M52.8664 50.3376C51.8234 50.1558 50.767 50.0615 49.7083 50.0556C46.0876 50.0511 42.5426 51.0928 39.5 53.0556V56.2777C39.8059 56.2778 40.1041 56.1817 40.3524 56.0029C43.8148 53.4717 48.1607 52.4645 52.3836 53.2144C53.1778 53.3489 53.9307 52.8141 54.0652 52.02C54.1997 51.2258 53.665 50.4729 52.8708 50.3383C52.8693 50.3381 52.8679 50.3379 52.8664 50.3376Z" fill="#52A6F8" fill-opacity="0.5"/>
<path d="M29.2917 50.0556C28.233 50.0615 27.1767 50.1559 26.1336 50.3376C26.1321 50.3379 26.1307 50.3381 26.1292 50.3383C25.335 50.4729 24.8003 51.2257 24.9348 52.02C25.0694 52.8142 25.8222 53.3489 26.6164 53.2144C27.4998 53.0591 28.3948 52.9781 29.2917 52.9723C32.6521 52.9697 35.927 54.0305 38.6477 56.0029C38.8959 56.1817 39.1941 56.2778 39.5 56.2777V53.0556C36.4574 51.0928 32.9124 50.0511 29.2917 50.0556Z" fill="#52A6F8"/>
</svg>
