<svg width="275" height="28" viewBox="0 0 275 28" fill="none" xmlns="http://www.w3.org/2000/svg">
<path d="M150.426 7.364V20H147.348V12.422L144.522 20H142.038L139.194 12.404V20H136.116V7.364H139.752L143.298 16.112L146.808 7.364H150.426ZM162.557 9.956V20H159.479V18.632C159.167 19.076 158.741 19.436 158.201 19.712C157.673 19.976 157.085 20.108 156.437 20.108C155.669 20.108 154.991 19.94 154.403 19.604C153.815 19.256 153.359 18.758 153.035 18.11C152.711 17.462 152.549 16.7 152.549 15.824V9.956H155.609V15.41C155.609 16.082 155.783 16.604 156.131 16.976C156.479 17.348 156.947 17.534 157.535 17.534C158.135 17.534 158.609 17.348 158.957 16.976C159.305 16.604 159.479 16.082 159.479 15.41V9.956H162.557ZM167.846 6.68V20H164.768V6.68H167.846ZM175.675 17.39V20H174.109C172.993 20 172.123 19.73 171.499 19.19C170.875 18.638 170.563 17.744 170.563 16.508V12.512H169.339V9.956H170.563V7.508H173.641V9.956H175.657V12.512H173.641V16.544C173.641 16.844 173.713 17.06 173.857 17.192C174.001 17.324 174.241 17.39 174.577 17.39H175.675ZM178.937 8.912C178.397 8.912 177.953 8.756 177.605 8.444C177.269 8.12 177.101 7.724 177.101 7.256C177.101 6.776 177.269 6.38 177.605 6.068C177.953 5.744 178.397 5.582 178.937 5.582C179.465 5.582 179.897 5.744 180.233 6.068C180.581 6.38 180.755 6.776 180.755 7.256C180.755 7.724 180.581 8.12 180.233 8.444C179.897 8.756 179.465 8.912 178.937 8.912ZM180.467 9.956V20H177.389V9.956H180.467ZM187.27 20.126C186.346 20.126 185.518 19.976 184.786 19.676C184.054 19.376 183.466 18.932 183.022 18.344C182.59 17.756 182.362 17.048 182.338 16.22H185.614C185.662 16.688 185.824 17.048 186.1 17.3C186.376 17.54 186.736 17.66 187.18 17.66C187.636 17.66 187.996 17.558 188.26 17.354C188.524 17.138 188.656 16.844 188.656 16.472C188.656 16.16 188.548 15.902 188.332 15.698C188.128 15.494 187.87 15.326 187.558 15.194C187.258 15.062 186.826 14.912 186.262 14.744C185.446 14.492 184.78 14.24 184.264 13.988C183.748 13.736 183.304 13.364 182.932 12.872C182.56 12.38 182.374 11.738 182.374 10.946C182.374 9.77 182.8 8.852 183.652 8.192C184.504 7.52 185.614 7.184 186.982 7.184C188.374 7.184 189.496 7.52 190.348 8.192C191.2 8.852 191.656 9.776 191.716 10.964H188.386C188.362 10.556 188.212 10.238 187.936 10.01C187.66 9.77 187.306 9.65 186.874 9.65C186.502 9.65 186.202 9.752 185.974 9.956C185.746 10.148 185.632 10.43 185.632 10.802C185.632 11.21 185.824 11.528 186.208 11.756C186.592 11.984 187.192 12.23 188.008 12.494C188.824 12.77 189.484 13.034 189.988 13.286C190.504 13.538 190.948 13.904 191.32 14.384C191.692 14.864 191.878 15.482 191.878 16.238C191.878 16.958 191.692 17.612 191.32 18.2C190.96 18.788 190.432 19.256 189.736 19.604C189.04 19.952 188.218 20.126 187.27 20.126ZM195.32 8.912C194.78 8.912 194.336 8.756 193.988 8.444C193.652 8.12 193.484 7.724 193.484 7.256C193.484 6.776 193.652 6.38 193.988 6.068C194.336 5.744 194.78 5.582 195.32 5.582C195.848 5.582 196.28 5.744 196.616 6.068C196.964 6.38 197.138 6.776 197.138 7.256C197.138 7.724 196.964 8.12 196.616 8.444C196.28 8.756 195.848 8.912 195.32 8.912ZM196.85 9.956V20H193.772V9.956H196.85ZM202.897 9.812C203.605 9.812 204.223 9.956 204.751 10.244C205.291 10.532 205.705 10.91 205.993 11.378V9.956H209.071V19.982C209.071 20.906 208.885 21.74 208.513 22.484C208.153 23.24 207.595 23.84 206.839 24.284C206.095 24.728 205.165 24.95 204.049 24.95C202.561 24.95 201.355 24.596 200.431 23.888C199.507 23.192 198.979 22.244 198.847 21.044H201.889C201.985 21.428 202.213 21.728 202.573 21.944C202.933 22.172 203.377 22.286 203.905 22.286C204.541 22.286 205.045 22.1 205.417 21.728C205.801 21.368 205.993 20.786 205.993 19.982V18.56C205.693 19.028 205.279 19.412 204.751 19.712C204.223 20 203.605 20.144 202.897 20.144C202.069 20.144 201.319 19.934 200.647 19.514C199.975 19.082 199.441 18.476 199.045 17.696C198.661 16.904 198.469 15.992 198.469 14.96C198.469 13.928 198.661 13.022 199.045 12.242C199.441 11.462 199.975 10.862 200.647 10.442C201.319 10.022 202.069 9.812 202.897 9.812ZM205.993 14.978C205.993 14.21 205.777 13.604 205.345 13.16C204.925 12.716 204.409 12.494 203.797 12.494C203.185 12.494 202.663 12.716 202.231 13.16C201.811 13.592 201.601 14.192 201.601 14.96C201.601 15.728 201.811 16.34 202.231 16.796C202.663 17.24 203.185 17.462 203.797 17.462C204.409 17.462 204.925 17.24 205.345 16.796C205.777 16.352 205.993 15.746 205.993 14.978ZM232.5 7.364L229.206 20H225.48L223.464 11.684L221.376 20H217.65L214.446 7.364H217.74L219.558 16.562L221.808 7.364H225.192L227.352 16.562L229.188 7.364H232.5ZM233.432 14.96C233.432 13.928 233.624 13.022 234.008 12.242C234.404 11.462 234.938 10.862 235.61 10.442C236.282 10.022 237.032 9.812 237.86 9.812C238.568 9.812 239.186 9.956 239.714 10.244C240.254 10.532 240.668 10.91 240.956 11.378V9.956H244.034V20H240.956V18.578C240.656 19.046 240.236 19.424 239.696 19.712C239.168 20 238.55 20.144 237.842 20.144C237.026 20.144 236.282 19.934 235.61 19.514C234.938 19.082 234.404 18.476 234.008 17.696C233.624 16.904 233.432 15.992 233.432 14.96ZM240.956 14.978C240.956 14.21 240.74 13.604 240.308 13.16C239.888 12.716 239.372 12.494 238.76 12.494C238.148 12.494 237.626 12.716 237.194 13.16C236.774 13.592 236.564 14.192 236.564 14.96C236.564 15.728 236.774 16.34 237.194 16.796C237.626 17.24 238.148 17.462 238.76 17.462C239.372 17.462 239.888 17.24 240.308 16.796C240.74 16.352 240.956 15.746 240.956 14.978ZM249.339 6.68V20H246.261V6.68H249.339ZM254.647 6.68V20H251.569V6.68H254.647ZM266.346 14.816C266.346 15.104 266.328 15.404 266.292 15.716H259.326C259.374 16.34 259.572 16.82 259.92 17.156C260.28 17.48 260.718 17.642 261.234 17.642C262.002 17.642 262.536 17.318 262.836 16.67H266.112C265.944 17.33 265.638 17.924 265.194 18.452C264.762 18.98 264.216 19.394 263.556 19.694C262.896 19.994 262.158 20.144 261.342 20.144C260.358 20.144 259.482 19.934 258.714 19.514C257.946 19.094 257.346 18.494 256.914 17.714C256.482 16.934 256.266 16.022 256.266 14.978C256.266 13.934 256.476 13.022 256.896 12.242C257.328 11.462 257.928 10.862 258.696 10.442C259.464 10.022 260.346 9.812 261.342 9.812C262.314 9.812 263.178 10.016 263.934 10.424C264.69 10.832 265.278 11.414 265.698 12.17C266.13 12.926 266.346 13.808 266.346 14.816ZM263.196 14.006C263.196 13.478 263.016 13.058 262.656 12.746C262.296 12.434 261.846 12.278 261.306 12.278C260.79 12.278 260.352 12.428 259.992 12.728C259.644 13.028 259.428 13.454 259.344 14.006H263.196ZM273.568 17.39V20H272.002C270.886 20 270.016 19.73 269.392 19.19C268.768 18.638 268.456 17.744 268.456 16.508V12.512H267.232V9.956H268.456V7.508H271.534V9.956H273.55V12.512H271.534V16.544C271.534 16.844 271.606 17.06 271.75 17.192C271.894 17.324 272.134 17.39 272.47 17.39H273.568Z" fill="#F6F9FE"/>
<g clip-path="url(#clip0_2026_57)">
<path d="M102.276 9.22471C101.417 8.38306 100.377 7.74827 99.2358 7.36853C98.0946 6.98879 96.8818 6.87409 95.6897 7.03316C94.4975 7.19222 93.3573 7.62087 92.3555 8.28653C91.3538 8.9522 90.517 9.83738 89.9085 10.8749C89.2228 12.0852 88.8665 13.4541 88.8749 14.8452C88.8564 15.8662 89.0487 16.88 89.4399 17.8232C89.8311 18.7665 90.4127 19.6188 91.1484 20.327C91.8775 21.0642 92.749 21.6454 93.7099 22.035C94.6707 22.4247 95.7009 22.6147 96.7375 22.5936C98.284 22.5869 99.794 22.1235 101.078 21.2615C102.362 20.3995 103.363 19.1774 103.954 17.7487C104.546 16.3199 104.703 14.7481 104.404 13.2307C104.106 11.7134 103.365 10.318 102.276 9.21984L102.276 9.22471ZM102.191 18.0075C101.646 18.9672 100.85 19.7604 99.8887 20.302C98.9124 20.8611 97.8055 21.1516 96.6804 21.1441C95.8536 21.1466 95.0345 20.985 94.2705 20.6688C93.5066 20.3525 92.8129 19.8877 92.2299 19.3015C91.6468 18.7152 91.1858 18.0191 90.8737 17.2534C90.5615 16.4878 90.4045 15.6678 90.4115 14.841C90.3962 13.7033 90.6822 12.5817 91.2404 11.5902C91.6498 10.8665 92.1991 10.2316 92.8564 9.7224C93.5137 9.21321 94.2658 8.83994 95.0688 8.62437C95.8718 8.4088 96.7097 8.35525 97.5336 8.46681C98.3576 8.57838 99.151 8.85283 99.8678 9.27418C100.841 9.82029 101.647 10.6197 102.202 11.5875C102.757 12.5552 103.04 13.6552 103.02 14.7706C103.033 15.9039 102.747 17.0207 102.191 18.0082V18.0075ZM118.533 18.0075V18.0507C118.539 18.6601 118.41 19.2633 118.156 19.8172C117.902 20.3711 117.529 20.862 117.063 21.2548C115.997 22.1213 114.652 22.5693 113.28 22.5149C112.194 22.5235 111.119 22.3052 110.123 21.8741C109.145 21.4394 108.257 20.8235 107.508 20.0589L108.589 19.014C109.193 19.6505 109.92 20.1568 110.727 20.502C111.534 20.8472 112.402 21.024 113.28 21.0215C115.509 21.0215 117.02 19.8255 117.02 18.0535V18.0103C117.045 17.6841 116.992 17.3565 116.864 17.0554C116.736 16.7542 116.537 16.4883 116.285 16.2801C115.309 15.6282 114.202 15.1981 113.042 15.02C111.734 14.8324 110.485 14.3506 109.389 13.6109C108.998 13.3023 108.686 12.9049 108.479 12.4517C108.273 11.9986 108.177 11.5027 108.2 11.0051V10.9626C108.195 10.4367 108.314 9.91704 108.548 9.44621C108.775 8.96477 109.099 8.53568 109.5 8.18616C110.435 7.43218 111.606 7.03147 112.808 7.05426C113.686 7.06339 114.556 7.22241 115.38 7.52445C116.159 7.83251 116.888 8.25739 117.539 8.7845L116.589 9.93729C115.523 9.05518 114.188 8.56516 112.805 8.54906C111.974 8.52279 111.161 8.79457 110.513 9.31527C110.268 9.51426 110.069 9.76475 109.931 10.049C109.792 10.3333 109.718 10.6445 109.714 10.9605V11.003C109.688 11.2751 109.733 11.5492 109.842 11.7995C109.952 12.0499 110.123 12.2683 110.34 12.4344C111.263 13.0268 112.303 13.4129 113.389 13.5663C114.792 13.7829 116.124 14.3242 117.28 15.1468C117.696 15.4944 118.025 15.9335 118.242 16.4297C118.46 16.9259 118.559 17.4657 118.533 18.0068L118.533 18.0075ZM84.3842 10.5091C83.5869 9.27402 82.3927 8.34735 80.9983 7.88178C79.4213 7.44998 77.7864 7.26829 76.1531 7.34334H73.068V22.2244H77.8046C79.2906 22.2988 80.7732 22.022 82.1322 21.4164C83.1949 20.8431 84.0665 19.9715 84.6398 18.9089C85.3006 17.7032 85.6328 16.3451 85.6032 14.9705C85.6464 13.3957 85.2222 11.8433 84.3842 10.5091V10.5091ZM83.1304 18.4638C82.5012 19.4038 81.5683 20.0992 80.4877 20.4336C79.0853 20.7512 77.6467 20.8796 76.2102 20.8153H74.489V8.79983H75.5443C77.0911 8.73753 78.6393 8.88064 80.1485 9.22541C81.3325 9.55833 82.3611 10.2983 83.0531 11.3151C83.7696 12.4045 84.1331 13.6881 84.0944 14.9914C84.1309 16.2187 83.7951 17.4282 83.1311 18.461L83.1304 18.4638ZM40.7105 11.586C40.1454 12.5728 39.8566 13.6936 39.8746 14.8306C39.853 15.6757 40.0082 16.5161 40.3303 17.2978C40.6523 18.0795 41.1341 18.7853 41.7449 19.37C42.368 19.9733 43.1059 20.4453 43.9149 20.7581C44.7238 21.0708 45.5874 21.218 46.4543 21.1908C47.4543 21.2044 48.4444 20.9909 49.3499 20.5663C50.2554 20.1417 51.0528 19.5171 51.6818 18.7396L52.8577 19.6319C52.1205 20.5729 51.1684 21.3234 50.0812 21.8204C48.9135 22.3482 47.6436 22.6118 46.3623 22.5922C45.2062 22.6472 44.0524 22.4422 42.9859 21.9923C41.9194 21.5424 40.9674 20.8591 40.2 19.9927C38.9368 18.521 38.2633 16.6336 38.3095 14.6947C38.2875 13.6692 38.4803 12.6504 38.8755 11.7039C39.2706 10.7573 39.8594 9.9038 40.6039 9.19825C41.3623 8.46175 42.2609 7.88498 43.2463 7.50211C44.2318 7.11923 45.284 6.93803 46.3407 6.96928C47.641 6.95071 48.9281 7.23197 50.1021 7.79122C51.1976 8.32408 52.1443 9.11972 52.8577 10.1072L51.6818 11.0065C51.0678 10.1914 50.2694 9.53355 49.3519 9.0868C48.4177 8.64585 47.3953 8.42338 46.3623 8.43623C45.2061 8.42658 44.0678 8.72185 43.062 9.29229C42.0857 9.82959 41.2731 10.6213 40.7105 11.5832V11.586ZM67.7889 7.34334H69.2335V16.2905C69.2335 17.9548 68.5724 19.5509 67.3956 20.7278C66.2187 21.9046 64.6226 22.5657 62.9583 22.5657C61.294 22.5657 59.6979 21.9046 58.5211 20.7278C57.3443 19.5509 56.6831 17.9548 56.6831 16.2905V7.34055H58.1208V16.2905C58.1208 17.5726 58.6301 18.8022 59.5367 19.7087C60.4432 20.6153 61.6728 21.1246 62.9548 21.1246C64.2369 21.1246 65.4665 20.6153 66.373 19.7087C67.2796 18.8022 67.7889 17.5726 67.7889 16.2905V7.34334Z" fill="#F6F9FE"/>
</g>
<g clip-path="url(#clip1_2026_57)">
<path d="M23.8957 4.10535C21.6057 1.81949 18.5941 0.398275 15.3739 0.0838132C12.1536 -0.230649 8.92398 0.581091 6.23508 2.38076C3.54618 4.18042 1.56437 6.8567 0.62726 9.95365C-0.30985 13.0506 -0.144293 16.3767 1.09573 19.3652C2.33575 22.3538 4.57352 24.8201 7.42784 26.3438C10.2822 27.8675 13.5765 28.3545 16.7496 27.7218C19.9227 27.0891 22.7783 25.3758 24.8299 22.8738C26.8816 20.3719 28.0023 17.236 28.0013 14.0003C27.9971 10.2884 26.5206 6.72982 23.8957 4.10535V4.10535ZM13.2759 26.5243C10.0865 26.3293 7.09161 24.9248 4.90218 22.5973C2.71276 20.2698 1.49374 17.1947 1.49374 13.9993C1.49374 10.8038 2.71276 7.72876 4.90218 5.40129C7.09161 3.07382 10.0865 1.66929 13.2759 1.47423V6.22229C11.3374 6.4017 9.53568 7.29868 8.22403 8.73737C6.91237 10.1761 6.1853 12.0527 6.1853 13.9996C6.1853 15.9465 6.91237 17.8232 8.22403 19.2619C9.53568 20.7006 11.3374 21.5975 13.2759 21.7769V26.5243ZM14.0003 20.3634C12.5262 20.3647 11.0973 19.8547 9.95706 18.9204C8.81686 17.9861 8.03596 16.6852 7.74746 15.2396C7.45897 13.794 7.68076 12.293 8.37499 10.9926C9.06922 9.6922 10.1929 8.67281 11.5546 8.10817C12.9163 7.54353 14.4316 7.4686 15.8424 7.89616C17.2531 8.32373 18.4719 9.2273 19.291 10.4529C20.1101 11.6785 20.4789 13.1503 20.3344 14.6173C20.1899 16.0843 19.5411 17.4558 18.4986 18.4981C17.306 19.6916 15.6882 20.3625 14.001 20.3634H14.0003ZM23.1191 22.6072C20.9236 24.9355 17.9214 26.337 14.7267 26.525V21.7769C16.6653 21.5975 18.4669 20.7006 19.7786 19.2619C21.0903 17.8232 21.8173 15.9465 21.8173 13.9996C21.8173 12.0527 21.0903 10.1761 19.7786 8.73737C18.4669 7.29868 16.6653 6.4017 14.7267 6.22229V1.47423C17.1096 1.61503 19.4029 2.43263 21.3375 3.83103C23.2721 5.22944 24.7676 7.15066 25.6487 9.36921C26.5298 11.5878 26.7598 14.0116 26.3117 16.3563C25.8636 18.701 24.7561 20.8692 23.1191 22.6065V22.6072Z" fill="url(#paint0_linear_2026_57)"/>
</g>
<line x1="126.5" y1="7.5" x2="126.5" y2="20.5" stroke="#F6F9FE" stroke-linecap="round"/>
<defs>
<linearGradient id="paint0_linear_2026_57" x1="4.11191" y1="23.9076" x2="23.8897" y2="4.1303" gradientUnits="userSpaceOnUse">
<stop offset="0.005" stop-color="#4E9DF7"/>
<stop offset="0.996" stop-color="#6CD8F9"/>
<stop offset="1" stop-color="#6DD9FA"/>
</linearGradient>
<clipPath id="clip0_2026_57">
<rect width="80.2231" height="15.6327" fill="white" transform="translate(38.3102 6.96558)"/>
</clipPath>
<clipPath id="clip1_2026_57">
<rect width="28" height="28" fill="white"/>
</clipPath>
</defs>
</svg>
