<svg width="24" height="24" viewBox="0 0 24 24" fill="none" xmlns="http://www.w3.org/2000/svg">
<path d="M12.5845 17.9448C14.9587 16.2092 17.9388 15.5185 20.8345 16.0327C21.3794 16.1239 21.8951 15.7561 21.9863 15.2112C21.9954 15.1567 22 15.1016 22 15.0464V3.0464C21.9998 2.55804 21.6471 2.14115 21.1655 2.06007C20.4503 1.93542 19.726 1.87074 19 1.86671C16.5172 1.86358 14.0864 2.57794 12 3.92384V18.1333C12.2098 18.1334 12.4142 18.0674 12.5845 17.9448Z" fill="#52A6F8" fill-opacity="0.5"/>
<path d="M5 1.86671C4.27403 1.87074 3.54967 1.93542 2.83447 2.06007C2.35289 2.14115 2.00019 2.55804 2 3.0464V15.0464C2.00018 15.5989 2.44822 16.0466 3.00071 16.0464C3.05593 16.0464 3.11106 16.0418 3.16553 16.0327C3.77131 15.9262 4.38495 15.8707 5 15.8667C7.30424 15.8649 9.54995 16.5924 11.4155 17.9448C11.5858 18.0674 11.7902 18.1334 12 18.1333V3.92384C9.91364 2.57794 7.48281 1.86358 5 1.86671Z" fill="#52A6F8"/>
<path d="M21.1655 18.0601C20.4503 17.9354 19.726 17.8707 19 17.8667C16.5172 17.8636 14.0864 18.578 12 19.9238V22.1333C12.2098 22.1334 12.4142 22.0674 12.5845 21.9448C14.9587 20.2092 17.9388 19.5185 20.8345 20.0327C21.3791 20.125 21.8953 19.7583 21.9876 19.2137C22.0798 18.6691 21.7131 18.1528 21.1685 18.0606C21.1675 18.0604 21.1665 18.0602 21.1655 18.0601Z" fill="#52A6F8" fill-opacity="0.5"/>
<path d="M4.99998 17.8667C4.27403 17.8707 3.54966 17.9354 2.83445 18.0601C2.83341 18.0603 2.83244 18.0604 2.8314 18.0606C2.28678 18.1529 1.92015 18.6691 2.01237 19.2137C2.10466 19.7583 2.62089 20.125 3.16551 20.0327C3.77128 19.9262 4.38493 19.8707 4.99998 19.8667C7.30424 19.8649 9.54991 20.5924 11.4155 21.9448C11.5857 22.0675 11.7902 22.1334 12 22.1333V19.9238C9.91362 18.578 7.48277 17.8636 4.99998 17.8667Z" fill="#52A6F8"/>
</svg>
