<svg width="19" height="18" viewBox="0 0 19 18" fill="none" xmlns="http://www.w3.org/2000/svg">
<g clip-path="url(#clip0_1733_448)">
<path d="M14.9464 0H4.03789C2.0297 0 0.401733 1.61178 0.401733 3.6V14.4C0.401733 16.3883 2.0297 18 4.03789 18H14.9464C16.9546 18 18.5825 16.3883 18.5825 14.4V3.6C18.5825 1.61178 16.9546 0 14.9464 0Z" fill="url(#paint0_radial_1733_448)"/>
<path d="M14.9464 0H4.03789C2.0297 0 0.401733 1.61178 0.401733 3.6V14.4C0.401733 16.3883 2.0297 18 4.03789 18H14.9464C16.9546 18 18.5825 16.3883 18.5825 14.4V3.6C18.5825 1.61178 16.9546 0 14.9464 0Z" fill="url(#paint1_radial_1733_448)" fill-opacity="0.68"/>
<path style="mix-blend-mode:overlay" d="M14.9464 0H4.03789C2.0297 0 0.401733 1.61178 0.401733 3.6V14.4C0.401733 16.3883 2.0297 18 4.03789 18H14.9464C16.9546 18 18.5825 16.3883 18.5825 14.4V3.6C18.5825 1.61178 16.9546 0 14.9464 0Z" fill="url(#paint2_radial_1733_448)" fill-opacity="0.2"/>
<path d="M14.9464 0H4.03789C2.0297 0 0.401733 1.61178 0.401733 3.6V14.4C0.401733 16.3883 2.0297 18 4.03789 18H14.9464C16.9546 18 18.5825 16.3883 18.5825 14.4V3.6C18.5825 1.61178 16.9546 0 14.9464 0Z" fill="url(#paint3_linear_1733_448)" fill-opacity="0.03"/>
<path d="M6.80135 15.3V9.72001L12.1283 15.3H15.0918V15.156L8.96486 8.80201L14.6191 2.77201V2.70001H11.6374L6.80135 8.02801V2.70001H4.40149V15.3H6.80135Z" fill="white"/>
<path d="M14.9464 0H4.03789C2.0297 0 0.401733 1.61178 0.401733 3.6V14.4C0.401733 16.3883 2.0297 18 4.03789 18H14.9464C16.9546 18 18.5825 16.3883 18.5825 14.4V3.6C18.5825 1.61178 16.9546 0 14.9464 0Z" fill="url(#paint4_radial_1733_448)"/>
<path d="M14.9464 0H4.03789C2.0297 0 0.401733 1.61178 0.401733 3.6V14.4C0.401733 16.3883 2.0297 18 4.03789 18H14.9464C16.9546 18 18.5825 16.3883 18.5825 14.4V3.6C18.5825 1.61178 16.9546 0 14.9464 0Z" fill="url(#paint5_radial_1733_448)" fill-opacity="0.57"/>
<path d="M14.9464 0H4.03789C2.0297 0 0.401733 1.61178 0.401733 3.6V14.4C0.401733 16.3883 2.0297 18 4.03789 18H14.9464C16.9546 18 18.5825 16.3883 18.5825 14.4V3.6C18.5825 1.61178 16.9546 0 14.9464 0Z" fill="url(#paint6_radial_1733_448)" fill-opacity="0.68"/>
<path d="M14.9464 0H4.03789C2.0297 0 0.401733 1.61178 0.401733 3.6V14.4C0.401733 16.3883 2.0297 18 4.03789 18H14.9464C16.9546 18 18.5825 16.3883 18.5825 14.4V3.6C18.5825 1.61178 16.9546 0 14.9464 0Z" fill="url(#paint7_radial_1733_448)" fill-opacity="0.08"/>
<path d="M14.9464 0H4.03789C2.0297 0 0.401733 1.61178 0.401733 3.6V14.4C0.401733 16.3883 2.0297 18 4.03789 18H14.9464C16.9546 18 18.5825 16.3883 18.5825 14.4V3.6C18.5825 1.61178 16.9546 0 14.9464 0Z" fill="url(#paint8_linear_1733_448)" fill-opacity="0.03"/>
<path d="M6.80135 15.3V9.72001L12.1283 15.3H15.0918V15.156L8.96486 8.80201L14.6191 2.77201V2.70001H11.6374L6.80135 8.02801V2.70001H4.40149V15.3H6.80135Z" fill="white"/>
</g>
<defs>
<radialGradient id="paint0_radial_1733_448" cx="0" cy="0" r="1" gradientUnits="userSpaceOnUse" gradientTransform="translate(-13.441 8.56437) rotate(140.453) scale(31.1332 37.5002)">
<stop stop-color="#1973C8"/>
<stop offset="1" stop-color="#0D25D1"/>
</radialGradient>
<radialGradient id="paint1_radial_1733_448" cx="0" cy="0" r="1" gradientUnits="userSpaceOnUse" gradientTransform="translate(-17.046 -8.37225) rotate(178.331) scale(19.5492 14.2549)">
<stop stop-color="#5CA6EB"/>
<stop offset="1" stop-color="#5CA6EB" stop-opacity="0.0841893"/>
</radialGradient>
<radialGradient id="paint2_radial_1733_448" cx="0" cy="0" r="1" gradientUnits="userSpaceOnUse" gradientTransform="translate(-15.6268 1.16461) rotate(120.186) scale(10.3671 15.6199)">
<stop stop-color="white"/>
<stop offset="0.999604" stop-color="white" stop-opacity="0.329873"/>
</radialGradient>
<linearGradient id="paint3_linear_1733_448" x1="17.5348" y1="10.6139" x2="0.498498" y2="-0.153107" gradientUnits="userSpaceOnUse">
<stop stop-color="white" stop-opacity="0.184878"/>
<stop offset="1" stop-color="white"/>
</linearGradient>
<radialGradient id="paint4_radial_1733_448" cx="0" cy="0" r="1" gradientUnits="userSpaceOnUse" gradientTransform="translate(16.922 1.97253) scale(31.2711 30.9602)">
<stop stop-color="#2F80F2"/>
<stop offset="0.999657" stop-color="#A942B5"/>
</radialGradient>
<radialGradient id="paint5_radial_1733_448" cx="0" cy="0" r="1" gradientUnits="userSpaceOnUse" gradientTransform="translate(0.40173 0.38666) scale(28.927 28.6394)">
<stop stop-color="#45F9DE"/>
<stop offset="1" stop-color="#A942B5" stop-opacity="0"/>
</radialGradient>
<radialGradient id="paint6_radial_1733_448" cx="0" cy="0" r="1" gradientUnits="userSpaceOnUse" gradientTransform="translate(18.5825 18) scale(17.4614 17.2878)">
<stop stop-color="#E957C5"/>
<stop offset="1" stop-color="#A942B5" stop-opacity="0"/>
</radialGradient>
<radialGradient id="paint7_radial_1733_448" cx="0" cy="0" r="1" gradientUnits="userSpaceOnUse" gradientTransform="translate(9.49212 9) scale(10.4815 10.3773)">
<stop stop-opacity="0.184878"/>
<stop offset="1" stop-color="#101010"/>
</radialGradient>
<linearGradient id="paint8_linear_1733_448" x1="17.5348" y1="10.6139" x2="0.498498" y2="-0.153107" gradientUnits="userSpaceOnUse">
<stop stop-color="white" stop-opacity="0.184878"/>
<stop offset="1" stop-color="white"/>
</linearGradient>
<clipPath id="clip0_1733_448">
<rect width="18.1808" height="18" fill="white" transform="translate(0.401733)"/>
</clipPath>
</defs>
</svg>
