<svg width="14" height="14" viewBox="0 0 14 14" fill="none" xmlns="http://www.w3.org/2000/svg">
<path opacity="0.2" d="M6.99935 12.8334C10.221 12.8334 12.8327 10.2217 12.8327 7.00002C12.8327 3.77836 10.221 1.16669 6.99935 1.16669C3.77769 1.16669 1.16602 3.77836 1.16602 7.00002C1.16602 10.2217 3.77769 12.8334 6.99935 12.8334Z" fill="#7D87AA"/>
<path d="M6.99954 9.91667C6.92292 9.91672 6.84705 9.90166 6.77625 9.87236C6.70546 9.84306 6.64114 9.80009 6.58696 9.74592C6.53278 9.69174 6.48982 9.62742 6.46052 9.55662C6.43122 9.48583 6.41616 9.40996 6.4162 9.33334V7.00001C6.4162 6.8453 6.47766 6.69692 6.58706 6.58753C6.69645 6.47813 6.84483 6.41667 6.99954 6.41667C7.15425 6.41667 7.30262 6.47813 7.41202 6.58753C7.52141 6.69692 7.58287 6.8453 7.58287 7.00001V9.33334C7.58291 9.40996 7.56786 9.48583 7.53856 9.55662C7.50926 9.62742 7.46629 9.69174 7.41211 9.74592C7.35794 9.80009 7.29361 9.84306 7.22282 9.87236C7.15203 9.90166 7.07615 9.91672 6.99954 9.91667ZM6.99954 5.25001C6.92333 5.24907 6.84804 5.2332 6.77794 5.20329C6.70721 5.1738 6.64208 5.13238 6.58537 5.08084C6.53103 5.02654 6.48808 4.96193 6.45903 4.89081C6.42998 4.81969 6.41542 4.74349 6.4162 4.66667C6.41407 4.59016 6.43008 4.51422 6.46292 4.44508C6.49241 4.37435 6.53383 4.30921 6.58537 4.25251C6.64113 4.19973 6.70649 4.15815 6.77792 4.13001C6.91982 4.07133 7.07921 4.07133 7.22111 4.13001C7.29247 4.15828 7.35781 4.19985 7.41366 4.25251C7.52015 4.36436 7.58058 4.51225 7.58287 4.66667C7.58362 4.74349 7.56904 4.81967 7.53999 4.89079C7.51094 4.9619 7.468 5.0265 7.41368 5.08082C7.35936 5.13513 7.29476 5.17807 7.22365 5.20712C7.15254 5.23617 7.07635 5.25075 6.99954 5.25001Z" fill="#7D87AA"/>
</svg>
