<svg width="25" height="24" viewBox="0 0 25 24" fill="none" xmlns="http://www.w3.org/2000/svg">
<path d="M12.3214 2C10.3237 2 8.37089 2.58649 6.70988 3.6853C5.04888 4.78412 3.75428 6.3459 2.9898 8.17317C2.22532 10.0004 2.0253 12.0111 2.41503 13.9509C2.80476 15.8907 3.76673 17.6725 5.1793 19.0711C6.59187 20.4696 8.39159 21.422 10.3509 21.8079C12.3102 22.1937 14.341 21.9957 16.1867 21.2388C18.0323 20.4819 19.6097 19.2002 20.7196 17.5557C21.8294 15.9112 22.4218 13.9778 22.4218 12C22.4188 9.34874 21.3537 6.80691 19.4602 4.93219C17.5666 3.05746 14.9993 2.00295 12.3214 2ZM12.3214 20C10.7232 20 9.16099 19.5308 7.83218 18.6518C6.50338 17.7727 5.4677 16.5233 4.85612 15.0615C4.24454 13.5997 4.08452 11.9911 4.3963 10.4393C4.70808 8.88743 5.47766 7.46197 6.60772 6.34315C7.73777 5.22433 9.17755 4.4624 10.745 4.15372C12.3124 3.84504 13.9371 4.00346 15.4136 4.60896C16.8901 5.21447 18.1521 6.23984 19.0399 7.55544C19.9278 8.87103 20.4017 10.4177 20.4017 12C20.3993 14.121 19.5472 16.1544 18.0323 17.6542C16.5175 19.1539 14.4637 19.9976 12.3214 20ZM12.3214 11.5C12.0535 11.5 11.7966 11.6054 11.6072 11.7929C11.4178 11.9804 11.3113 12.2348 11.3113 12.5V15.5C11.3113 15.7652 11.4178 16.0196 11.6072 16.2071C11.7966 16.3946 12.0535 16.5 12.3214 16.5C12.5893 16.5 12.8462 16.3946 13.0356 16.2071C13.225 16.0196 13.3314 15.7652 13.3314 15.5V12.5C13.3314 12.2348 13.225 11.9804 13.0356 11.7929C12.8462 11.6054 12.5893 11.5 12.3214 11.5ZM12.3214 7.5C12.0717 7.5 11.8276 7.57331 11.6199 7.71066C11.4123 7.84801 11.2505 8.04324 11.1549 8.27165C11.0594 8.50005 11.0344 8.75139 11.0831 8.99386C11.1318 9.23634 11.2521 9.45907 11.4286 9.63388C11.6052 9.8087 11.8302 9.92775 12.0751 9.97598C12.32 10.0242 12.5738 9.99946 12.8045 9.90485C13.0352 9.81024 13.2324 9.65002 13.3712 9.44446C13.5099 9.2389 13.5839 8.99723 13.5839 8.75C13.5839 8.41848 13.4509 8.10054 13.2141 7.86612C12.9774 7.6317 12.6562 7.5 12.3214 7.5Z" fill="#F5B95E"/>
</svg>
