<svg width="156" height="188" viewBox="0 0 156 188" fill="none" xmlns="http://www.w3.org/2000/svg">
<line x1="151.5" y1="0.5" x2="151.5" y2="187.5" stroke="#636D8F" stroke-opacity="0.2" stroke-linecap="round"/>
<path d="M12.9963 32.252C12.9963 32.7747 12.8703 33.2647 12.6183 33.722C12.3756 34.1793 11.9883 34.548 11.4563 34.828C10.9336 35.108 10.271 35.248 9.4683 35.248H7.8303V39H5.8703V29.228H9.4683C10.2243 29.228 10.8683 29.3587 11.4003 29.62C11.9323 29.8813 12.329 30.2407 12.5903 30.698C12.861 31.1553 12.9963 31.6733 12.9963 32.252ZM9.3843 33.666C9.92563 33.666 10.327 33.5447 10.5883 33.302C10.8496 33.05 10.9803 32.7 10.9803 32.252C10.9803 31.3 10.4483 30.824 9.3843 30.824H7.8303V33.666H9.3843ZM16.3479 32.448C16.5999 32.0373 16.9265 31.7153 17.3279 31.482C17.7385 31.2487 18.2052 31.132 18.7279 31.132V33.19H18.2099C17.5939 33.19 17.1272 33.3347 16.8099 33.624C16.5019 33.9133 16.3479 34.4173 16.3479 35.136V39H14.3879V31.244H16.3479V32.448ZM27.258 34.954C27.258 35.234 27.2394 35.486 27.202 35.71H21.532C21.5787 36.27 21.7747 36.7087 22.12 37.026C22.4654 37.3433 22.89 37.502 23.394 37.502C24.122 37.502 24.64 37.1893 24.948 36.564H27.062C26.838 37.3107 26.4087 37.9267 25.774 38.412C25.1394 38.888 24.36 39.126 23.436 39.126C22.6894 39.126 22.0174 38.9627 21.42 38.636C20.832 38.3 20.37 37.8287 20.034 37.222C19.7074 36.6153 19.544 35.9153 19.544 35.122C19.544 34.3193 19.7074 33.6147 20.034 33.008C20.3607 32.4013 20.818 31.9347 21.406 31.608C21.994 31.2813 22.6707 31.118 23.436 31.118C24.1734 31.118 24.8314 31.2767 25.41 31.594C25.998 31.9113 26.4507 32.364 26.768 32.952C27.0947 33.5307 27.258 34.198 27.258 34.954ZM25.228 34.394C25.2187 33.89 25.0367 33.4887 24.682 33.19C24.3274 32.882 23.8934 32.728 23.38 32.728C22.8947 32.728 22.484 32.8773 22.148 33.176C21.8214 33.4653 21.6207 33.8713 21.546 34.394H25.228ZM30.6487 32.364C30.9007 32.0093 31.246 31.7153 31.6847 31.482C32.1327 31.2393 32.6413 31.118 33.2107 31.118C33.8733 31.118 34.4707 31.2813 35.0027 31.608C35.544 31.9347 35.9687 32.4013 36.2767 33.008C36.594 33.6053 36.7527 34.3007 36.7527 35.094C36.7527 35.8873 36.594 36.592 36.2767 37.208C35.9687 37.8147 35.544 38.286 35.0027 38.622C34.4707 38.958 33.8733 39.126 33.2107 39.126C32.6413 39.126 32.1373 39.0093 31.6987 38.776C31.2693 38.5427 30.9193 38.2487 30.6487 37.894V42.696H28.6887V31.244H30.6487V32.364ZM34.7507 35.094C34.7507 34.6273 34.6527 34.226 34.4567 33.89C34.27 33.5447 34.018 33.2833 33.7007 33.106C33.3927 32.9287 33.0567 32.84 32.6927 32.84C32.338 32.84 32.002 32.9333 31.6847 33.12C31.3767 33.2973 31.1247 33.5587 30.9287 33.904C30.742 34.2493 30.6487 34.6553 30.6487 35.122C30.6487 35.5887 30.742 35.9947 30.9287 36.34C31.1247 36.6853 31.3767 36.9513 31.6847 37.138C32.002 37.3153 32.338 37.404 32.6927 37.404C33.0567 37.404 33.3927 37.3107 33.7007 37.124C34.018 36.9373 34.27 36.6713 34.4567 36.326C34.6527 35.9807 34.7507 35.57 34.7507 35.094ZM37.6729 35.094C37.6729 34.31 37.8269 33.6147 38.1349 33.008C38.4523 32.4013 38.8769 31.9347 39.4089 31.608C39.9503 31.2813 40.5523 31.118 41.2149 31.118C41.7936 31.118 42.2976 31.2347 42.7269 31.468C43.1656 31.7013 43.5156 31.9953 43.7769 32.35V31.244H45.7509V39H43.7769V37.866C43.5249 38.23 43.1749 38.5333 42.7269 38.776C42.2883 39.0093 41.7796 39.126 41.2009 39.126C40.5476 39.126 39.9503 38.958 39.4089 38.622C38.8769 38.286 38.4523 37.8147 38.1349 37.208C37.8269 36.592 37.6729 35.8873 37.6729 35.094ZM43.7769 35.122C43.7769 34.646 43.6836 34.24 43.4969 33.904C43.3103 33.5587 43.0583 33.2973 42.7409 33.12C42.4236 32.9333 42.0829 32.84 41.7189 32.84C41.3549 32.84 41.0189 32.9287 40.7109 33.106C40.4029 33.2833 40.1509 33.5447 39.9549 33.89C39.7683 34.226 39.6749 34.6273 39.6749 35.094C39.6749 35.5607 39.7683 35.9713 39.9549 36.326C40.1509 36.6713 40.4029 36.9373 40.7109 37.124C41.0283 37.3107 41.3643 37.404 41.7189 37.404C42.0829 37.404 42.4236 37.3153 42.7409 37.138C43.0583 36.9513 43.3103 36.69 43.4969 36.354C43.6836 36.0087 43.7769 35.598 43.7769 35.122ZM49.6252 32.448C49.8772 32.0373 50.2039 31.7153 50.6052 31.482C51.0159 31.2487 51.4826 31.132 52.0052 31.132V33.19H51.4872C50.8712 33.19 50.4046 33.3347 50.0872 33.624C49.7792 33.9133 49.6252 34.4173 49.6252 35.136V39H47.6652V31.244H49.6252V32.448ZM60.5354 34.954C60.5354 35.234 60.5167 35.486 60.4794 35.71H54.8094C54.856 36.27 55.052 36.7087 55.3974 37.026C55.7427 37.3433 56.1674 37.502 56.6714 37.502C57.3994 37.502 57.9174 37.1893 58.2254 36.564H60.3394C60.1154 37.3107 59.686 37.9267 59.0514 38.412C58.4167 38.888 57.6374 39.126 56.7134 39.126C55.9667 39.126 55.2947 38.9627 54.6974 38.636C54.1094 38.3 53.6474 37.8287 53.3114 37.222C52.9847 36.6153 52.8214 35.9153 52.8214 35.122C52.8214 34.3193 52.9847 33.6147 53.3114 33.008C53.638 32.4013 54.0954 31.9347 54.6834 31.608C55.2714 31.2813 55.948 31.118 56.7134 31.118C57.4507 31.118 58.1087 31.2767 58.6874 31.594C59.2754 31.9113 59.728 32.364 60.0454 32.952C60.372 33.5307 60.5354 34.198 60.5354 34.954ZM58.5054 34.394C58.496 33.89 58.314 33.4887 57.9594 33.19C57.6047 32.882 57.1707 32.728 56.6574 32.728C56.172 32.728 55.7614 32.8773 55.4254 33.176C55.0987 33.4653 54.898 33.8713 54.8234 34.394H58.5054Z" fill="#7D87AA"/>
<path d="M7.35058 98.138H3.45858L2.81458 100H0.756578L4.27058 90.214H6.55258L10.0666 100H7.99458L7.35058 98.138ZM6.81858 96.57L5.40458 92.482L3.99058 96.57H6.81858ZM13.3401 93.364C13.5921 93.0093 13.9374 92.7153 14.3761 92.482C14.8241 92.2393 15.3327 92.118 15.9021 92.118C16.5647 92.118 17.1621 92.2813 17.6941 92.608C18.2354 92.9347 18.6601 93.4013 18.9681 94.008C19.2854 94.6053 19.4441 95.3007 19.4441 96.094C19.4441 96.8873 19.2854 97.592 18.9681 98.208C18.6601 98.8147 18.2354 99.286 17.6941 99.622C17.1621 99.958 16.5647 100.126 15.9021 100.126C15.3327 100.126 14.8287 100.009 14.3901 99.776C13.9607 99.5427 13.6107 99.2487 13.3401 98.894V103.696H11.3801V92.244H13.3401V93.364ZM17.4421 96.094C17.4421 95.6273 17.3441 95.226 17.1481 94.89C16.9614 94.5447 16.7094 94.2833 16.3921 94.106C16.0841 93.9287 15.7481 93.84 15.3841 93.84C15.0294 93.84 14.6934 93.9333 14.3761 94.12C14.0681 94.2973 13.8161 94.5587 13.6201 94.904C13.4334 95.2493 13.3401 95.6553 13.3401 96.122C13.3401 96.5887 13.4334 96.9947 13.6201 97.34C13.8161 97.6853 14.0681 97.9513 14.3761 98.138C14.6934 98.3153 15.0294 98.404 15.3841 98.404C15.7481 98.404 16.0841 98.3107 16.3921 98.124C16.7094 97.9373 16.9614 97.6713 17.1481 97.326C17.3441 96.9807 17.4421 96.57 17.4421 96.094ZM22.8283 93.364C23.0803 93.0093 23.4257 92.7153 23.8643 92.482C24.3123 92.2393 24.821 92.118 25.3903 92.118C26.053 92.118 26.6503 92.2813 27.1823 92.608C27.7237 92.9347 28.1483 93.4013 28.4563 94.008C28.7737 94.6053 28.9323 95.3007 28.9323 96.094C28.9323 96.8873 28.7737 97.592 28.4563 98.208C28.1483 98.8147 27.7237 99.286 27.1823 99.622C26.6503 99.958 26.053 100.126 25.3903 100.126C24.821 100.126 24.317 100.009 23.8783 99.776C23.449 99.5427 23.099 99.2487 22.8283 98.894V103.696H20.8683V92.244H22.8283V93.364ZM26.9303 96.094C26.9303 95.6273 26.8323 95.226 26.6363 94.89C26.4497 94.5447 26.1977 94.2833 25.8803 94.106C25.5723 93.9287 25.2363 93.84 24.8723 93.84C24.5177 93.84 24.1817 93.9333 23.8643 94.12C23.5563 94.2973 23.3043 94.5587 23.1083 94.904C22.9217 95.2493 22.8283 95.6553 22.8283 96.122C22.8283 96.5887 22.9217 96.9947 23.1083 97.34C23.3043 97.6853 23.5563 97.9513 23.8643 98.138C24.1817 98.3153 24.5177 98.404 24.8723 98.404C25.2363 98.404 25.5723 98.3107 25.8803 98.124C26.1977 97.9373 26.4497 97.6713 26.6363 97.326C26.8323 96.9807 26.9303 96.57 26.9303 96.094ZM32.3166 93.448C32.5686 93.0373 32.8953 92.7153 33.2966 92.482C33.7073 92.2487 34.174 92.132 34.6966 92.132V94.19H34.1786C33.5626 94.19 33.096 94.3347 32.7786 94.624C32.4706 94.9133 32.3166 95.4173 32.3166 96.136V100H30.3566V92.244H32.3166V93.448ZM39.4608 100.126C38.7141 100.126 38.0421 99.9627 37.4448 99.636C36.8474 99.3 36.3761 98.8287 36.0308 98.222C35.6948 97.6153 35.5268 96.9153 35.5268 96.122C35.5268 95.3287 35.6994 94.6287 36.0448 94.022C36.3994 93.4153 36.8801 92.9487 37.4868 92.622C38.0934 92.286 38.7701 92.118 39.5168 92.118C40.2634 92.118 40.9401 92.286 41.5468 92.622C42.1534 92.9487 42.6294 93.4153 42.9748 94.022C43.3294 94.6287 43.5068 95.3287 43.5068 96.122C43.5068 96.9153 43.3248 97.6153 42.9608 98.222C42.6061 98.8287 42.1208 99.3 41.5048 99.636C40.8981 99.9627 40.2168 100.126 39.4608 100.126ZM39.4608 98.418C39.8154 98.418 40.1468 98.334 40.4548 98.166C40.7721 97.9887 41.0241 97.7273 41.2108 97.382C41.3974 97.0367 41.4908 96.6167 41.4908 96.122C41.4908 95.3847 41.2948 94.82 40.9028 94.428C40.5201 94.0267 40.0488 93.826 39.4888 93.826C38.9288 93.826 38.4574 94.0267 38.0748 94.428C37.7014 94.82 37.5148 95.3847 37.5148 96.122C37.5148 96.8593 37.6968 97.4287 38.0608 97.83C38.4341 98.222 38.9008 98.418 39.4608 98.418ZM48.1785 98.194L50.1385 92.244H52.2245L49.3545 100H46.9745L44.1185 92.244H46.2185L48.1785 98.194ZM60.5354 95.954C60.5354 96.234 60.5167 96.486 60.4794 96.71H54.8094C54.856 97.27 55.052 97.7087 55.3974 98.026C55.7427 98.3433 56.1674 98.502 56.6714 98.502C57.3994 98.502 57.9174 98.1893 58.2254 97.564H60.3394C60.1154 98.3107 59.686 98.9267 59.0514 99.412C58.4167 99.888 57.6374 100.126 56.7134 100.126C55.9667 100.126 55.2947 99.9627 54.6974 99.636C54.1094 99.3 53.6474 98.8287 53.3114 98.222C52.9847 97.6153 52.8214 96.9153 52.8214 96.122C52.8214 95.3193 52.9847 94.6147 53.3114 94.008C53.638 93.4013 54.0954 92.9347 54.6834 92.608C55.2714 92.2813 55.948 92.118 56.7134 92.118C57.4507 92.118 58.1087 92.2767 58.6874 92.594C59.2754 92.9113 59.728 93.364 60.0454 93.952C60.372 94.5307 60.5354 95.198 60.5354 95.954ZM58.5054 95.394C58.496 94.89 58.314 94.4887 57.9594 94.19C57.6047 93.882 57.1707 93.728 56.6574 93.728C56.172 93.728 55.7614 93.8773 55.4254 94.176C55.0987 94.4653 54.898 94.8713 54.8234 95.394H58.5054Z" fill="#F6F9FE"/>
<path d="M11.301 152.252C11.301 152.775 11.175 153.265 10.923 153.722C10.6803 154.179 10.293 154.548 9.76098 154.828C9.23832 155.108 8.57565 155.248 7.77298 155.248H6.13498V159H4.17498V149.228H7.77298C8.52898 149.228 9.17298 149.359 9.70498 149.62C10.237 149.881 10.6337 150.241 10.895 150.698C11.1657 151.155 11.301 151.673 11.301 152.252ZM7.68898 153.666C8.23032 153.666 8.63165 153.545 8.89298 153.302C9.15432 153.05 9.28498 152.7 9.28498 152.252C9.28498 151.3 8.75298 150.824 7.68898 150.824H6.13498V153.666H7.68898ZM14.6526 152.448C14.9046 152.037 15.2312 151.715 15.6326 151.482C16.0432 151.249 16.5099 151.132 17.0326 151.132V153.19H16.5146C15.8986 153.19 15.4319 153.335 15.1146 153.624C14.8066 153.913 14.6526 154.417 14.6526 155.136V159H12.6926V151.244H14.6526V152.448ZM21.7967 159.126C21.0501 159.126 20.3781 158.963 19.7807 158.636C19.1834 158.3 18.7121 157.829 18.3667 157.222C18.0307 156.615 17.8627 155.915 17.8627 155.122C17.8627 154.329 18.0354 153.629 18.3807 153.022C18.7354 152.415 19.2161 151.949 19.8227 151.622C20.4294 151.286 21.1061 151.118 21.8527 151.118C22.5994 151.118 23.2761 151.286 23.8827 151.622C24.4894 151.949 24.9654 152.415 25.3107 153.022C25.6654 153.629 25.8427 154.329 25.8427 155.122C25.8427 155.915 25.6607 156.615 25.2967 157.222C24.9421 157.829 24.4567 158.3 23.8407 158.636C23.2341 158.963 22.5527 159.126 21.7967 159.126ZM21.7967 157.418C22.1514 157.418 22.4827 157.334 22.7907 157.166C23.1081 156.989 23.3601 156.727 23.5467 156.382C23.7334 156.037 23.8267 155.617 23.8267 155.122C23.8267 154.385 23.6307 153.82 23.2387 153.428C22.8561 153.027 22.3847 152.826 21.8247 152.826C21.2647 152.826 20.7934 153.027 20.4107 153.428C20.0374 153.82 19.8507 154.385 19.8507 155.122C19.8507 155.859 20.0327 156.429 20.3967 156.83C20.7701 157.222 21.2367 157.418 21.7967 157.418ZM29.2405 152.364C29.4925 152.009 29.8378 151.715 30.2765 151.482C30.7245 151.239 31.2331 151.118 31.8025 151.118C32.4651 151.118 33.0625 151.281 33.5945 151.608C34.1358 151.935 34.5605 152.401 34.8685 153.008C35.1858 153.605 35.3445 154.301 35.3445 155.094C35.3445 155.887 35.1858 156.592 34.8685 157.208C34.5605 157.815 34.1358 158.286 33.5945 158.622C33.0625 158.958 32.4651 159.126 31.8025 159.126C31.2331 159.126 30.7291 159.009 30.2905 158.776C29.8611 158.543 29.5111 158.249 29.2405 157.894V162.696H27.2805V151.244H29.2405V152.364ZM33.3425 155.094C33.3425 154.627 33.2445 154.226 33.0485 153.89C32.8618 153.545 32.6098 153.283 32.2925 153.106C31.9845 152.929 31.6485 152.84 31.2845 152.84C30.9298 152.84 30.5938 152.933 30.2765 153.12C29.9685 153.297 29.7165 153.559 29.5205 153.904C29.3338 154.249 29.2405 154.655 29.2405 155.122C29.2405 155.589 29.3338 155.995 29.5205 156.34C29.7165 156.685 29.9685 156.951 30.2765 157.138C30.5938 157.315 30.9298 157.404 31.2845 157.404C31.6485 157.404 31.9845 157.311 32.2925 157.124C32.6098 156.937 32.8618 156.671 33.0485 156.326C33.2445 155.981 33.3425 155.57 33.3425 155.094ZM40.2127 159.126C39.4661 159.126 38.7941 158.963 38.1967 158.636C37.5994 158.3 37.1281 157.829 36.7827 157.222C36.4467 156.615 36.2787 155.915 36.2787 155.122C36.2787 154.329 36.4514 153.629 36.7967 153.022C37.1514 152.415 37.6321 151.949 38.2387 151.622C38.8454 151.286 39.5221 151.118 40.2687 151.118C41.0154 151.118 41.6921 151.286 42.2987 151.622C42.9054 151.949 43.3814 152.415 43.7267 153.022C44.0814 153.629 44.2587 154.329 44.2587 155.122C44.2587 155.915 44.0767 156.615 43.7127 157.222C43.3581 157.829 42.8727 158.3 42.2567 158.636C41.6501 158.963 40.9687 159.126 40.2127 159.126ZM40.2127 157.418C40.5674 157.418 40.8987 157.334 41.2067 157.166C41.5241 156.989 41.7761 156.727 41.9627 156.382C42.1494 156.037 42.2427 155.617 42.2427 155.122C42.2427 154.385 42.0467 153.82 41.6547 153.428C41.2721 153.027 40.8007 152.826 40.2407 152.826C39.6807 152.826 39.2094 153.027 38.8267 153.428C38.4534 153.82 38.2667 154.385 38.2667 155.122C38.2667 155.859 38.4487 156.429 38.8127 156.83C39.1861 157.222 39.6527 157.418 40.2127 157.418ZM48.6645 159.126C48.0298 159.126 47.4605 159.014 46.9565 158.79C46.4525 158.557 46.0511 158.244 45.7525 157.852C45.4631 157.46 45.3045 157.026 45.2765 156.55H47.2505C47.2878 156.849 47.4325 157.096 47.6845 157.292C47.9458 157.488 48.2678 157.586 48.6505 157.586C49.0238 157.586 49.3131 157.511 49.5185 157.362C49.7331 157.213 49.8405 157.021 49.8405 156.788C49.8405 156.536 49.7098 156.349 49.4485 156.228C49.1965 156.097 48.7905 155.957 48.2305 155.808C47.6518 155.668 47.1758 155.523 46.8025 155.374C46.4385 155.225 46.1211 154.996 45.8505 154.688C45.5891 154.38 45.4585 153.965 45.4585 153.442C45.4585 153.013 45.5798 152.621 45.8225 152.266C46.0745 151.911 46.4291 151.631 46.8865 151.426C47.3531 151.221 47.8991 151.118 48.5245 151.118C49.4485 151.118 50.1858 151.351 50.7365 151.818C51.2871 152.275 51.5905 152.896 51.6465 153.68H49.7705C49.7425 153.372 49.6118 153.129 49.3785 152.952C49.1545 152.765 48.8511 152.672 48.4685 152.672C48.1138 152.672 47.8385 152.737 47.6425 152.868C47.4558 152.999 47.3625 153.181 47.3625 153.414C47.3625 153.675 47.4931 153.876 47.7545 154.016C48.0158 154.147 48.4218 154.282 48.9725 154.422C49.5325 154.562 49.9945 154.707 50.3585 154.856C50.7225 155.005 51.0351 155.239 51.2965 155.556C51.5671 155.864 51.7071 156.275 51.7165 156.788C51.7165 157.236 51.5905 157.637 51.3385 157.992C51.0958 158.347 50.7411 158.627 50.2745 158.832C49.8171 159.028 49.2805 159.126 48.6645 159.126ZM60.5354 154.954C60.5354 155.234 60.5167 155.486 60.4794 155.71H54.8094C54.856 156.27 55.052 156.709 55.3974 157.026C55.7427 157.343 56.1674 157.502 56.6714 157.502C57.3994 157.502 57.9174 157.189 58.2254 156.564H60.3394C60.1154 157.311 59.686 157.927 59.0514 158.412C58.4167 158.888 57.6374 159.126 56.7134 159.126C55.9667 159.126 55.2947 158.963 54.6974 158.636C54.1094 158.3 53.6474 157.829 53.3114 157.222C52.9847 156.615 52.8214 155.915 52.8214 155.122C52.8214 154.319 52.9847 153.615 53.3114 153.008C53.638 152.401 54.0954 151.935 54.6834 151.608C55.2714 151.281 55.948 151.118 56.7134 151.118C57.4507 151.118 58.1087 151.277 58.6874 151.594C59.2754 151.911 59.728 152.364 60.0454 152.952C60.372 153.531 60.5354 154.198 60.5354 154.954ZM58.5054 154.394C58.496 153.89 58.314 153.489 57.9594 153.19C57.6047 152.882 57.1707 152.728 56.6574 152.728C56.172 152.728 55.7614 152.877 55.4254 153.176C55.0987 153.465 54.898 153.871 54.8234 154.394H58.5054Z" fill="#7D87AA"/>
<circle cx="151" cy="94" r="5" fill="#52A6F8"/>
<circle cx="151" cy="33" r="4" fill="#20273E" stroke="#7D87AA" stroke-width="2"/>
<circle cx="151" cy="155" r="4" fill="#20273E" stroke="#7D87AA" stroke-width="2"/>
<circle cx="98" cy="33" r="18" fill="#52A6F8" fill-opacity="0.1"/>
<path d="M95.0832 32.5833C96.9166 32.5833 98.4166 31.0833 98.4166 29.25C98.4166 27.4167 96.9166 25.9167 95.0832 25.9167C93.2499 25.9167 91.7499 27.4167 91.7499 29.25C91.7499 31.0833 93.2499 32.5833 95.0832 32.5833ZM98.8332 31.8333C100.25 33 102.333 32.75 103.5 31.3333C104.667 29.9167 104.417 27.8333 103 26.6667C102.417 26.1667 101.667 25.9167 100.917 25.9167C100.167 25.9167 99.4166 26.1667 98.8332 26.6667C100.25 27.8333 100.5 29.8333 99.3332 31.3333C99.2499 31.5 98.9999 31.6667 98.8332 31.8333ZM107.083 39.1667C106.583 36.0833 104 33.8333 100.917 33.8333C100.167 33.8333 99.4999 33.9167 98.8332 34.1667C101 34.9167 102.583 36.8333 102.917 39.0833C103 39.5 102.667 40 102.167 40H102.083H106.25C106.75 40 107.083 39.6667 107.083 39.1667C107.083 39.25 107.083 39.1667 107.083 39.1667ZM95.0832 33.8333C91.9999 33.8333 89.3332 36.0833 88.9166 39.1667C88.8332 39.5833 89.1666 40.0833 89.6666 40.0833H89.7499H100.417C100.917 40.0833 101.25 39.75 101.25 39.25V39.1667C100.833 36.0833 98.1666 33.8333 95.0832 33.8333Z" fill="#52A6F8"/>
<circle cx="98" cy="94" r="18" fill="#52A6F8"/>
<path d="M102.167 87.3333H101.167C100.833 86.3333 99.9168 85.6667 98.8335 85.6667H97.1668C96.0835 85.6667 95.1668 86.3333 94.8335 87.3333H93.8335C92.4168 87.3333 91.3335 88.4167 91.3335 89.8333V99.8333C91.3335 101.25 92.4168 102.333 93.8335 102.333H102.167C103.583 102.333 104.667 101.25 104.667 99.8333V89.8333C104.667 88.4167 103.583 87.3333 102.167 87.3333ZM96.3335 88.1667C96.3335 87.6667 96.6668 87.3333 97.1668 87.3333H98.8335C99.3335 87.3333 99.6668 87.6667 99.6668 88.1667V89H96.3335V88.1667ZM98.8335 97.3333H95.5002C95.0002 97.3333 94.6668 97 94.6668 96.5C94.6668 96 95.0002 95.6667 95.5002 95.6667H98.8335C99.3335 95.6667 99.6668 96 99.6668 96.5C99.6668 97 99.3335 97.3333 98.8335 97.3333ZM100.5 94H95.5002C95.0002 94 94.6668 93.6667 94.6668 93.1667C94.6668 92.6667 95.0002 92.3333 95.5002 92.3333H100.5C101 92.3333 101.333 92.6667 101.333 93.1667C101.333 93.6667 101 94 100.5 94Z" fill="#F6F9FE"/>
<circle cx="98" cy="155" r="18" fill="#52A6F8" fill-opacity="0.1"/>
<path d="M104.417 151.583C104.75 151.25 104.75 150.75 104.417 150.417L100.917 146.917C100.583 146.583 100.083 146.583 99.7498 146.917L97.4165 149.25L102.167 154L104.417 151.583ZM92.1665 160H95.6665C95.9165 160 96.0832 159.917 96.2498 159.75L100.833 155.167L96.1665 150.417L91.5832 155C91.4165 155.167 91.3332 155.417 91.3332 155.667V159.167C91.3332 159.667 91.6665 160 92.1665 160ZM105.5 161.667H90.4998C89.9998 161.667 89.6665 162 89.6665 162.5C89.6665 163 89.9998 163.333 90.4998 163.333H105.5C106 163.333 106.333 163 106.333 162.5C106.333 162 106 161.667 105.5 161.667Z" fill="#52A6F8"/>
</svg>
