<svg width="156" height="188" viewBox="0 0 156 188" fill="none" xmlns="http://www.w3.org/2000/svg">
<line x1="151.5" y1="0.5" x2="151.5" y2="187.5" stroke="#636D8F" stroke-opacity="0.2" stroke-linecap="round"/>
<path d="M7.8303 33.666V30.824H9.3843C10.4903 30.824 10.9803 31.356 10.9803 32.252C10.9803 33.12 10.4903 33.666 9.3843 33.666H7.8303ZM12.9963 32.252C12.9963 30.558 11.8203 29.228 9.4683 29.228H5.8703V39H7.8303V35.248H9.4683C11.9883 35.248 12.9963 33.736 12.9963 32.252ZM16.3479 35.136C16.3479 33.638 17.0479 33.19 18.2099 33.19H18.7279V31.132C17.6499 31.132 16.8379 31.65 16.3479 32.448V31.244H14.3879V39H16.3479V35.136ZM23.38 32.728C24.388 32.728 25.2 33.372 25.228 34.394H21.546C21.7 33.33 22.442 32.728 23.38 32.728ZM27.062 36.564H24.948C24.696 37.082 24.234 37.502 23.394 37.502C22.414 37.502 21.63 36.858 21.532 35.71H27.202C27.244 35.458 27.258 35.206 27.258 34.954C27.258 32.644 25.676 31.118 23.436 31.118C21.14 31.118 19.544 32.672 19.544 35.122C19.544 37.558 21.182 39.126 23.436 39.126C25.354 39.126 26.642 37.992 27.062 36.564ZM30.6487 32.364V31.244H28.6887V42.696H30.6487V37.894C31.1247 38.524 31.9927 39.126 33.2107 39.126C35.1987 39.126 36.7527 37.516 36.7527 35.094C36.7527 32.672 35.1987 31.118 33.2107 31.118C32.0067 31.118 31.1107 31.706 30.6487 32.364ZM34.7507 35.094C34.7507 36.564 33.7567 37.404 32.6927 37.404C31.6427 37.404 30.6487 36.592 30.6487 35.122C30.6487 33.652 31.6427 32.84 32.6927 32.84C33.7567 32.84 34.7507 33.624 34.7507 35.094ZM37.6729 35.094C37.6729 37.516 39.2409 39.126 41.2009 39.126C42.4329 39.126 43.3149 38.538 43.7769 37.866V39H45.7509V31.244H43.7769V32.35C43.3149 31.706 42.4609 31.118 41.2149 31.118C39.2409 31.118 37.6729 32.672 37.6729 35.094ZM43.7769 35.122C43.7769 36.592 42.7969 37.404 41.7189 37.404C40.6689 37.404 39.6749 36.564 39.6749 35.094C39.6749 33.624 40.6689 32.84 41.7189 32.84C42.7969 32.84 43.7769 33.652 43.7769 35.122ZM49.6252 35.136C49.6252 33.638 50.3252 33.19 51.4872 33.19H52.0052V31.132C50.9272 31.132 50.1152 31.65 49.6252 32.448V31.244H47.6652V39H49.6252V35.136ZM56.6574 32.728C57.6654 32.728 58.4774 33.372 58.5054 34.394H54.8234C54.9774 33.33 55.7194 32.728 56.6574 32.728ZM60.3394 36.564H58.2254C57.9734 37.082 57.5114 37.502 56.6714 37.502C55.6914 37.502 54.9074 36.858 54.8094 35.71H60.4794C60.5214 35.458 60.5354 35.206 60.5354 34.954C60.5354 32.644 58.9534 31.118 56.7134 31.118C54.4174 31.118 52.8214 32.672 52.8214 35.122C52.8214 37.558 54.4594 39.126 56.7134 39.126C58.6314 39.126 59.9194 37.992 60.3394 36.564Z" fill="#F6F9FE"/>
<path d="M7.99458 100H10.0666L6.55258 90.214H4.27058L0.756578 100H2.81458L3.45858 98.138H7.35058L7.99458 100ZM6.81858 96.57H3.99058L5.40458 92.482L6.81858 96.57ZM13.3401 93.364V92.244H11.3801V103.696H13.3401V98.894C13.8161 99.524 14.6841 100.126 15.9021 100.126C17.8901 100.126 19.4441 98.516 19.4441 96.094C19.4441 93.672 17.8901 92.118 15.9021 92.118C14.6981 92.118 13.8021 92.706 13.3401 93.364ZM17.4421 96.094C17.4421 97.564 16.4481 98.404 15.3841 98.404C14.3341 98.404 13.3401 97.592 13.3401 96.122C13.3401 94.652 14.3341 93.84 15.3841 93.84C16.4481 93.84 17.4421 94.624 17.4421 96.094ZM22.8283 93.364V92.244H20.8683V103.696H22.8283V98.894C23.3043 99.524 24.1723 100.126 25.3903 100.126C27.3783 100.126 28.9323 98.516 28.9323 96.094C28.9323 93.672 27.3783 92.118 25.3903 92.118C24.1863 92.118 23.2903 92.706 22.8283 93.364ZM26.9303 96.094C26.9303 97.564 25.9363 98.404 24.8723 98.404C23.8223 98.404 22.8283 97.592 22.8283 96.122C22.8283 94.652 23.8223 93.84 24.8723 93.84C25.9363 93.84 26.9303 94.624 26.9303 96.094ZM32.3166 96.136C32.3166 94.638 33.0166 94.19 34.1786 94.19H34.6966V92.132C33.6186 92.132 32.8066 92.65 32.3166 93.448V92.244H30.3566V100H32.3166V96.136ZM43.5068 96.122C43.5068 93.672 41.7568 92.118 39.5168 92.118C37.2768 92.118 35.5268 93.672 35.5268 96.122C35.5268 98.558 37.2208 100.126 39.4608 100.126C41.7148 100.126 43.5068 98.558 43.5068 96.122ZM37.5148 96.122C37.5148 94.568 38.4528 93.826 39.4888 93.826C40.5248 93.826 41.4908 94.568 41.4908 96.122C41.4908 97.662 40.4968 98.418 39.4608 98.418C38.4108 98.418 37.5148 97.662 37.5148 96.122ZM44.1185 92.244L46.9745 100H49.3545L52.2245 92.244H50.1385L48.1785 98.194L46.2185 92.244H44.1185ZM56.6574 93.728C57.6654 93.728 58.4774 94.372 58.5054 95.394H54.8234C54.9774 94.33 55.7194 93.728 56.6574 93.728ZM60.3394 97.564H58.2254C57.9734 98.082 57.5114 98.502 56.6714 98.502C55.6914 98.502 54.9074 97.858 54.8094 96.71H60.4794C60.5214 96.458 60.5354 96.206 60.5354 95.954C60.5354 93.644 58.9534 92.118 56.7134 92.118C54.4174 92.118 52.8214 93.672 52.8214 96.122C52.8214 98.558 54.4594 100.126 56.7134 100.126C58.6314 100.126 59.9194 98.992 60.3394 97.564Z" fill="#7D87AA"/>
<path d="M11.301 152.252C11.301 152.775 11.175 153.265 10.923 153.722C10.6803 154.179 10.293 154.548 9.76098 154.828C9.23832 155.108 8.57565 155.248 7.77298 155.248H6.13498V159H4.17498V149.228H7.77298C8.52898 149.228 9.17298 149.359 9.70498 149.62C10.237 149.881 10.6337 150.241 10.895 150.698C11.1657 151.155 11.301 151.673 11.301 152.252ZM7.68898 153.666C8.23032 153.666 8.63165 153.545 8.89298 153.302C9.15432 153.05 9.28498 152.7 9.28498 152.252C9.28498 151.3 8.75298 150.824 7.68898 150.824H6.13498V153.666H7.68898ZM14.6526 152.448C14.9046 152.037 15.2312 151.715 15.6326 151.482C16.0432 151.249 16.5099 151.132 17.0326 151.132V153.19H16.5146C15.8986 153.19 15.4319 153.335 15.1146 153.624C14.8066 153.913 14.6526 154.417 14.6526 155.136V159H12.6926V151.244H14.6526V152.448ZM21.7967 159.126C21.0501 159.126 20.3781 158.963 19.7807 158.636C19.1834 158.3 18.7121 157.829 18.3667 157.222C18.0307 156.615 17.8627 155.915 17.8627 155.122C17.8627 154.329 18.0354 153.629 18.3807 153.022C18.7354 152.415 19.2161 151.949 19.8227 151.622C20.4294 151.286 21.1061 151.118 21.8527 151.118C22.5994 151.118 23.2761 151.286 23.8827 151.622C24.4894 151.949 24.9654 152.415 25.3107 153.022C25.6654 153.629 25.8427 154.329 25.8427 155.122C25.8427 155.915 25.6607 156.615 25.2967 157.222C24.9421 157.829 24.4567 158.3 23.8407 158.636C23.2341 158.963 22.5527 159.126 21.7967 159.126ZM21.7967 157.418C22.1514 157.418 22.4827 157.334 22.7907 157.166C23.1081 156.989 23.3601 156.727 23.5467 156.382C23.7334 156.037 23.8267 155.617 23.8267 155.122C23.8267 154.385 23.6307 153.82 23.2387 153.428C22.8561 153.027 22.3847 152.826 21.8247 152.826C21.2647 152.826 20.7934 153.027 20.4107 153.428C20.0374 153.82 19.8507 154.385 19.8507 155.122C19.8507 155.859 20.0327 156.429 20.3967 156.83C20.7701 157.222 21.2367 157.418 21.7967 157.418ZM29.2405 152.364C29.4925 152.009 29.8378 151.715 30.2765 151.482C30.7245 151.239 31.2331 151.118 31.8025 151.118C32.4651 151.118 33.0625 151.281 33.5945 151.608C34.1358 151.935 34.5605 152.401 34.8685 153.008C35.1858 153.605 35.3445 154.301 35.3445 155.094C35.3445 155.887 35.1858 156.592 34.8685 157.208C34.5605 157.815 34.1358 158.286 33.5945 158.622C33.0625 158.958 32.4651 159.126 31.8025 159.126C31.2331 159.126 30.7291 159.009 30.2905 158.776C29.8611 158.543 29.5111 158.249 29.2405 157.894V162.696H27.2805V151.244H29.2405V152.364ZM33.3425 155.094C33.3425 154.627 33.2445 154.226 33.0485 153.89C32.8618 153.545 32.6098 153.283 32.2925 153.106C31.9845 152.929 31.6485 152.84 31.2845 152.84C30.9298 152.84 30.5938 152.933 30.2765 153.12C29.9685 153.297 29.7165 153.559 29.5205 153.904C29.3338 154.249 29.2405 154.655 29.2405 155.122C29.2405 155.589 29.3338 155.995 29.5205 156.34C29.7165 156.685 29.9685 156.951 30.2765 157.138C30.5938 157.315 30.9298 157.404 31.2845 157.404C31.6485 157.404 31.9845 157.311 32.2925 157.124C32.6098 156.937 32.8618 156.671 33.0485 156.326C33.2445 155.981 33.3425 155.57 33.3425 155.094ZM40.2127 159.126C39.4661 159.126 38.7941 158.963 38.1967 158.636C37.5994 158.3 37.1281 157.829 36.7827 157.222C36.4467 156.615 36.2787 155.915 36.2787 155.122C36.2787 154.329 36.4514 153.629 36.7967 153.022C37.1514 152.415 37.6321 151.949 38.2387 151.622C38.8454 151.286 39.5221 151.118 40.2687 151.118C41.0154 151.118 41.6921 151.286 42.2987 151.622C42.9054 151.949 43.3814 152.415 43.7267 153.022C44.0814 153.629 44.2587 154.329 44.2587 155.122C44.2587 155.915 44.0767 156.615 43.7127 157.222C43.3581 157.829 42.8727 158.3 42.2567 158.636C41.6501 158.963 40.9687 159.126 40.2127 159.126ZM40.2127 157.418C40.5674 157.418 40.8987 157.334 41.2067 157.166C41.5241 156.989 41.7761 156.727 41.9627 156.382C42.1494 156.037 42.2427 155.617 42.2427 155.122C42.2427 154.385 42.0467 153.82 41.6547 153.428C41.2721 153.027 40.8007 152.826 40.2407 152.826C39.6807 152.826 39.2094 153.027 38.8267 153.428C38.4534 153.82 38.2667 154.385 38.2667 155.122C38.2667 155.859 38.4487 156.429 38.8127 156.83C39.1861 157.222 39.6527 157.418 40.2127 157.418ZM48.6645 159.126C48.0298 159.126 47.4605 159.014 46.9565 158.79C46.4525 158.557 46.0511 158.244 45.7525 157.852C45.4631 157.46 45.3045 157.026 45.2765 156.55H47.2505C47.2878 156.849 47.4325 157.096 47.6845 157.292C47.9458 157.488 48.2678 157.586 48.6505 157.586C49.0238 157.586 49.3131 157.511 49.5185 157.362C49.7331 157.213 49.8405 157.021 49.8405 156.788C49.8405 156.536 49.7098 156.349 49.4485 156.228C49.1965 156.097 48.7905 155.957 48.2305 155.808C47.6518 155.668 47.1758 155.523 46.8025 155.374C46.4385 155.225 46.1211 154.996 45.8505 154.688C45.5891 154.38 45.4585 153.965 45.4585 153.442C45.4585 153.013 45.5798 152.621 45.8225 152.266C46.0745 151.911 46.4291 151.631 46.8865 151.426C47.3531 151.221 47.8991 151.118 48.5245 151.118C49.4485 151.118 50.1858 151.351 50.7365 151.818C51.2871 152.275 51.5905 152.896 51.6465 153.68H49.7705C49.7425 153.372 49.6118 153.129 49.3785 152.952C49.1545 152.765 48.8511 152.672 48.4685 152.672C48.1138 152.672 47.8385 152.737 47.6425 152.868C47.4558 152.999 47.3625 153.181 47.3625 153.414C47.3625 153.675 47.4931 153.876 47.7545 154.016C48.0158 154.147 48.4218 154.282 48.9725 154.422C49.5325 154.562 49.9945 154.707 50.3585 154.856C50.7225 155.005 51.0351 155.239 51.2965 155.556C51.5671 155.864 51.7071 156.275 51.7165 156.788C51.7165 157.236 51.5905 157.637 51.3385 157.992C51.0958 158.347 50.7411 158.627 50.2745 158.832C49.8171 159.028 49.2805 159.126 48.6645 159.126ZM60.5354 154.954C60.5354 155.234 60.5167 155.486 60.4794 155.71H54.8094C54.856 156.27 55.052 156.709 55.3974 157.026C55.7427 157.343 56.1674 157.502 56.6714 157.502C57.3994 157.502 57.9174 157.189 58.2254 156.564H60.3394C60.1154 157.311 59.686 157.927 59.0514 158.412C58.4167 158.888 57.6374 159.126 56.7134 159.126C55.9667 159.126 55.2947 158.963 54.6974 158.636C54.1094 158.3 53.6474 157.829 53.3114 157.222C52.9847 156.615 52.8214 155.915 52.8214 155.122C52.8214 154.319 52.9847 153.615 53.3114 153.008C53.638 152.401 54.0954 151.935 54.6834 151.608C55.2714 151.281 55.948 151.118 56.7134 151.118C57.4507 151.118 58.1087 151.277 58.6874 151.594C59.2754 151.911 59.728 152.364 60.0454 152.952C60.372 153.531 60.5354 154.198 60.5354 154.954ZM58.5054 154.394C58.496 153.89 58.314 153.489 57.9594 153.19C57.6047 152.882 57.1707 152.728 56.6574 152.728C56.172 152.728 55.7614 152.877 55.4254 153.176C55.0987 153.465 54.898 153.871 54.8234 154.394H58.5054Z" fill="#7D87AA"/>
<circle cx="151" cy="33" r="5" fill="#52A6F8"/>
<circle cx="151" cy="94" r="4" fill="#20273E" stroke="#7D87AA" stroke-width="2"/>
<circle cx="151" cy="155" r="4" fill="#20273E" stroke="#7D87AA" stroke-width="2"/>
<circle cx="98" cy="33" r="18" fill="#52A6F8"/>
<path d="M95.0832 32.5833C96.9166 32.5833 98.4166 31.0833 98.4166 29.25C98.4166 27.4167 96.9166 25.9167 95.0832 25.9167C93.2499 25.9167 91.7499 27.4167 91.7499 29.25C91.7499 31.0833 93.2499 32.5833 95.0832 32.5833ZM98.8332 31.8333C100.25 33 102.333 32.75 103.5 31.3333C104.667 29.9167 104.417 27.8333 103 26.6667C102.417 26.1667 101.667 25.9167 100.917 25.9167C100.167 25.9167 99.4166 26.1667 98.8332 26.6667C100.25 27.8333 100.5 29.8333 99.3332 31.3333C99.2499 31.5 98.9999 31.6667 98.8332 31.8333ZM107.083 39.1667C106.583 36.0833 104 33.8333 100.917 33.8333C100.167 33.8333 99.4999 33.9167 98.8332 34.1667C101 34.9167 102.583 36.8333 102.917 39.0833C103 39.5 102.667 40 102.167 40H102.083H106.25C106.75 40 107.083 39.6667 107.083 39.1667C107.083 39.25 107.083 39.1667 107.083 39.1667ZM95.0832 33.8333C91.9999 33.8333 89.3332 36.0833 88.9166 39.1667C88.8332 39.5833 89.1666 40.0833 89.6666 40.0833H89.7499H100.417C100.917 40.0833 101.25 39.75 101.25 39.25V39.1667C100.833 36.0833 98.1666 33.8333 95.0832 33.8333Z" fill="#F6F9FE"/>
<circle cx="98" cy="94" r="18" fill="#52A6F8" fill-opacity="0.1"/>
<path d="M102.167 87.3333H101.167C100.833 86.3333 99.9168 85.6667 98.8335 85.6667H97.1668C96.0835 85.6667 95.1668 86.3333 94.8335 87.3333H93.8335C92.4168 87.3333 91.3335 88.4167 91.3335 89.8333V99.8333C91.3335 101.25 92.4168 102.333 93.8335 102.333H102.167C103.583 102.333 104.667 101.25 104.667 99.8333V89.8333C104.667 88.4167 103.583 87.3333 102.167 87.3333ZM96.3335 88.1667C96.3335 87.6667 96.6668 87.3333 97.1668 87.3333H98.8335C99.3335 87.3333 99.6668 87.6667 99.6668 88.1667V89H96.3335V88.1667ZM98.8335 97.3333H95.5002C95.0002 97.3333 94.6668 97 94.6668 96.5C94.6668 96 95.0002 95.6667 95.5002 95.6667H98.8335C99.3335 95.6667 99.6668 96 99.6668 96.5C99.6668 97 99.3335 97.3333 98.8335 97.3333ZM100.5 94H95.5002C95.0002 94 94.6668 93.6667 94.6668 93.1667C94.6668 92.6667 95.0002 92.3333 95.5002 92.3333H100.5C101 92.3333 101.333 92.6667 101.333 93.1667C101.333 93.6667 101 94 100.5 94Z" fill="#52A6F8"/>
<circle cx="98" cy="155" r="18" fill="#52A6F8" fill-opacity="0.1"/>
<path d="M104.417 151.583C104.75 151.25 104.75 150.75 104.417 150.417L100.917 146.917C100.583 146.583 100.083 146.583 99.7498 146.917L97.4165 149.25L102.167 154L104.417 151.583ZM92.1665 160H95.6665C95.9165 160 96.0832 159.917 96.2498 159.75L100.833 155.167L96.1665 150.417L91.5832 155C91.4165 155.167 91.3332 155.417 91.3332 155.667V159.167C91.3332 159.667 91.6665 160 92.1665 160ZM105.5 161.667H90.4998C89.9998 161.667 89.6665 162 89.6665 162.5C89.6665 163 89.9998 163.333 90.4998 163.333H105.5C106 163.333 106.333 163 106.333 162.5C106.333 162 106 161.667 105.5 161.667Z" fill="#52A6F8"/>
</svg>
