<svg width="178" height="336" viewBox="0 0 178 336" fill="none" xmlns="http://www.w3.org/2000/svg">
<line x1="173.5" y1="0.5" x2="173.5" y2="335.5" stroke="#636D8F" stroke-opacity="0.2" stroke-linecap="round"/>
<path d="M22.49 33.1C22.49 32.1387 22.7047 31.28 23.134 30.524C23.5727 29.7587 24.1653 29.166 24.912 28.746C25.668 28.3167 26.5127 28.102 27.446 28.102C28.538 28.102 29.4947 28.382 30.316 28.942C31.1373 29.502 31.7113 30.2767 32.038 31.266H29.784C29.56 30.7993 29.2427 30.4493 28.832 30.216C28.4307 29.9827 27.964 29.866 27.432 29.866C26.8627 29.866 26.354 30.0013 25.906 30.272C25.4673 30.5333 25.122 30.9067 24.87 31.392C24.6273 31.8773 24.506 32.4467 24.506 33.1C24.506 33.744 24.6273 34.3133 24.87 34.808C25.122 35.2933 25.4673 35.6713 25.906 35.942C26.354 36.2033 26.8627 36.334 27.432 36.334C27.964 36.334 28.4307 36.2173 28.832 35.984C29.2427 35.7413 29.56 35.3867 29.784 34.92H32.038C31.7113 35.9187 31.1373 36.698 30.316 37.258C29.504 37.8087 28.5473 38.084 27.446 38.084C26.5127 38.084 25.668 37.874 24.912 37.454C24.1653 37.0247 23.5727 36.432 23.134 35.676C22.7047 34.92 22.49 34.0613 22.49 33.1ZM37.1561 38.126C36.4094 38.126 35.7374 37.9627 35.1401 37.636C34.5428 37.3 34.0714 36.8287 33.7261 36.222C33.3901 35.6153 33.2221 34.9153 33.2221 34.122C33.2221 33.3287 33.3948 32.6287 33.7401 32.022C34.0948 31.4153 34.5754 30.9487 35.1821 30.622C35.7888 30.286 36.4654 30.118 37.2121 30.118C37.9588 30.118 38.6354 30.286 39.2421 30.622C39.8488 30.9487 40.3248 31.4153 40.6701 32.022C41.0248 32.6287 41.2021 33.3287 41.2021 34.122C41.2021 34.9153 41.0201 35.6153 40.6561 36.222C40.3014 36.8287 39.8161 37.3 39.2001 37.636C38.5934 37.9627 37.9121 38.126 37.1561 38.126ZM37.1561 36.418C37.5108 36.418 37.8421 36.334 38.1501 36.166C38.4674 35.9887 38.7194 35.7273 38.9061 35.382C39.0928 35.0367 39.1861 34.6167 39.1861 34.122C39.1861 33.3847 38.9901 32.82 38.5981 32.428C38.2154 32.0267 37.7441 31.826 37.1841 31.826C36.6241 31.826 36.1528 32.0267 35.7701 32.428C35.3968 32.82 35.2101 33.3847 35.2101 34.122C35.2101 34.8593 35.3921 35.4287 35.7561 35.83C36.1294 36.222 36.5961 36.418 37.1561 36.418ZM46.9378 30.132C47.8618 30.132 48.6085 30.426 49.1778 31.014C49.7472 31.5927 50.0318 32.4047 50.0318 33.45V38H48.0718V33.716C48.0718 33.1 47.9178 32.6287 47.6098 32.302C47.3018 31.966 46.8818 31.798 46.3498 31.798C45.8085 31.798 45.3792 31.966 45.0618 32.302C44.7538 32.6287 44.5998 33.1 44.5998 33.716V38H42.6398V30.244H44.5998V31.21C44.8612 30.874 45.1925 30.6127 45.5938 30.426C46.0045 30.23 46.4525 30.132 46.9378 30.132ZM56.1937 30.132C57.1177 30.132 57.8644 30.426 58.4337 31.014C59.003 31.5927 59.2877 32.4047 59.2877 33.45V38H57.3277V33.716C57.3277 33.1 57.1737 32.6287 56.8657 32.302C56.5577 31.966 56.1377 31.798 55.6057 31.798C55.0644 31.798 54.635 31.966 54.3177 32.302C54.0097 32.6287 53.8557 33.1 53.8557 33.716V38H51.8957V30.244H53.8557V31.21C54.117 30.874 54.4484 30.6127 54.8497 30.426C55.2604 30.23 55.7084 30.132 56.1937 30.132ZM68.3615 33.954C68.3615 34.234 68.3429 34.486 68.3055 34.71H62.6355C62.6822 35.27 62.8782 35.7087 63.2235 36.026C63.5689 36.3433 63.9935 36.502 64.4975 36.502C65.2255 36.502 65.7435 36.1893 66.0515 35.564H68.1655C67.9415 36.3107 67.5122 36.9267 66.8775 37.412C66.2429 37.888 65.4635 38.126 64.5395 38.126C63.7929 38.126 63.1209 37.9627 62.5235 37.636C61.9355 37.3 61.4735 36.8287 61.1375 36.222C60.8109 35.6153 60.6475 34.9153 60.6475 34.122C60.6475 33.3193 60.8109 32.6147 61.1375 32.008C61.4642 31.4013 61.9215 30.9347 62.5095 30.608C63.0975 30.2813 63.7742 30.118 64.5395 30.118C65.2769 30.118 65.9349 30.2767 66.5135 30.594C67.1015 30.9113 67.5542 31.364 67.8715 31.952C68.1982 32.5307 68.3615 33.198 68.3615 33.954ZM66.3315 33.394C66.3222 32.89 66.1402 32.4887 65.7855 32.19C65.4309 31.882 64.9969 31.728 64.4835 31.728C63.9982 31.728 63.5875 31.8773 63.2515 32.176C62.9249 32.4653 62.7242 32.8713 62.6495 33.394H66.3315ZM69.2882 34.122C69.2882 33.3193 69.4515 32.6193 69.7782 32.022C70.1048 31.4153 70.5575 30.9487 71.1362 30.622C71.7148 30.286 72.3775 30.118 73.1242 30.118C74.0855 30.118 74.8788 30.3607 75.5042 30.846C76.1388 31.322 76.5635 31.994 76.7782 32.862H74.6642C74.5522 32.526 74.3608 32.2647 74.0902 32.078C73.8288 31.882 73.5022 31.784 73.1102 31.784C72.5502 31.784 72.1068 31.9893 71.7802 32.4C71.4535 32.8013 71.2902 33.3753 71.2902 34.122C71.2902 34.8593 71.4535 35.4333 71.7802 35.844C72.1068 36.2453 72.5502 36.446 73.1102 36.446C73.9035 36.446 74.4215 36.0913 74.6642 35.382H76.7782C76.5635 36.222 76.1388 36.8893 75.5042 37.384C74.8695 37.8787 74.0762 38.126 73.1242 38.126C72.3775 38.126 71.7148 37.9627 71.1362 37.636C70.5575 37.3 70.1048 36.8333 69.7782 36.236C69.4515 35.6293 69.2882 34.9247 69.2882 34.122ZM80.496 31.854V35.606C80.496 35.8673 80.5567 36.0587 80.678 36.18C80.8087 36.292 81.0234 36.348 81.322 36.348H82.232V38H81C79.348 38 78.522 37.1973 78.522 35.592V31.854H77.598V30.244H78.522V28.326H80.496V30.244H82.232V31.854H80.496Z" fill="#7D87AA"/>
<path d="M2.926 94.666V91.824H4.48C5.586 91.824 6.076 92.356 6.076 93.252C6.076 94.12 5.586 94.666 4.48 94.666H2.926ZM8.092 93.252C8.092 91.558 6.916 90.228 4.564 90.228H0.966V100H2.926V96.248H4.564C7.084 96.248 8.092 94.736 8.092 93.252ZM12.8156 93.728C13.8236 93.728 14.6356 94.372 14.6636 95.394H10.9816C11.1356 94.33 11.8776 93.728 12.8156 93.728ZM16.4976 97.564H14.3836C14.1316 98.082 13.6696 98.502 12.8296 98.502C11.8496 98.502 11.0656 97.858 10.9676 96.71H16.6376C16.6796 96.458 16.6936 96.206 16.6936 95.954C16.6936 93.644 15.1116 92.118 12.8716 92.118C10.5756 92.118 8.97958 93.672 8.97958 96.122C8.97958 98.558 10.6176 100.126 12.8716 100.126C14.7896 100.126 16.0776 98.992 16.4976 97.564ZM20.0842 96.136C20.0842 94.638 20.7842 94.19 21.9462 94.19H22.4642V92.132C21.3862 92.132 20.5742 92.65 20.0842 93.448V92.244H18.1242V100H20.0842V96.136ZM29.8044 97.788C29.7484 94.946 25.4504 95.828 25.4504 94.414C25.4504 93.966 25.8284 93.672 26.5564 93.672C27.3264 93.672 27.8024 94.078 27.8584 94.68H29.7344C29.6224 93.14 28.4884 92.118 26.6124 92.118C24.6944 92.118 23.5464 93.154 23.5464 94.442C23.5464 97.284 27.9284 96.402 27.9284 97.788C27.9284 98.236 27.5084 98.586 26.7384 98.586C25.9544 98.586 25.4084 98.138 25.3384 97.55H23.3644C23.4484 98.992 24.8064 100.126 26.7524 100.126C28.6424 100.126 29.8044 99.118 29.8044 97.788ZM38.9033 96.122C38.9033 93.672 37.1533 92.118 34.9133 92.118C32.6733 92.118 30.9233 93.672 30.9233 96.122C30.9233 98.558 32.6173 100.126 34.8573 100.126C37.1113 100.126 38.9033 98.558 38.9033 96.122ZM32.9113 96.122C32.9113 94.568 33.8493 93.826 34.8853 93.826C35.9213 93.826 36.8873 94.568 36.8873 96.122C36.8873 97.662 35.8933 98.418 34.8573 98.418C33.8073 98.418 32.9113 97.662 32.9113 96.122ZM45.773 100H47.733V95.45C47.733 93.308 46.445 92.132 44.639 92.132C43.645 92.132 42.805 92.552 42.301 93.21V92.244H40.341V100H42.301V95.716C42.301 94.47 42.987 93.798 44.051 93.798C45.087 93.798 45.773 94.47 45.773 95.716V100ZM49.0929 96.094C49.0929 98.516 50.6609 100.126 52.6209 100.126C53.8529 100.126 54.7349 99.538 55.1969 98.866V100H57.1709V92.244H55.1969V93.35C54.7349 92.706 53.8809 92.118 52.6349 92.118C50.6609 92.118 49.0929 93.672 49.0929 96.094ZM55.1969 96.122C55.1969 97.592 54.2169 98.404 53.1389 98.404C52.0889 98.404 51.0949 97.564 51.0949 96.094C51.0949 94.624 52.0889 93.84 53.1389 93.84C54.2169 93.84 55.1969 94.652 55.1969 96.122ZM59.0851 100H61.0451V89.64H59.0851V100ZM62.9816 100H64.9416V92.244H62.9816V100ZM63.9756 91.32C64.6616 91.32 65.1796 90.816 65.1796 90.172C65.1796 89.528 64.6616 89.024 63.9756 89.024C63.2756 89.024 62.7716 89.528 62.7716 90.172C62.7716 90.816 63.2756 91.32 63.9756 91.32ZM72.8981 97.788C72.8421 94.946 68.5441 95.828 68.5441 94.414C68.5441 93.966 68.9221 93.672 69.6501 93.672C70.4201 93.672 70.8961 94.078 70.9521 94.68H72.8281C72.7161 93.14 71.5821 92.118 69.7061 92.118C67.7881 92.118 66.6401 93.154 66.6401 94.442C66.6401 97.284 71.0221 96.402 71.0221 97.788C71.0221 98.236 70.6021 98.586 69.8321 98.586C69.0481 98.586 68.5021 98.138 68.4321 97.55H66.4581C66.5421 98.992 67.9001 100.126 69.8461 100.126C71.7361 100.126 72.8981 99.118 72.8981 97.788ZM77.839 93.728C78.847 93.728 79.659 94.372 79.687 95.394H76.005C76.159 94.33 76.901 93.728 77.839 93.728ZM81.521 97.564H79.407C79.155 98.082 78.693 98.502 77.853 98.502C76.873 98.502 76.089 97.858 75.991 96.71H81.661C81.703 96.458 81.717 96.206 81.717 95.954C81.717 93.644 80.135 92.118 77.895 92.118C75.599 92.118 74.003 93.672 74.003 96.122C74.003 98.558 75.641 100.126 77.895 100.126C79.813 100.126 81.101 98.992 81.521 97.564Z" fill="#7D87AA"/>
<path d="M27.2997 160.228V170H25.3397V163.644L22.7217 170H21.2377L18.6057 163.644V170H16.6457V160.228H18.8717L21.9797 167.494L25.0877 160.228H27.2997ZM36.4475 165.954C36.4475 166.234 36.4288 166.486 36.3915 166.71H30.7215C30.7682 167.27 30.9642 167.709 31.3095 168.026C31.6548 168.343 32.0795 168.502 32.5835 168.502C33.3115 168.502 33.8295 168.189 34.1375 167.564H36.2515C36.0275 168.311 35.5982 168.927 34.9635 169.412C34.3288 169.888 33.5495 170.126 32.6255 170.126C31.8788 170.126 31.2068 169.963 30.6095 169.636C30.0215 169.3 29.5595 168.829 29.2235 168.222C28.8968 167.615 28.7335 166.915 28.7335 166.122C28.7335 165.319 28.8968 164.615 29.2235 164.008C29.5502 163.401 30.0075 162.935 30.5955 162.608C31.1835 162.281 31.8602 162.118 32.6255 162.118C33.3628 162.118 34.0208 162.277 34.5995 162.594C35.1875 162.911 35.6402 163.364 35.9575 163.952C36.2842 164.531 36.4475 165.198 36.4475 165.954ZM34.4175 165.394C34.4082 164.89 34.2262 164.489 33.8715 164.19C33.5168 163.882 33.0828 163.728 32.5695 163.728C32.0842 163.728 31.6735 163.877 31.3375 164.176C31.0108 164.465 30.8102 164.871 30.7355 165.394H34.4175ZM47.5101 162.132C48.4621 162.132 49.2274 162.426 49.8061 163.014C50.3941 163.593 50.6881 164.405 50.6881 165.45V170H48.7281V165.716C48.7281 165.109 48.5741 164.647 48.2661 164.33C47.9581 164.003 47.5381 163.84 47.0061 163.84C46.4741 163.84 46.0494 164.003 45.7321 164.33C45.4241 164.647 45.2701 165.109 45.2701 165.716V170H43.3101V165.716C43.3101 165.109 43.1561 164.647 42.8481 164.33C42.5401 164.003 42.1201 163.84 41.5881 163.84C41.0468 163.84 40.6174 164.003 40.3001 164.33C39.9921 164.647 39.8381 165.109 39.8381 165.716V170H37.8781V162.244H39.8381V163.182C40.0901 162.855 40.4121 162.599 40.8041 162.412C41.2054 162.225 41.6441 162.132 42.1201 162.132C42.7268 162.132 43.2681 162.263 43.7441 162.524C44.2201 162.776 44.5888 163.14 44.8501 163.616C45.1021 163.168 45.4661 162.809 45.9421 162.538C46.4274 162.267 46.9501 162.132 47.5101 162.132ZM54.508 163.378C54.76 163.005 55.1054 162.701 55.544 162.468C55.992 162.235 56.5007 162.118 57.07 162.118C57.7327 162.118 58.33 162.281 58.862 162.608C59.4034 162.935 59.828 163.401 60.136 164.008C60.4534 164.605 60.612 165.301 60.612 166.094C60.612 166.887 60.4534 167.592 60.136 168.208C59.828 168.815 59.4034 169.286 58.862 169.622C58.33 169.958 57.7327 170.126 57.07 170.126C56.4914 170.126 55.9827 170.014 55.544 169.79C55.1147 169.557 54.7694 169.258 54.508 168.894V170H52.548V159.64H54.508V163.378ZM58.61 166.094C58.61 165.627 58.512 165.226 58.316 164.89C58.1294 164.545 57.8774 164.283 57.56 164.106C57.252 163.929 56.916 163.84 56.552 163.84C56.1974 163.84 55.8614 163.933 55.544 164.12C55.236 164.297 54.984 164.559 54.788 164.904C54.6014 165.249 54.508 165.655 54.508 166.122C54.508 166.589 54.6014 166.995 54.788 167.34C54.984 167.685 55.236 167.951 55.544 168.138C55.8614 168.315 56.1974 168.404 56.552 168.404C56.916 168.404 57.252 168.311 57.56 168.124C57.8774 167.937 58.1294 167.671 58.316 167.326C58.512 166.981 58.61 166.57 58.61 166.094ZM69.2463 165.954C69.2463 166.234 69.2276 166.486 69.1903 166.71H63.5203C63.567 167.27 63.763 167.709 64.1083 168.026C64.4536 168.343 64.8783 168.502 65.3823 168.502C66.1103 168.502 66.6283 168.189 66.9363 167.564H69.0503C68.8263 168.311 68.397 168.927 67.7623 169.412C67.1276 169.888 66.3483 170.126 65.4243 170.126C64.6776 170.126 64.0056 169.963 63.4083 169.636C62.8203 169.3 62.3583 168.829 62.0223 168.222C61.6956 167.615 61.5323 166.915 61.5323 166.122C61.5323 165.319 61.6956 164.615 62.0223 164.008C62.349 163.401 62.8063 162.935 63.3943 162.608C63.9823 162.281 64.659 162.118 65.4243 162.118C66.1616 162.118 66.8196 162.277 67.3983 162.594C67.9863 162.911 68.439 163.364 68.7563 163.952C69.083 164.531 69.2463 165.198 69.2463 165.954ZM67.2163 165.394C67.207 164.89 67.025 164.489 66.6703 164.19C66.3156 163.882 65.8816 163.728 65.3683 163.728C64.883 163.728 64.4723 163.877 64.1363 164.176C63.8096 164.465 63.609 164.871 63.5343 165.394H67.2163ZM72.6369 163.448C72.8889 163.037 73.2156 162.715 73.6169 162.482C74.0276 162.249 74.4943 162.132 75.0169 162.132V164.19H74.4989C73.8829 164.19 73.4163 164.335 73.0989 164.624C72.7909 164.913 72.6369 165.417 72.6369 166.136V170H70.6769V162.244H72.6369V163.448ZM79.3051 170.126C78.6704 170.126 78.1011 170.014 77.5971 169.79C77.0931 169.557 76.6918 169.244 76.3931 168.852C76.1038 168.46 75.9451 168.026 75.9171 167.55H77.8911C77.9284 167.849 78.0731 168.096 78.3251 168.292C78.5864 168.488 78.9084 168.586 79.2911 168.586C79.6644 168.586 79.9538 168.511 80.1591 168.362C80.3738 168.213 80.4811 168.021 80.4811 167.788C80.4811 167.536 80.3504 167.349 80.0891 167.228C79.8371 167.097 79.4311 166.957 78.8711 166.808C78.2924 166.668 77.8164 166.523 77.4431 166.374C77.0791 166.225 76.7618 165.996 76.4911 165.688C76.2298 165.38 76.0991 164.965 76.0991 164.442C76.0991 164.013 76.2204 163.621 76.4631 163.266C76.7151 162.911 77.0698 162.631 77.5271 162.426C77.9938 162.221 78.5398 162.118 79.1651 162.118C80.0891 162.118 80.8264 162.351 81.3771 162.818C81.9278 163.275 82.2311 163.896 82.2871 164.68H80.4111C80.3831 164.372 80.2524 164.129 80.0191 163.952C79.7951 163.765 79.4918 163.672 79.1091 163.672C78.7544 163.672 78.4791 163.737 78.2831 163.868C78.0964 163.999 78.0031 164.181 78.0031 164.414C78.0031 164.675 78.1338 164.876 78.3951 165.016C78.6564 165.147 79.0624 165.282 79.6131 165.422C80.1731 165.562 80.6351 165.707 80.9991 165.856C81.3631 166.005 81.6758 166.239 81.9371 166.556C82.2078 166.864 82.3478 167.275 82.3571 167.788C82.3571 168.236 82.2311 168.637 81.9791 168.992C81.7364 169.347 81.3818 169.627 80.9151 169.832C80.4578 170.028 79.9211 170.126 79.3051 170.126Z" fill="#7D87AA"/>
<path d="M16.9775 238.138H13.0855L12.4415 240H10.3835L13.8975 230.214H16.1795L19.6935 240H17.6215L16.9775 238.138ZM16.4455 236.57L15.0315 232.482L13.6175 236.57H16.4455ZM22.967 233.364C23.219 233.009 23.5643 232.715 24.003 232.482C24.451 232.239 24.9597 232.118 25.529 232.118C26.1917 232.118 26.789 232.281 27.321 232.608C27.8623 232.935 28.287 233.401 28.595 234.008C28.9123 234.605 29.071 235.301 29.071 236.094C29.071 236.887 28.9123 237.592 28.595 238.208C28.287 238.815 27.8623 239.286 27.321 239.622C26.789 239.958 26.1917 240.126 25.529 240.126C24.9597 240.126 24.4557 240.009 24.017 239.776C23.5877 239.543 23.2377 239.249 22.967 238.894V243.696H21.007V232.244H22.967V233.364ZM27.069 236.094C27.069 235.627 26.971 235.226 26.775 234.89C26.5883 234.545 26.3363 234.283 26.019 234.106C25.711 233.929 25.375 233.84 25.011 233.84C24.6563 233.84 24.3203 233.933 24.003 234.12C23.695 234.297 23.443 234.559 23.247 234.904C23.0603 235.249 22.967 235.655 22.967 236.122C22.967 236.589 23.0603 236.995 23.247 237.34C23.443 237.685 23.695 237.951 24.003 238.138C24.3203 238.315 24.6563 238.404 25.011 238.404C25.375 238.404 25.711 238.311 26.019 238.124C26.3363 237.937 26.5883 237.671 26.775 237.326C26.971 236.981 27.069 236.57 27.069 236.094ZM32.4553 233.364C32.7073 233.009 33.0526 232.715 33.4913 232.482C33.9393 232.239 34.448 232.118 35.0173 232.118C35.68 232.118 36.2773 232.281 36.8093 232.608C37.3506 232.935 37.7753 233.401 38.0833 234.008C38.4006 234.605 38.5593 235.301 38.5593 236.094C38.5593 236.887 38.4006 237.592 38.0833 238.208C37.7753 238.815 37.3506 239.286 36.8093 239.622C36.2773 239.958 35.68 240.126 35.0173 240.126C34.448 240.126 33.944 240.009 33.5053 239.776C33.076 239.543 32.726 239.249 32.4553 238.894V243.696H30.4953V232.244H32.4553V233.364ZM36.5573 236.094C36.5573 235.627 36.4593 235.226 36.2633 234.89C36.0766 234.545 35.8246 234.283 35.5073 234.106C35.1993 233.929 34.8633 233.84 34.4993 233.84C34.1446 233.84 33.8086 233.933 33.4913 234.12C33.1833 234.297 32.9313 234.559 32.7353 234.904C32.5486 235.249 32.4553 235.655 32.4553 236.122C32.4553 236.589 32.5486 236.995 32.7353 237.34C32.9313 237.685 33.1833 237.951 33.4913 238.138C33.8086 238.315 34.1446 238.404 34.4993 238.404C34.8633 238.404 35.1993 238.311 35.5073 238.124C35.8246 237.937 36.0766 237.671 36.2633 237.326C36.4593 236.981 36.5573 236.57 36.5573 236.094ZM41.9436 233.448C42.1956 233.037 42.5222 232.715 42.9236 232.482C43.3342 232.249 43.8009 232.132 44.3236 232.132V234.19H43.8056C43.1896 234.19 42.7229 234.335 42.4056 234.624C42.0976 234.913 41.9436 235.417 41.9436 236.136V240H39.9836V232.244H41.9436V233.448ZM49.0877 240.126C48.3411 240.126 47.6691 239.963 47.0717 239.636C46.4744 239.3 46.0031 238.829 45.6577 238.222C45.3217 237.615 45.1537 236.915 45.1537 236.122C45.1537 235.329 45.3264 234.629 45.6717 234.022C46.0264 233.415 46.5071 232.949 47.1137 232.622C47.7204 232.286 48.3971 232.118 49.1437 232.118C49.8904 232.118 50.5671 232.286 51.1737 232.622C51.7804 232.949 52.2564 233.415 52.6017 234.022C52.9564 234.629 53.1337 235.329 53.1337 236.122C53.1337 236.915 52.9517 237.615 52.5877 238.222C52.2331 238.829 51.7477 239.3 51.1317 239.636C50.5251 239.963 49.8437 240.126 49.0877 240.126ZM49.0877 238.418C49.4424 238.418 49.7737 238.334 50.0817 238.166C50.3991 237.989 50.6511 237.727 50.8377 237.382C51.0244 237.037 51.1177 236.617 51.1177 236.122C51.1177 235.385 50.9217 234.82 50.5297 234.428C50.1471 234.027 49.6757 233.826 49.1157 233.826C48.5557 233.826 48.0844 234.027 47.7017 234.428C47.3284 234.82 47.1417 235.385 47.1417 236.122C47.1417 236.859 47.3237 237.429 47.6877 237.83C48.0611 238.222 48.5277 238.418 49.0877 238.418ZM57.8055 238.194L59.7655 232.244H61.8515L58.9815 240H56.6015L53.7455 232.244H55.8455L57.8055 238.194ZM62.4483 236.094C62.4483 235.31 62.6023 234.615 62.9103 234.008C63.2277 233.401 63.6523 232.935 64.1843 232.608C64.7257 232.281 65.3277 232.118 65.9903 232.118C66.569 232.118 67.073 232.235 67.5023 232.468C67.941 232.701 68.291 232.995 68.5523 233.35V232.244H70.5263V240H68.5523V238.866C68.3003 239.23 67.9503 239.533 67.5023 239.776C67.0637 240.009 66.555 240.126 65.9763 240.126C65.323 240.126 64.7257 239.958 64.1843 239.622C63.6523 239.286 63.2277 238.815 62.9103 238.208C62.6023 237.592 62.4483 236.887 62.4483 236.094ZM68.5523 236.122C68.5523 235.646 68.459 235.24 68.2723 234.904C68.0857 234.559 67.8337 234.297 67.5163 234.12C67.199 233.933 66.8583 233.84 66.4943 233.84C66.1303 233.84 65.7943 233.929 65.4863 234.106C65.1783 234.283 64.9263 234.545 64.7303 234.89C64.5437 235.226 64.4503 235.627 64.4503 236.094C64.4503 236.561 64.5437 236.971 64.7303 237.326C64.9263 237.671 65.1783 237.937 65.4863 238.124C65.8037 238.311 66.1397 238.404 66.4943 238.404C66.8583 238.404 67.199 238.315 67.5163 238.138C67.8337 237.951 68.0857 237.69 68.2723 237.354C68.459 237.009 68.5523 236.598 68.5523 236.122ZM74.4006 229.64V240H72.4406V229.64H74.4006ZM79.3051 240.126C78.6704 240.126 78.1011 240.014 77.5971 239.79C77.0931 239.557 76.6918 239.244 76.3931 238.852C76.1038 238.46 75.9451 238.026 75.9171 237.55H77.8911C77.9284 237.849 78.0731 238.096 78.3251 238.292C78.5864 238.488 78.9084 238.586 79.2911 238.586C79.6644 238.586 79.9538 238.511 80.1591 238.362C80.3738 238.213 80.4811 238.021 80.4811 237.788C80.4811 237.536 80.3504 237.349 80.0891 237.228C79.8371 237.097 79.4311 236.957 78.8711 236.808C78.2924 236.668 77.8164 236.523 77.4431 236.374C77.0791 236.225 76.7618 235.996 76.4911 235.688C76.2298 235.38 76.0991 234.965 76.0991 234.442C76.0991 234.013 76.2204 233.621 76.4631 233.266C76.7151 232.911 77.0698 232.631 77.5271 232.426C77.9938 232.221 78.5398 232.118 79.1651 232.118C80.0891 232.118 80.8264 232.351 81.3771 232.818C81.9278 233.275 82.2311 233.896 82.2871 234.68H80.4111C80.3831 234.372 80.2524 234.129 80.0191 233.952C79.7951 233.765 79.4918 233.672 79.1091 233.672C78.7544 233.672 78.4791 233.737 78.2831 233.868C78.0964 233.999 78.0031 234.181 78.0031 234.414C78.0031 234.675 78.1338 234.876 78.3951 235.016C78.6564 235.147 79.0624 235.282 79.6131 235.422C80.1731 235.562 80.6351 235.707 80.9991 235.856C81.3631 236.005 81.6758 236.239 81.9371 236.556C82.2078 236.864 82.3478 237.275 82.3571 237.788C82.3571 238.236 82.2311 238.637 81.9791 238.992C81.7364 239.347 81.3818 239.627 80.9151 239.832C80.4578 240.028 79.9211 240.126 79.3051 240.126Z" fill="#7D87AA"/>
<path d="M16.34 310.098C15.6587 310.098 15.0427 309.981 14.492 309.748C13.9507 309.515 13.5213 309.179 13.204 308.74C12.8867 308.301 12.7233 307.783 12.714 307.186H14.814C14.842 307.587 14.982 307.905 15.234 308.138C15.4953 308.371 15.85 308.488 16.298 308.488C16.7553 308.488 17.1147 308.381 17.376 308.166C17.6373 307.942 17.768 307.653 17.768 307.298C17.768 307.009 17.6793 306.771 17.502 306.584C17.3247 306.397 17.1007 306.253 16.83 306.15C16.5687 306.038 16.2047 305.917 15.738 305.786C15.1033 305.599 14.5853 305.417 14.184 305.24C13.792 305.053 13.4513 304.778 13.162 304.414C12.882 304.041 12.742 303.546 12.742 302.93C12.742 302.351 12.8867 301.847 13.176 301.418C13.4653 300.989 13.8713 300.662 14.394 300.438C14.9167 300.205 15.514 300.088 16.186 300.088C17.194 300.088 18.0107 300.335 18.636 300.83C19.2707 301.315 19.6207 301.997 19.686 302.874H17.53C17.5113 302.538 17.3667 302.263 17.096 302.048C16.8347 301.824 16.4847 301.712 16.046 301.712C15.6633 301.712 15.3553 301.81 15.122 302.006C14.898 302.202 14.786 302.487 14.786 302.86C14.786 303.121 14.87 303.341 15.038 303.518C15.2153 303.686 15.43 303.826 15.682 303.938C15.9433 304.041 16.3073 304.162 16.774 304.302C17.4087 304.489 17.9267 304.675 18.328 304.862C18.7293 305.049 19.0747 305.329 19.364 305.702C19.6533 306.075 19.798 306.565 19.798 307.172C19.798 307.695 19.6627 308.18 19.392 308.628C19.1213 309.076 18.7247 309.435 18.202 309.706C17.6793 309.967 17.0587 310.098 16.34 310.098ZM28.8193 302.244V310H26.8453V309.02C26.5933 309.356 26.2619 309.622 25.8513 309.818C25.4499 310.005 25.0113 310.098 24.5353 310.098C23.9286 310.098 23.3919 309.972 22.9253 309.72C22.4586 309.459 22.0899 309.081 21.8193 308.586C21.5579 308.082 21.4273 307.485 21.4273 306.794V302.244H23.3873V306.514C23.3873 307.13 23.5413 307.606 23.8493 307.942C24.1573 308.269 24.5773 308.432 25.1093 308.432C25.6506 308.432 26.0753 308.269 26.3833 307.942C26.6913 307.606 26.8453 307.13 26.8453 306.514V302.244H28.8193ZM40.3851 302.132C41.3371 302.132 42.1024 302.426 42.6811 303.014C43.2691 303.593 43.5631 304.405 43.5631 305.45V310H41.6031V305.716C41.6031 305.109 41.4491 304.647 41.1411 304.33C40.8331 304.003 40.4131 303.84 39.8811 303.84C39.3491 303.84 38.9244 304.003 38.6071 304.33C38.2991 304.647 38.1451 305.109 38.1451 305.716V310H36.1851V305.716C36.1851 305.109 36.0311 304.647 35.7231 304.33C35.4151 304.003 34.9951 303.84 34.4631 303.84C33.9218 303.84 33.4924 304.003 33.1751 304.33C32.8671 304.647 32.7131 305.109 32.7131 305.716V310H30.7531V302.244H32.7131V303.182C32.9651 302.855 33.2871 302.599 33.6791 302.412C34.0804 302.225 34.5191 302.132 34.9951 302.132C35.6018 302.132 36.1431 302.263 36.6191 302.524C37.0951 302.776 37.4638 303.14 37.7251 303.616C37.9771 303.168 38.3411 302.809 38.8171 302.538C39.3024 302.267 39.8251 302.132 40.3851 302.132ZM55.055 302.132C56.007 302.132 56.7724 302.426 57.351 303.014C57.939 303.593 58.233 304.405 58.233 305.45V310H56.273V305.716C56.273 305.109 56.119 304.647 55.811 304.33C55.503 304.003 55.083 303.84 54.551 303.84C54.019 303.84 53.5944 304.003 53.277 304.33C52.969 304.647 52.815 305.109 52.815 305.716V310H50.855V305.716C50.855 305.109 50.701 304.647 50.393 304.33C50.085 304.003 49.665 303.84 49.133 303.84C48.5917 303.84 48.1624 304.003 47.845 304.33C47.537 304.647 47.383 305.109 47.383 305.716V310H45.423V302.244H47.383V303.182C47.635 302.855 47.957 302.599 48.349 302.412C48.7504 302.225 49.189 302.132 49.665 302.132C50.2717 302.132 50.813 302.263 51.289 302.524C51.765 302.776 52.1337 303.14 52.395 303.616C52.647 303.168 53.011 302.809 53.487 302.538C53.9724 302.267 54.495 302.132 55.055 302.132ZM59.589 306.094C59.589 305.31 59.743 304.615 60.051 304.008C60.3683 303.401 60.793 302.935 61.325 302.608C61.8663 302.281 62.4683 302.118 63.131 302.118C63.7096 302.118 64.2136 302.235 64.643 302.468C65.0816 302.701 65.4316 302.995 65.693 303.35V302.244H67.667V310H65.693V308.866C65.441 309.23 65.091 309.533 64.643 309.776C64.2043 310.009 63.6956 310.126 63.117 310.126C62.4636 310.126 61.8663 309.958 61.325 309.622C60.793 309.286 60.3683 308.815 60.051 308.208C59.743 307.592 59.589 306.887 59.589 306.094ZM65.693 306.122C65.693 305.646 65.5996 305.24 65.413 304.904C65.2263 304.559 64.9743 304.297 64.657 304.12C64.3396 303.933 63.999 303.84 63.635 303.84C63.271 303.84 62.935 303.929 62.627 304.106C62.319 304.283 62.067 304.545 61.871 304.89C61.6843 305.226 61.591 305.627 61.591 306.094C61.591 306.561 61.6843 306.971 61.871 307.326C62.067 307.671 62.319 307.937 62.627 308.124C62.9443 308.311 63.2803 308.404 63.635 308.404C63.999 308.404 64.3396 308.315 64.657 308.138C64.9743 307.951 65.2263 307.69 65.413 307.354C65.5996 307.009 65.693 306.598 65.693 306.122ZM71.5412 303.448C71.7932 303.037 72.1199 302.715 72.5212 302.482C72.9319 302.249 73.3986 302.132 73.9212 302.132V304.19H73.4032C72.7872 304.19 72.3206 304.335 72.0032 304.624C71.6952 304.913 71.5412 305.417 71.5412 306.136V310H69.5812V302.244H71.5412V303.448ZM82.6614 302.244L77.8594 313.668H75.7734L77.4534 309.804L74.3454 302.244H76.5434L78.5454 307.662L80.5754 302.244H82.6614Z" fill="#F6F9FE"/>
<circle cx="173" cy="33" r="4" fill="#20273E" stroke="#7D87AA" stroke-width="2"/>
<circle cx="173" cy="94" r="4" fill="#20273E" stroke="#7D87AA" stroke-width="2"/>
<circle cx="173" cy="164" r="4" fill="#20273E" stroke="#7D87AA" stroke-width="2"/>
<circle cx="173" cy="234" r="4" fill="#20273E" stroke="#7D87AA" stroke-width="2"/>
<circle cx="173" cy="304" r="5" fill="#52A6F8"/>
<circle cx="120" cy="33" r="18" fill="#52A6F8" fill-opacity="0.1"/>
<circle cx="120" cy="94" r="18" fill="#52A6F8" fill-opacity="0.1"/>
<path d="M124.166 87.3334H123.166C122.833 86.3334 121.916 85.6667 120.833 85.6667H119.166C118.083 85.6667 117.166 86.3334 116.833 87.3334H115.833C114.416 87.3334 113.333 88.4167 113.333 89.8334V99.8334C113.333 101.25 114.416 102.333 115.833 102.333H124.166C125.583 102.333 126.666 101.25 126.666 99.8334V89.8334C126.666 88.4167 125.583 87.3334 124.166 87.3334ZM118.333 88.1667C118.333 87.6667 118.666 87.3334 119.166 87.3334H120.833C121.333 87.3334 121.666 87.6667 121.666 88.1667V89H118.333V88.1667ZM120.833 97.3334H117.5C117 97.3334 116.666 97 116.666 96.5C116.666 96 117 95.6667 117.5 95.6667H120.833C121.333 95.6667 121.666 96 121.666 96.5C121.666 97 121.333 97.3334 120.833 97.3334ZM122.5 94H117.5C117 94 116.666 93.6667 116.666 93.1667C116.666 92.6667 117 92.3334 117.5 92.3334H122.5C123 92.3334 123.333 92.6667 123.333 93.1667C123.333 93.6667 123 94 122.5 94Z" fill="#52A6F8"/>
<circle cx="120" cy="164" r="18" fill="#52A6F8" fill-opacity="0.1"/>
<path d="M117.084 163.583C118.917 163.583 120.417 162.083 120.417 160.25C120.417 158.417 118.917 156.917 117.084 156.917C115.25 156.917 113.75 158.417 113.75 160.25C113.75 162.083 115.25 163.583 117.084 163.583ZM120.834 162.833C122.25 164 124.334 163.75 125.5 162.333C126.667 160.917 126.417 158.833 125 157.667C124.417 157.167 123.667 156.917 122.917 156.917C122.167 156.917 121.417 157.167 120.834 157.667C122.25 158.833 122.5 160.833 121.334 162.333C121.25 162.5 121 162.667 120.834 162.833ZM129.084 170.167C128.584 167.083 126 164.833 122.917 164.833C122.167 164.833 121.5 164.917 120.834 165.167C123 165.917 124.584 167.833 124.917 170.083C125 170.5 124.667 171 124.167 171H124.084H128.25C128.75 171 129.084 170.667 129.084 170.167C129.084 170.25 129.084 170.167 129.084 170.167ZM117.084 164.833C114 164.833 111.334 167.083 110.917 170.167C110.834 170.583 111.167 171.083 111.667 171.083H111.75H122.417C122.917 171.083 123.25 170.75 123.25 170.25V170.167C122.834 167.083 120.167 164.833 117.084 164.833Z" fill="#52A6F8"/>
<circle cx="120" cy="234" r="18" fill="#52A6F8" fill-opacity="0.1"/>
<path d="M126.417 230.583C126.75 230.25 126.75 229.75 126.417 229.417L122.917 225.917C122.584 225.583 122.084 225.583 121.75 225.917L119.417 228.25L124.167 233L126.417 230.583ZM114.167 239H117.667C117.917 239 118.084 238.917 118.25 238.75L122.834 234.167L118.167 229.417L113.584 234C113.417 234.167 113.334 234.417 113.334 234.667V238.167C113.334 238.667 113.667 239 114.167 239ZM127.5 240.667H112.5C112 240.667 111.667 241 111.667 241.5C111.667 242 112 242.333 112.5 242.333H127.5C128 242.333 128.334 242 128.334 241.5C128.334 241 128 240.667 127.5 240.667Z" fill="#52A6F8"/>
<circle cx="120" cy="304" r="18" fill="#52A6F8"/>
<path d="M128.166 304H125.666V296.5C125.666 296.167 125.5 295.917 125.25 295.75C125 295.583 124.666 295.583 124.416 295.75L121.916 297.167L119.416 295.75C119.166 295.583 118.833 295.583 118.583 295.75L116.083 297.167L113.583 295.75C113.333 295.583 113 295.583 112.75 295.75C112.5 295.917 112.333 296.167 112.333 296.5V309.833C112.333 311.25 113.416 312.333 114.833 312.333H126.5C127.916 312.333 129 311.25 129 309.833V304.833C129 304.417 128.583 304 128.166 304ZM118.166 309H116.5C116 309 115.666 308.667 115.666 308.167C115.666 307.667 116 307.333 116.5 307.333H118.166C118.666 307.333 119 307.667 119 308.167C119 308.667 118.583 309 118.166 309ZM118.166 305.667H116.5C116 305.667 115.666 305.333 115.666 304.833C115.666 304.333 116 304 116.5 304H118.166C118.666 304 119 304.333 119 304.833C119 305.333 118.583 305.667 118.166 305.667ZM117.333 302.333C116.833 302.333 116.5 302 116.5 301.5C116.5 301 116.833 300.667 117.333 300.667H120.666C121.166 300.667 121.5 301 121.5 301.5C121.5 302 121.166 302.333 120.666 302.333H117.333ZM121.5 309C121 309 120.666 308.667 120.666 308.167C120.666 307.667 121 307.333 121.5 307.333C122 307.333 122.333 307.667 122.333 308.167C122.333 308.667 121.916 309 121.5 309ZM121.5 305.667C121 305.667 120.666 305.333 120.666 304.833C120.666 304.333 121 304 121.5 304C122 304 122.333 304.333 122.333 304.833C122.333 305.333 121.916 305.667 121.5 305.667ZM127.333 309.833C127.333 310.333 127 310.667 126.5 310.667C126 310.667 125.666 310.333 125.666 309.833V305.667H127.333V309.833Z" fill="#F6F9FE"/>
<path d="M126.041 29.5417H125.25V28.75C125.25 27.4042 124.221 26.375 122.875 26.375H114.958C113.612 26.375 112.583 27.4042 112.583 28.75V38.25C112.583 39.5958 113.612 40.625 114.958 40.625H126.041C127.387 40.625 128.416 39.5958 128.416 38.25V31.9167C128.416 30.5708 127.387 29.5417 126.041 29.5417ZM123.666 29.5417H114.958C114.483 29.5417 114.166 29.225 114.166 28.75C114.166 28.275 114.483 27.9583 114.958 27.9583H122.875C123.35 27.9583 123.666 28.275 123.666 28.75V29.5417ZM126.833 36.6667H126.041C125.171 36.6667 124.458 35.9542 124.458 35.0833C124.458 34.2125 125.171 33.5 126.041 33.5H126.833V36.6667Z" fill="#52A6F8"/>
</svg>
