<svg width="20" height="20" viewBox="0 0 20 20" fill="none" xmlns="http://www.w3.org/2000/svg">
<path d="M16.9167 10.5827C16.6667 10.2493 16.6667 9.83268 16.9167 9.49935L18 8.33268C18.25 8.08268 18.25 7.66602 18.0833 7.33268L16.4167 4.41602C16.25 4.08268 15.9167 3.91602 15.5 3.99935L13.9167 4.33268C13.5 4.41602 13.0833 4.16602 13 3.74935L12.5 2.24935C12.3333 1.91602 12 1.66602 11.6667 1.66602H8.33333C8 1.66602 7.66667 1.91602 7.58333 2.24935L7 3.74935C6.91667 4.16602 6.5 4.41602 6.08333 4.33268L4.5 3.99935C4.16667 3.91602 3.83333 4.08268 3.58333 4.41602L1.91667 7.33268C1.75 7.58268 1.83333 7.99935 2.08333 8.24935L3.16667 9.41602C3.41667 9.74935 3.41667 10.166 3.16667 10.4993L2.08333 11.666C1.83333 11.916 1.83333 12.3327 2 12.666L3.66667 15.5827C3.83333 15.916 4.16667 16.0827 4.58333 15.9994L6.16667 15.666C6.58333 15.5827 7 15.8327 7.08333 16.2493L7.58333 17.7493C7.66667 18.0827 8 18.3327 8.33333 18.3327H11.6667C12 18.3327 12.3333 18.0827 12.4167 17.7493L12.9167 16.2493C13.0833 15.8327 13.5 15.5827 13.8333 15.666L15.4167 15.9994C15.75 16.0827 16.1667 15.916 16.3333 15.5827L18 12.666C18.1667 12.3327 18.1667 11.9993 17.9167 11.666L16.9167 10.5827ZM10 12.4993C8.58333 12.4993 7.5 11.416 7.5 9.99935C7.5 8.58268 8.58333 7.49935 10 7.49935C11.4167 7.49935 12.5 8.58268 12.5 9.99935C12.5 11.416 11.4167 12.4993 10 12.4993Z" fill="#52A6F8"/>
</svg>
