<svg width="20" height="20" viewBox="0 0 20 20" fill="none" xmlns="http://www.w3.org/2000/svg">
<path d="M18.0917 7.7415L14.7583 4.40816C14.6806 4.33046 14.5884 4.26883 14.4869 4.22678C14.3854 4.18473 14.2766 4.16309 14.1667 4.16309C13.9448 4.16309 13.7319 4.25124 13.575 4.40816C13.4181 4.56508 13.3299 4.77791 13.3299 4.99983C13.3299 5.22175 13.4181 5.43458 13.575 5.5915L15.4917 7.49983H5.83334C5.61232 7.49983 5.40036 7.58763 5.24408 7.74391C5.0878 7.90019 5 8.11215 5 8.33316C5 8.55418 5.0878 8.76614 5.24408 8.92242C5.40036 9.0787 5.61232 9.1665 5.83334 9.1665H17.5C17.6645 9.16567 17.8251 9.11617 17.9616 9.02423C18.098 8.93228 18.2042 8.80201 18.2667 8.64983C18.3305 8.49807 18.3479 8.33081 18.3168 8.16915C18.2856 8.00749 18.2073 7.85868 18.0917 7.7415ZM14.1667 10.8332H2.5C2.33548 10.834 2.17489 10.8835 2.03845 10.9754C1.90202 11.0674 1.79585 11.1976 1.73334 11.3498C1.66952 11.5016 1.65209 11.6688 1.68323 11.8305C1.71438 11.9922 1.79271 12.141 1.90834 12.2582L5.24167 15.5915C5.31914 15.6696 5.41131 15.7316 5.51286 15.7739C5.61441 15.8162 5.72333 15.838 5.83334 15.838C5.94335 15.838 6.05227 15.8162 6.15382 15.7739C6.25537 15.7316 6.34754 15.6696 6.425 15.5915C6.50311 15.514 6.56511 15.4219 6.60741 15.3203C6.64972 15.2188 6.6715 15.1098 6.6715 14.9998C6.6715 14.8898 6.64972 14.7809 6.60741 14.6793C6.56511 14.5778 6.50311 14.4856 6.425 14.4082L4.50834 12.4998H14.1667C14.3877 12.4998 14.5996 12.412 14.7559 12.2558C14.9122 12.0995 15 11.8875 15 11.6665C15 11.4455 14.9122 11.2335 14.7559 11.0772C14.5996 10.921 14.3877 10.8332 14.1667 10.8332Z" fill="#52A6F8"/>
</svg>
