<svg width="20" height="20" viewBox="0 0 20 20" fill="none" xmlns="http://www.w3.org/2000/svg">
<path d="M7.08333 9.58366C8.91666 9.58366 10.4167 8.08366 10.4167 6.25033C10.4167 4.41699 8.91666 2.91699 7.08333 2.91699C5.25 2.91699 3.75 4.41699 3.75 6.25033C3.75 8.08366 5.25 9.58366 7.08333 9.58366ZM10.8333 8.83366C12.25 10.0003 14.3333 9.75033 15.5 8.33366C16.6667 6.91699 16.4167 4.83366 15 3.66699C14.4167 3.16699 13.6667 2.91699 12.9167 2.91699C12.1667 2.91699 11.4167 3.16699 10.8333 3.66699C12.25 4.83366 12.5 6.83366 11.3333 8.33366C11.25 8.50033 11 8.66699 10.8333 8.83366ZM19.0833 16.167C18.5833 13.0837 16 10.8337 12.9167 10.8337C12.1667 10.8337 11.5 10.917 10.8333 11.167C13 11.917 14.5833 13.8337 14.9167 16.0837C15 16.5003 14.6667 17.0003 14.1667 17.0003H14.0833H18.25C18.75 17.0003 19.0833 16.667 19.0833 16.167C19.0833 16.2503 19.0833 16.167 19.0833 16.167ZM7.08333 10.8337C4 10.8337 1.33333 13.0837 0.916662 16.167C0.833329 16.5837 1.16666 17.0837 1.66666 17.0837H1.75H12.4167C12.9167 17.0837 13.25 16.7503 13.25 16.2503V16.167C12.8333 13.0837 10.1667 10.8337 7.08333 10.8337Z" fill="#52A6F8"/>
</svg>
