<svg width="20" height="20" viewBox="0 0 20 20" fill="none" xmlns="http://www.w3.org/2000/svg">
<path d="M18.0917 7.74174L14.7583 4.40841C14.6806 4.33071 14.5884 4.26907 14.4869 4.22702C14.3854 4.18497 14.2766 4.16333 14.1667 4.16333C13.9448 4.16333 13.7319 4.25149 13.575 4.40841C13.4181 4.56533 13.3299 4.77816 13.3299 5.00007C13.3299 5.22199 13.4181 5.43482 13.575 5.59174L15.4917 7.50007H5.83334C5.61232 7.50007 5.40036 7.58787 5.24408 7.74415C5.0878 7.90043 5 8.11239 5 8.33341C5 8.55442 5.0878 8.76638 5.24408 8.92266C5.40036 9.07894 5.61232 9.16674 5.83334 9.16674H17.5C17.6645 9.16592 17.8251 9.11642 17.9616 9.02447C18.098 8.93253 18.2042 8.80226 18.2667 8.65007C18.3305 8.49831 18.3479 8.33105 18.3168 8.1694C18.2856 8.00774 18.2073 7.85893 18.0917 7.74174ZM14.1667 10.8334H2.5C2.33548 10.8342 2.17489 10.8837 2.03845 10.9757C1.90202 11.0676 1.79585 11.1979 1.73334 11.3501C1.66952 11.5018 1.65209 11.6691 1.68323 11.8308C1.71438 11.9924 1.79271 12.1412 1.90834 12.2584L5.24167 15.5917C5.31914 15.6698 5.41131 15.7318 5.51286 15.7741C5.61441 15.8165 5.72333 15.8382 5.83334 15.8382C5.94335 15.8382 6.05227 15.8165 6.15382 15.7741C6.25537 15.7318 6.34754 15.6698 6.425 15.5917C6.50311 15.5143 6.56511 15.4221 6.60741 15.3206C6.64972 15.219 6.6715 15.1101 6.6715 15.0001C6.6715 14.8901 6.64972 14.7811 6.60741 14.6796C6.56511 14.578 6.50311 14.4859 6.425 14.4084L4.50834 12.5001H14.1667C14.3877 12.5001 14.5996 12.4123 14.7559 12.256C14.9122 12.0997 15 11.8878 15 11.6667C15 11.4457 14.9122 11.2338 14.7559 11.0775C14.5996 10.9212 14.3877 10.8334 14.1667 10.8334Z" fill="#7D87AA"/>
</svg>
