<svg width="20" height="20" viewBox="0 0 20 20" fill="none" xmlns="http://www.w3.org/2000/svg">
<path d="M16.9167 10.5834C16.6667 10.2501 16.6667 9.83342 16.9167 9.50008L18 8.33342C18.25 8.08342 18.25 7.66675 18.0833 7.33342L16.4167 4.41675C16.25 4.08342 15.9167 3.91675 15.5 4.00008L13.9167 4.33341C13.5 4.41675 13.0833 4.16675 13 3.75008L12.5 2.25008C12.3333 1.91675 12 1.66675 11.6667 1.66675H8.33333C8 1.66675 7.66667 1.91675 7.58333 2.25008L7 3.75008C6.91667 4.16675 6.5 4.41675 6.08333 4.33341L4.5 4.00008C4.16667 3.91675 3.83333 4.08342 3.58333 4.41675L1.91667 7.33342C1.75 7.58342 1.83333 8.00008 2.08333 8.25008L3.16667 9.41675C3.41667 9.75008 3.41667 10.1667 3.16667 10.5001L2.08333 11.6667C1.83333 11.9167 1.83333 12.3334 2 12.6667L3.66667 15.5834C3.83333 15.9167 4.16667 16.0834 4.58333 16.0001L6.16667 15.6667C6.58333 15.5834 7 15.8334 7.08333 16.2501L7.58333 17.7501C7.66667 18.0834 8 18.3334 8.33333 18.3334H11.6667C12 18.3334 12.3333 18.0834 12.4167 17.7501L12.9167 16.2501C13.0833 15.8334 13.5 15.5834 13.8333 15.6667L15.4167 16.0001C15.75 16.0834 16.1667 15.9167 16.3333 15.5834L18 12.6667C18.1667 12.3334 18.1667 12.0001 17.9167 11.6667L16.9167 10.5834ZM10 12.5001C8.58333 12.5001 7.5 11.4167 7.5 10.0001C7.5 8.58342 8.58333 7.50008 10 7.50008C11.4167 7.50008 12.5 8.58342 12.5 10.0001C12.5 11.4167 11.4167 12.5001 10 12.5001Z" fill="#7D87AA"/>
</svg>
