<svg width="20" height="20" viewBox="0 0 20 20" fill="none" xmlns="http://www.w3.org/2000/svg">
<path d="M7.08333 9.58342C8.91666 9.58342 10.4167 8.08342 10.4167 6.25008C10.4167 4.41675 8.91666 2.91675 7.08333 2.91675C5.25 2.91675 3.75 4.41675 3.75 6.25008C3.75 8.08342 5.25 9.58342 7.08333 9.58342ZM10.8333 8.83342C12.25 10.0001 14.3333 9.75008 15.5 8.33342C16.6667 6.91675 16.4167 4.83341 15 3.66675C14.4167 3.16675 13.6667 2.91675 12.9167 2.91675C12.1667 2.91675 11.4167 3.16675 10.8333 3.66675C12.25 4.83341 12.5 6.83342 11.3333 8.33342C11.25 8.50008 11 8.66675 10.8333 8.83342ZM19.0833 16.1667C18.5833 13.0834 16 10.8334 12.9167 10.8334C12.1667 10.8334 11.5 10.9167 10.8333 11.1667C13 11.9167 14.5833 13.8334 14.9167 16.0834C15 16.5001 14.6667 17.0001 14.1667 17.0001H14.0833H18.25C18.75 17.0001 19.0833 16.6667 19.0833 16.1667C19.0833 16.2501 19.0833 16.1667 19.0833 16.1667ZM7.08333 10.8334C4 10.8334 1.33333 13.0834 0.916662 16.1667C0.833329 16.5834 1.16666 17.0834 1.66666 17.0834H1.75H12.4167C12.9167 17.0834 13.25 16.7501 13.25 16.2501V16.1667C12.8333 13.0834 10.1667 10.8334 7.08333 10.8334Z" fill="#7D87AA"/>
</svg>
