<svg width="178" height="336" viewBox="0 0 178 336" fill="none" xmlns="http://www.w3.org/2000/svg">
<line x1="173.5" y1="0.5" x2="173.5" y2="335.5" stroke="#636D8F" stroke-opacity="0.2" stroke-linecap="round"/>
<path d="M22.49 33.1C22.49 32.1387 22.7047 31.28 23.134 30.524C23.5727 29.7587 24.1653 29.166 24.912 28.746C25.668 28.3167 26.5127 28.102 27.446 28.102C28.538 28.102 29.4947 28.382 30.316 28.942C31.1373 29.502 31.7113 30.2767 32.038 31.266H29.784C29.56 30.7993 29.2427 30.4493 28.832 30.216C28.4307 29.9827 27.964 29.866 27.432 29.866C26.8627 29.866 26.354 30.0013 25.906 30.272C25.4673 30.5333 25.122 30.9067 24.87 31.392C24.6273 31.8773 24.506 32.4467 24.506 33.1C24.506 33.744 24.6273 34.3133 24.87 34.808C25.122 35.2933 25.4673 35.6713 25.906 35.942C26.354 36.2033 26.8627 36.334 27.432 36.334C27.964 36.334 28.4307 36.2173 28.832 35.984C29.2427 35.7413 29.56 35.3867 29.784 34.92H32.038C31.7113 35.9187 31.1373 36.698 30.316 37.258C29.504 37.8087 28.5473 38.084 27.446 38.084C26.5127 38.084 25.668 37.874 24.912 37.454C24.1653 37.0247 23.5727 36.432 23.134 35.676C22.7047 34.92 22.49 34.0613 22.49 33.1ZM37.1561 38.126C36.4094 38.126 35.7374 37.9627 35.1401 37.636C34.5428 37.3 34.0714 36.8287 33.7261 36.222C33.3901 35.6153 33.2221 34.9153 33.2221 34.122C33.2221 33.3287 33.3948 32.6287 33.7401 32.022C34.0948 31.4153 34.5754 30.9487 35.1821 30.622C35.7888 30.286 36.4654 30.118 37.2121 30.118C37.9588 30.118 38.6354 30.286 39.2421 30.622C39.8488 30.9487 40.3248 31.4153 40.6701 32.022C41.0248 32.6287 41.2021 33.3287 41.2021 34.122C41.2021 34.9153 41.0201 35.6153 40.6561 36.222C40.3014 36.8287 39.8161 37.3 39.2001 37.636C38.5934 37.9627 37.9121 38.126 37.1561 38.126ZM37.1561 36.418C37.5108 36.418 37.8421 36.334 38.1501 36.166C38.4674 35.9887 38.7194 35.7273 38.9061 35.382C39.0928 35.0367 39.1861 34.6167 39.1861 34.122C39.1861 33.3847 38.9901 32.82 38.5981 32.428C38.2154 32.0267 37.7441 31.826 37.1841 31.826C36.6241 31.826 36.1528 32.0267 35.7701 32.428C35.3968 32.82 35.2101 33.3847 35.2101 34.122C35.2101 34.8593 35.3921 35.4287 35.7561 35.83C36.1294 36.222 36.5961 36.418 37.1561 36.418ZM46.9378 30.132C47.8618 30.132 48.6085 30.426 49.1778 31.014C49.7472 31.5927 50.0318 32.4047 50.0318 33.45V38H48.0718V33.716C48.0718 33.1 47.9178 32.6287 47.6098 32.302C47.3018 31.966 46.8818 31.798 46.3498 31.798C45.8085 31.798 45.3792 31.966 45.0618 32.302C44.7538 32.6287 44.5998 33.1 44.5998 33.716V38H42.6398V30.244H44.5998V31.21C44.8612 30.874 45.1925 30.6127 45.5938 30.426C46.0045 30.23 46.4525 30.132 46.9378 30.132ZM56.1937 30.132C57.1177 30.132 57.8644 30.426 58.4337 31.014C59.003 31.5927 59.2877 32.4047 59.2877 33.45V38H57.3277V33.716C57.3277 33.1 57.1737 32.6287 56.8657 32.302C56.5577 31.966 56.1377 31.798 55.6057 31.798C55.0644 31.798 54.635 31.966 54.3177 32.302C54.0097 32.6287 53.8557 33.1 53.8557 33.716V38H51.8957V30.244H53.8557V31.21C54.117 30.874 54.4484 30.6127 54.8497 30.426C55.2604 30.23 55.7084 30.132 56.1937 30.132ZM68.3615 33.954C68.3615 34.234 68.3429 34.486 68.3055 34.71H62.6355C62.6822 35.27 62.8782 35.7087 63.2235 36.026C63.5689 36.3433 63.9935 36.502 64.4975 36.502C65.2255 36.502 65.7435 36.1893 66.0515 35.564H68.1655C67.9415 36.3107 67.5122 36.9267 66.8775 37.412C66.2429 37.888 65.4635 38.126 64.5395 38.126C63.7929 38.126 63.1209 37.9627 62.5235 37.636C61.9355 37.3 61.4735 36.8287 61.1375 36.222C60.8109 35.6153 60.6475 34.9153 60.6475 34.122C60.6475 33.3193 60.8109 32.6147 61.1375 32.008C61.4642 31.4013 61.9215 30.9347 62.5095 30.608C63.0975 30.2813 63.7742 30.118 64.5395 30.118C65.2769 30.118 65.9349 30.2767 66.5135 30.594C67.1015 30.9113 67.5542 31.364 67.8715 31.952C68.1982 32.5307 68.3615 33.198 68.3615 33.954ZM66.3315 33.394C66.3222 32.89 66.1402 32.4887 65.7855 32.19C65.4309 31.882 64.9969 31.728 64.4835 31.728C63.9982 31.728 63.5875 31.8773 63.2515 32.176C62.9249 32.4653 62.7242 32.8713 62.6495 33.394H66.3315ZM69.2882 34.122C69.2882 33.3193 69.4515 32.6193 69.7782 32.022C70.1048 31.4153 70.5575 30.9487 71.1362 30.622C71.7148 30.286 72.3775 30.118 73.1242 30.118C74.0855 30.118 74.8788 30.3607 75.5042 30.846C76.1388 31.322 76.5635 31.994 76.7782 32.862H74.6642C74.5522 32.526 74.3608 32.2647 74.0902 32.078C73.8288 31.882 73.5022 31.784 73.1102 31.784C72.5502 31.784 72.1068 31.9893 71.7802 32.4C71.4535 32.8013 71.2902 33.3753 71.2902 34.122C71.2902 34.8593 71.4535 35.4333 71.7802 35.844C72.1068 36.2453 72.5502 36.446 73.1102 36.446C73.9035 36.446 74.4215 36.0913 74.6642 35.382H76.7782C76.5635 36.222 76.1388 36.8893 75.5042 37.384C74.8695 37.8787 74.0762 38.126 73.1242 38.126C72.3775 38.126 71.7148 37.9627 71.1362 37.636C70.5575 37.3 70.1048 36.8333 69.7782 36.236C69.4515 35.6293 69.2882 34.9247 69.2882 34.122ZM80.496 31.854V35.606C80.496 35.8673 80.5567 36.0587 80.678 36.18C80.8087 36.292 81.0234 36.348 81.322 36.348H82.232V38H81C79.348 38 78.522 37.1973 78.522 35.592V31.854H77.598V30.244H78.522V28.326H80.496V30.244H82.232V31.854H80.496Z" fill="#7D87AA"/>
<path d="M8.092 93.252C8.092 93.7747 7.966 94.2647 7.714 94.722C7.47133 95.1793 7.084 95.548 6.552 95.828C6.02933 96.108 5.36667 96.248 4.564 96.248H2.926V100H0.966V90.228H4.564C5.32 90.228 5.964 90.3587 6.496 90.62C7.028 90.8813 7.42467 91.2407 7.686 91.698C7.95667 92.1553 8.092 92.6733 8.092 93.252ZM4.48 94.666C5.02133 94.666 5.42267 94.5447 5.684 94.302C5.94533 94.05 6.076 93.7 6.076 93.252C6.076 92.3 5.544 91.824 4.48 91.824H2.926V94.666H4.48ZM16.6936 95.954C16.6936 96.234 16.6749 96.486 16.6376 96.71H10.9676C11.0142 97.27 11.2102 97.7087 11.5556 98.026C11.9009 98.3433 12.3256 98.502 12.8296 98.502C13.5576 98.502 14.0756 98.1893 14.3836 97.564H16.4976C16.2736 98.3107 15.8442 98.9267 15.2096 99.412C14.5749 99.888 13.7956 100.126 12.8716 100.126C12.1249 100.126 11.4529 99.9627 10.8556 99.636C10.2676 99.3 9.80558 98.8287 9.46958 98.222C9.14291 97.6153 8.97958 96.9153 8.97958 96.122C8.97958 95.3193 9.14291 94.6147 9.46958 94.008C9.79624 93.4013 10.2536 92.9347 10.8416 92.608C11.4296 92.2813 12.1062 92.118 12.8716 92.118C13.6089 92.118 14.2669 92.2767 14.8456 92.594C15.4336 92.9113 15.8862 93.364 16.2036 93.952C16.5302 94.5307 16.6936 95.198 16.6936 95.954ZM14.6636 95.394C14.6542 94.89 14.4722 94.4887 14.1176 94.19C13.7629 93.882 13.3289 93.728 12.8156 93.728C12.3302 93.728 11.9196 93.8773 11.5836 94.176C11.2569 94.4653 11.0562 94.8713 10.9816 95.394H14.6636ZM20.0842 93.448C20.3362 93.0373 20.6629 92.7153 21.0642 92.482C21.4749 92.2487 21.9415 92.132 22.4642 92.132V94.19H21.9462C21.3302 94.19 20.8635 94.3347 20.5462 94.624C20.2382 94.9133 20.0842 95.4173 20.0842 96.136V100H18.1242V92.244H20.0842V93.448ZM26.7524 100.126C26.1177 100.126 25.5484 100.014 25.0444 99.79C24.5404 99.5567 24.139 99.244 23.8404 98.852C23.551 98.46 23.3924 98.026 23.3644 97.55H25.3384C25.3757 97.8487 25.5204 98.096 25.7724 98.292C26.0337 98.488 26.3557 98.586 26.7384 98.586C27.1117 98.586 27.401 98.5113 27.6064 98.362C27.821 98.2127 27.9284 98.0213 27.9284 97.788C27.9284 97.536 27.7977 97.3493 27.5364 97.228C27.2844 97.0973 26.8784 96.9573 26.3184 96.808C25.7397 96.668 25.2637 96.5233 24.8904 96.374C24.5264 96.2247 24.209 95.996 23.9384 95.688C23.677 95.38 23.5464 94.9647 23.5464 94.442C23.5464 94.0127 23.6677 93.6207 23.9104 93.266C24.1624 92.9113 24.517 92.6313 24.9744 92.426C25.441 92.2207 25.987 92.118 26.6124 92.118C27.5364 92.118 28.2737 92.3513 28.8244 92.818C29.375 93.2753 29.6784 93.896 29.7344 94.68H27.8584C27.8304 94.372 27.6997 94.1293 27.4664 93.952C27.2424 93.7653 26.939 93.672 26.5564 93.672C26.2017 93.672 25.9264 93.7373 25.7304 93.868C25.5437 93.9987 25.4504 94.1807 25.4504 94.414C25.4504 94.6753 25.581 94.876 25.8424 95.016C26.1037 95.1467 26.5097 95.282 27.0604 95.422C27.6204 95.562 28.0824 95.7067 28.4464 95.856C28.8104 96.0053 29.123 96.2387 29.3844 96.556C29.655 96.864 29.795 97.2747 29.8044 97.788C29.8044 98.236 29.6784 98.6373 29.4264 98.992C29.1837 99.3467 28.829 99.6267 28.3624 99.832C27.905 100.028 27.3684 100.126 26.7524 100.126ZM34.8573 100.126C34.1106 100.126 33.4386 99.9627 32.8413 99.636C32.2439 99.3 31.7726 98.8287 31.4273 98.222C31.0913 97.6153 30.9233 96.9153 30.9233 96.122C30.9233 95.3287 31.0959 94.6287 31.4413 94.022C31.7959 93.4153 32.2766 92.9487 32.8833 92.622C33.4899 92.286 34.1666 92.118 34.9133 92.118C35.6599 92.118 36.3366 92.286 36.9433 92.622C37.5499 92.9487 38.0259 93.4153 38.3713 94.022C38.7259 94.6287 38.9033 95.3287 38.9033 96.122C38.9033 96.9153 38.7213 97.6153 38.3573 98.222C38.0026 98.8287 37.5173 99.3 36.9013 99.636C36.2946 99.9627 35.6133 100.126 34.8573 100.126ZM34.8573 98.418C35.2119 98.418 35.5433 98.334 35.8513 98.166C36.1686 97.9887 36.4206 97.7273 36.6073 97.382C36.7939 97.0367 36.8873 96.6167 36.8873 96.122C36.8873 95.3847 36.6913 94.82 36.2993 94.428C35.9166 94.0267 35.4453 93.826 34.8853 93.826C34.3253 93.826 33.8539 94.0267 33.4713 94.428C33.0979 94.82 32.9113 95.3847 32.9113 96.122C32.9113 96.8593 33.0933 97.4287 33.4573 97.83C33.8306 98.222 34.2973 98.418 34.8573 98.418ZM44.639 92.132C45.563 92.132 46.3097 92.426 46.879 93.014C47.4483 93.5927 47.733 94.4047 47.733 95.45V100H45.773V95.716C45.773 95.1 45.619 94.6287 45.311 94.302C45.003 93.966 44.583 93.798 44.051 93.798C43.5097 93.798 43.0803 93.966 42.763 94.302C42.455 94.6287 42.301 95.1 42.301 95.716V100H40.341V92.244H42.301V93.21C42.5623 92.874 42.8937 92.6127 43.295 92.426C43.7057 92.23 44.1537 92.132 44.639 92.132ZM49.0929 96.094C49.0929 95.31 49.2469 94.6147 49.5549 94.008C49.8722 93.4013 50.2969 92.9347 50.8289 92.608C51.3702 92.2813 51.9722 92.118 52.6349 92.118C53.2135 92.118 53.7175 92.2347 54.1469 92.468C54.5855 92.7013 54.9355 92.9953 55.1969 93.35V92.244H57.1709V100H55.1969V98.866C54.9449 99.23 54.5949 99.5333 54.1469 99.776C53.7082 100.009 53.1995 100.126 52.6209 100.126C51.9675 100.126 51.3702 99.958 50.8289 99.622C50.2969 99.286 49.8722 98.8147 49.5549 98.208C49.2469 97.592 49.0929 96.8873 49.0929 96.094ZM55.1969 96.122C55.1969 95.646 55.1035 95.24 54.9169 94.904C54.7302 94.5587 54.4782 94.2973 54.1609 94.12C53.8435 93.9333 53.5029 93.84 53.1389 93.84C52.7749 93.84 52.4389 93.9287 52.1309 94.106C51.8229 94.2833 51.5709 94.5447 51.3749 94.89C51.1882 95.226 51.0949 95.6273 51.0949 96.094C51.0949 96.5607 51.1882 96.9713 51.3749 97.326C51.5709 97.6713 51.8229 97.9373 52.1309 98.124C52.4482 98.3107 52.7842 98.404 53.1389 98.404C53.5029 98.404 53.8435 98.3153 54.1609 98.138C54.4782 97.9513 54.7302 97.69 54.9169 97.354C55.1035 97.0087 55.1969 96.598 55.1969 96.122ZM61.0451 89.64V100H59.0851V89.64H61.0451ZM63.9756 91.32C63.6303 91.32 63.341 91.2127 63.1076 90.998C62.8836 90.774 62.7716 90.4987 62.7716 90.172C62.7716 89.8453 62.8836 89.5747 63.1076 89.36C63.341 89.136 63.6303 89.024 63.9756 89.024C64.321 89.024 64.6056 89.136 64.8296 89.36C65.063 89.5747 65.1796 89.8453 65.1796 90.172C65.1796 90.4987 65.063 90.774 64.8296 90.998C64.6056 91.2127 64.321 91.32 63.9756 91.32ZM64.9416 92.244V100H62.9816V92.244H64.9416ZM69.8461 100.126C69.2114 100.126 68.6421 100.014 68.1381 99.79C67.6341 99.5567 67.2328 99.244 66.9341 98.852C66.6448 98.46 66.4861 98.026 66.4581 97.55H68.4321C68.4694 97.8487 68.6141 98.096 68.8661 98.292C69.1274 98.488 69.4494 98.586 69.8321 98.586C70.2054 98.586 70.4948 98.5113 70.7001 98.362C70.9148 98.2127 71.0221 98.0213 71.0221 97.788C71.0221 97.536 70.8914 97.3493 70.6301 97.228C70.3781 97.0973 69.9721 96.9573 69.4121 96.808C68.8334 96.668 68.3574 96.5233 67.9841 96.374C67.6201 96.2247 67.3028 95.996 67.0321 95.688C66.7708 95.38 66.6401 94.9647 66.6401 94.442C66.6401 94.0127 66.7614 93.6207 67.0041 93.266C67.2561 92.9113 67.6108 92.6313 68.0681 92.426C68.5348 92.2207 69.0808 92.118 69.7061 92.118C70.6301 92.118 71.3674 92.3513 71.9181 92.818C72.4688 93.2753 72.7721 93.896 72.8281 94.68H70.9521C70.9241 94.372 70.7934 94.1293 70.5601 93.952C70.3361 93.7653 70.0328 93.672 69.6501 93.672C69.2954 93.672 69.0201 93.7373 68.8241 93.868C68.6374 93.9987 68.5441 94.1807 68.5441 94.414C68.5441 94.6753 68.6748 94.876 68.9361 95.016C69.1974 95.1467 69.6034 95.282 70.1541 95.422C70.7141 95.562 71.1761 95.7067 71.5401 95.856C71.9041 96.0053 72.2168 96.2387 72.4781 96.556C72.7488 96.864 72.8888 97.2747 72.8981 97.788C72.8981 98.236 72.7721 98.6373 72.5201 98.992C72.2774 99.3467 71.9228 99.6267 71.4561 99.832C70.9988 100.028 70.4621 100.126 69.8461 100.126ZM81.717 95.954C81.717 96.234 81.6983 96.486 81.661 96.71H75.991C76.0377 97.27 76.2337 97.7087 76.579 98.026C76.9243 98.3433 77.349 98.502 77.853 98.502C78.581 98.502 79.099 98.1893 79.407 97.564H81.521C81.297 98.3107 80.8677 98.9267 80.233 99.412C79.5983 99.888 78.819 100.126 77.895 100.126C77.1483 100.126 76.4763 99.9627 75.879 99.636C75.291 99.3 74.829 98.8287 74.493 98.222C74.1663 97.6153 74.003 96.9153 74.003 96.122C74.003 95.3193 74.1663 94.6147 74.493 94.008C74.8197 93.4013 75.277 92.9347 75.865 92.608C76.453 92.2813 77.1297 92.118 77.895 92.118C78.6323 92.118 79.2903 92.2767 79.869 92.594C80.457 92.9113 80.9097 93.364 81.227 93.952C81.5537 94.5307 81.717 95.198 81.717 95.954ZM79.687 95.394C79.6777 94.89 79.4957 94.4887 79.141 94.19C78.7863 93.882 78.3523 93.728 77.839 93.728C77.3537 93.728 76.943 93.8773 76.607 94.176C76.2803 94.4653 76.0797 94.8713 76.005 95.394H79.687Z" fill="#F6F9FE"/>
<path d="M27.2997 160.228V170H25.3397V163.644L22.7217 170H21.2377L18.6057 163.644V170H16.6457V160.228H18.8717L21.9797 167.494L25.0877 160.228H27.2997ZM36.4475 165.954C36.4475 166.234 36.4288 166.486 36.3915 166.71H30.7215C30.7682 167.27 30.9642 167.709 31.3095 168.026C31.6548 168.343 32.0795 168.502 32.5835 168.502C33.3115 168.502 33.8295 168.189 34.1375 167.564H36.2515C36.0275 168.311 35.5982 168.927 34.9635 169.412C34.3288 169.888 33.5495 170.126 32.6255 170.126C31.8788 170.126 31.2068 169.963 30.6095 169.636C30.0215 169.3 29.5595 168.829 29.2235 168.222C28.8968 167.615 28.7335 166.915 28.7335 166.122C28.7335 165.319 28.8968 164.615 29.2235 164.008C29.5502 163.401 30.0075 162.935 30.5955 162.608C31.1835 162.281 31.8602 162.118 32.6255 162.118C33.3628 162.118 34.0208 162.277 34.5995 162.594C35.1875 162.911 35.6402 163.364 35.9575 163.952C36.2842 164.531 36.4475 165.198 36.4475 165.954ZM34.4175 165.394C34.4082 164.89 34.2262 164.489 33.8715 164.19C33.5168 163.882 33.0828 163.728 32.5695 163.728C32.0842 163.728 31.6735 163.877 31.3375 164.176C31.0108 164.465 30.8102 164.871 30.7355 165.394H34.4175ZM47.5101 162.132C48.4621 162.132 49.2274 162.426 49.8061 163.014C50.3941 163.593 50.6881 164.405 50.6881 165.45V170H48.7281V165.716C48.7281 165.109 48.5741 164.647 48.2661 164.33C47.9581 164.003 47.5381 163.84 47.0061 163.84C46.4741 163.84 46.0494 164.003 45.7321 164.33C45.4241 164.647 45.2701 165.109 45.2701 165.716V170H43.3101V165.716C43.3101 165.109 43.1561 164.647 42.8481 164.33C42.5401 164.003 42.1201 163.84 41.5881 163.84C41.0468 163.84 40.6174 164.003 40.3001 164.33C39.9921 164.647 39.8381 165.109 39.8381 165.716V170H37.8781V162.244H39.8381V163.182C40.0901 162.855 40.4121 162.599 40.8041 162.412C41.2054 162.225 41.6441 162.132 42.1201 162.132C42.7268 162.132 43.2681 162.263 43.7441 162.524C44.2201 162.776 44.5888 163.14 44.8501 163.616C45.1021 163.168 45.4661 162.809 45.9421 162.538C46.4274 162.267 46.9501 162.132 47.5101 162.132ZM54.508 163.378C54.76 163.005 55.1054 162.701 55.544 162.468C55.992 162.235 56.5007 162.118 57.07 162.118C57.7327 162.118 58.33 162.281 58.862 162.608C59.4034 162.935 59.828 163.401 60.136 164.008C60.4534 164.605 60.612 165.301 60.612 166.094C60.612 166.887 60.4534 167.592 60.136 168.208C59.828 168.815 59.4034 169.286 58.862 169.622C58.33 169.958 57.7327 170.126 57.07 170.126C56.4914 170.126 55.9827 170.014 55.544 169.79C55.1147 169.557 54.7694 169.258 54.508 168.894V170H52.548V159.64H54.508V163.378ZM58.61 166.094C58.61 165.627 58.512 165.226 58.316 164.89C58.1294 164.545 57.8774 164.283 57.56 164.106C57.252 163.929 56.916 163.84 56.552 163.84C56.1974 163.84 55.8614 163.933 55.544 164.12C55.236 164.297 54.984 164.559 54.788 164.904C54.6014 165.249 54.508 165.655 54.508 166.122C54.508 166.589 54.6014 166.995 54.788 167.34C54.984 167.685 55.236 167.951 55.544 168.138C55.8614 168.315 56.1974 168.404 56.552 168.404C56.916 168.404 57.252 168.311 57.56 168.124C57.8774 167.937 58.1294 167.671 58.316 167.326C58.512 166.981 58.61 166.57 58.61 166.094ZM69.2463 165.954C69.2463 166.234 69.2276 166.486 69.1903 166.71H63.5203C63.567 167.27 63.763 167.709 64.1083 168.026C64.4536 168.343 64.8783 168.502 65.3823 168.502C66.1103 168.502 66.6283 168.189 66.9363 167.564H69.0503C68.8263 168.311 68.397 168.927 67.7623 169.412C67.1276 169.888 66.3483 170.126 65.4243 170.126C64.6776 170.126 64.0056 169.963 63.4083 169.636C62.8203 169.3 62.3583 168.829 62.0223 168.222C61.6956 167.615 61.5323 166.915 61.5323 166.122C61.5323 165.319 61.6956 164.615 62.0223 164.008C62.349 163.401 62.8063 162.935 63.3943 162.608C63.9823 162.281 64.659 162.118 65.4243 162.118C66.1616 162.118 66.8196 162.277 67.3983 162.594C67.9863 162.911 68.439 163.364 68.7563 163.952C69.083 164.531 69.2463 165.198 69.2463 165.954ZM67.2163 165.394C67.207 164.89 67.025 164.489 66.6703 164.19C66.3156 163.882 65.8816 163.728 65.3683 163.728C64.883 163.728 64.4723 163.877 64.1363 164.176C63.8096 164.465 63.609 164.871 63.5343 165.394H67.2163ZM72.6369 163.448C72.8889 163.037 73.2156 162.715 73.6169 162.482C74.0276 162.249 74.4943 162.132 75.0169 162.132V164.19H74.4989C73.8829 164.19 73.4163 164.335 73.0989 164.624C72.7909 164.913 72.6369 165.417 72.6369 166.136V170H70.6769V162.244H72.6369V163.448ZM79.3051 170.126C78.6704 170.126 78.1011 170.014 77.5971 169.79C77.0931 169.557 76.6918 169.244 76.3931 168.852C76.1038 168.46 75.9451 168.026 75.9171 167.55H77.8911C77.9284 167.849 78.0731 168.096 78.3251 168.292C78.5864 168.488 78.9084 168.586 79.2911 168.586C79.6644 168.586 79.9538 168.511 80.1591 168.362C80.3738 168.213 80.4811 168.021 80.4811 167.788C80.4811 167.536 80.3504 167.349 80.0891 167.228C79.8371 167.097 79.4311 166.957 78.8711 166.808C78.2924 166.668 77.8164 166.523 77.4431 166.374C77.0791 166.225 76.7618 165.996 76.4911 165.688C76.2298 165.38 76.0991 164.965 76.0991 164.442C76.0991 164.013 76.2204 163.621 76.4631 163.266C76.7151 162.911 77.0698 162.631 77.5271 162.426C77.9938 162.221 78.5398 162.118 79.1651 162.118C80.0891 162.118 80.8264 162.351 81.3771 162.818C81.9278 163.275 82.2311 163.896 82.2871 164.68H80.4111C80.3831 164.372 80.2524 164.129 80.0191 163.952C79.7951 163.765 79.4918 163.672 79.1091 163.672C78.7544 163.672 78.4791 163.737 78.2831 163.868C78.0964 163.999 78.0031 164.181 78.0031 164.414C78.0031 164.675 78.1338 164.876 78.3951 165.016C78.6564 165.147 79.0624 165.282 79.6131 165.422C80.1731 165.562 80.6351 165.707 80.9991 165.856C81.3631 166.005 81.6758 166.239 81.9371 166.556C82.2078 166.864 82.3478 167.275 82.3571 167.788C82.3571 168.236 82.2311 168.637 81.9791 168.992C81.7364 169.347 81.3818 169.627 80.9151 169.832C80.4578 170.028 79.9211 170.126 79.3051 170.126Z" fill="#7D87AA"/>
<path d="M16.9775 238.138H13.0855L12.4415 240H10.3835L13.8975 230.214H16.1795L19.6935 240H17.6215L16.9775 238.138ZM16.4455 236.57L15.0315 232.482L13.6175 236.57H16.4455ZM22.967 233.364C23.219 233.009 23.5643 232.715 24.003 232.482C24.451 232.239 24.9597 232.118 25.529 232.118C26.1917 232.118 26.789 232.281 27.321 232.608C27.8623 232.935 28.287 233.401 28.595 234.008C28.9123 234.605 29.071 235.301 29.071 236.094C29.071 236.887 28.9123 237.592 28.595 238.208C28.287 238.815 27.8623 239.286 27.321 239.622C26.789 239.958 26.1917 240.126 25.529 240.126C24.9597 240.126 24.4557 240.009 24.017 239.776C23.5877 239.543 23.2377 239.249 22.967 238.894V243.696H21.007V232.244H22.967V233.364ZM27.069 236.094C27.069 235.627 26.971 235.226 26.775 234.89C26.5883 234.545 26.3363 234.283 26.019 234.106C25.711 233.929 25.375 233.84 25.011 233.84C24.6563 233.84 24.3203 233.933 24.003 234.12C23.695 234.297 23.443 234.559 23.247 234.904C23.0603 235.249 22.967 235.655 22.967 236.122C22.967 236.589 23.0603 236.995 23.247 237.34C23.443 237.685 23.695 237.951 24.003 238.138C24.3203 238.315 24.6563 238.404 25.011 238.404C25.375 238.404 25.711 238.311 26.019 238.124C26.3363 237.937 26.5883 237.671 26.775 237.326C26.971 236.981 27.069 236.57 27.069 236.094ZM32.4553 233.364C32.7073 233.009 33.0526 232.715 33.4913 232.482C33.9393 232.239 34.448 232.118 35.0173 232.118C35.68 232.118 36.2773 232.281 36.8093 232.608C37.3506 232.935 37.7753 233.401 38.0833 234.008C38.4006 234.605 38.5593 235.301 38.5593 236.094C38.5593 236.887 38.4006 237.592 38.0833 238.208C37.7753 238.815 37.3506 239.286 36.8093 239.622C36.2773 239.958 35.68 240.126 35.0173 240.126C34.448 240.126 33.944 240.009 33.5053 239.776C33.076 239.543 32.726 239.249 32.4553 238.894V243.696H30.4953V232.244H32.4553V233.364ZM36.5573 236.094C36.5573 235.627 36.4593 235.226 36.2633 234.89C36.0766 234.545 35.8246 234.283 35.5073 234.106C35.1993 233.929 34.8633 233.84 34.4993 233.84C34.1446 233.84 33.8086 233.933 33.4913 234.12C33.1833 234.297 32.9313 234.559 32.7353 234.904C32.5486 235.249 32.4553 235.655 32.4553 236.122C32.4553 236.589 32.5486 236.995 32.7353 237.34C32.9313 237.685 33.1833 237.951 33.4913 238.138C33.8086 238.315 34.1446 238.404 34.4993 238.404C34.8633 238.404 35.1993 238.311 35.5073 238.124C35.8246 237.937 36.0766 237.671 36.2633 237.326C36.4593 236.981 36.5573 236.57 36.5573 236.094ZM41.9436 233.448C42.1956 233.037 42.5222 232.715 42.9236 232.482C43.3342 232.249 43.8009 232.132 44.3236 232.132V234.19H43.8056C43.1896 234.19 42.7229 234.335 42.4056 234.624C42.0976 234.913 41.9436 235.417 41.9436 236.136V240H39.9836V232.244H41.9436V233.448ZM49.0877 240.126C48.3411 240.126 47.6691 239.963 47.0717 239.636C46.4744 239.3 46.0031 238.829 45.6577 238.222C45.3217 237.615 45.1537 236.915 45.1537 236.122C45.1537 235.329 45.3264 234.629 45.6717 234.022C46.0264 233.415 46.5071 232.949 47.1137 232.622C47.7204 232.286 48.3971 232.118 49.1437 232.118C49.8904 232.118 50.5671 232.286 51.1737 232.622C51.7804 232.949 52.2564 233.415 52.6017 234.022C52.9564 234.629 53.1337 235.329 53.1337 236.122C53.1337 236.915 52.9517 237.615 52.5877 238.222C52.2331 238.829 51.7477 239.3 51.1317 239.636C50.5251 239.963 49.8437 240.126 49.0877 240.126ZM49.0877 238.418C49.4424 238.418 49.7737 238.334 50.0817 238.166C50.3991 237.989 50.6511 237.727 50.8377 237.382C51.0244 237.037 51.1177 236.617 51.1177 236.122C51.1177 235.385 50.9217 234.82 50.5297 234.428C50.1471 234.027 49.6757 233.826 49.1157 233.826C48.5557 233.826 48.0844 234.027 47.7017 234.428C47.3284 234.82 47.1417 235.385 47.1417 236.122C47.1417 236.859 47.3237 237.429 47.6877 237.83C48.0611 238.222 48.5277 238.418 49.0877 238.418ZM57.8055 238.194L59.7655 232.244H61.8515L58.9815 240H56.6015L53.7455 232.244H55.8455L57.8055 238.194ZM62.4483 236.094C62.4483 235.31 62.6023 234.615 62.9103 234.008C63.2277 233.401 63.6523 232.935 64.1843 232.608C64.7257 232.281 65.3277 232.118 65.9903 232.118C66.569 232.118 67.073 232.235 67.5023 232.468C67.941 232.701 68.291 232.995 68.5523 233.35V232.244H70.5263V240H68.5523V238.866C68.3003 239.23 67.9503 239.533 67.5023 239.776C67.0637 240.009 66.555 240.126 65.9763 240.126C65.323 240.126 64.7257 239.958 64.1843 239.622C63.6523 239.286 63.2277 238.815 62.9103 238.208C62.6023 237.592 62.4483 236.887 62.4483 236.094ZM68.5523 236.122C68.5523 235.646 68.459 235.24 68.2723 234.904C68.0857 234.559 67.8337 234.297 67.5163 234.12C67.199 233.933 66.8583 233.84 66.4943 233.84C66.1303 233.84 65.7943 233.929 65.4863 234.106C65.1783 234.283 64.9263 234.545 64.7303 234.89C64.5437 235.226 64.4503 235.627 64.4503 236.094C64.4503 236.561 64.5437 236.971 64.7303 237.326C64.9263 237.671 65.1783 237.937 65.4863 238.124C65.8037 238.311 66.1397 238.404 66.4943 238.404C66.8583 238.404 67.199 238.315 67.5163 238.138C67.8337 237.951 68.0857 237.69 68.2723 237.354C68.459 237.009 68.5523 236.598 68.5523 236.122ZM74.4006 229.64V240H72.4406V229.64H74.4006ZM79.3051 240.126C78.6704 240.126 78.1011 240.014 77.5971 239.79C77.0931 239.557 76.6918 239.244 76.3931 238.852C76.1038 238.46 75.9451 238.026 75.9171 237.55H77.8911C77.9284 237.849 78.0731 238.096 78.3251 238.292C78.5864 238.488 78.9084 238.586 79.2911 238.586C79.6644 238.586 79.9538 238.511 80.1591 238.362C80.3738 238.213 80.4811 238.021 80.4811 237.788C80.4811 237.536 80.3504 237.349 80.0891 237.228C79.8371 237.097 79.4311 236.957 78.8711 236.808C78.2924 236.668 77.8164 236.523 77.4431 236.374C77.0791 236.225 76.7618 235.996 76.4911 235.688C76.2298 235.38 76.0991 234.965 76.0991 234.442C76.0991 234.013 76.2204 233.621 76.4631 233.266C76.7151 232.911 77.0698 232.631 77.5271 232.426C77.9938 232.221 78.5398 232.118 79.1651 232.118C80.0891 232.118 80.8264 232.351 81.3771 232.818C81.9278 233.275 82.2311 233.896 82.2871 234.68H80.4111C80.3831 234.372 80.2524 234.129 80.0191 233.952C79.7951 233.765 79.4918 233.672 79.1091 233.672C78.7544 233.672 78.4791 233.737 78.2831 233.868C78.0964 233.999 78.0031 234.181 78.0031 234.414C78.0031 234.675 78.1338 234.876 78.3951 235.016C78.6564 235.147 79.0624 235.282 79.6131 235.422C80.1731 235.562 80.6351 235.707 80.9991 235.856C81.3631 236.005 81.6758 236.239 81.9371 236.556C82.2078 236.864 82.3478 237.275 82.3571 237.788C82.3571 238.236 82.2311 238.637 81.9791 238.992C81.7364 239.347 81.3818 239.627 80.9151 239.832C80.4578 240.028 79.9211 240.126 79.3051 240.126Z" fill="#7D87AA"/>
<path d="M19.798 307.172C19.798 303.728 14.786 304.82 14.786 302.86C14.786 302.062 15.36 301.684 16.13 301.712C16.97 301.726 17.488 302.23 17.53 302.874H19.686C19.56 301.11 18.188 300.088 16.186 300.088C14.17 300.088 12.742 301.152 12.742 302.916C12.728 306.458 17.768 305.184 17.768 307.298C17.768 307.998 17.222 308.488 16.298 308.488C15.388 308.488 14.87 307.97 14.814 307.186H12.714C12.742 309.034 14.31 310.098 16.34 310.098C18.566 310.098 19.798 308.712 19.798 307.172ZM28.8193 302.244H26.8453V306.514C26.8453 307.76 26.1733 308.432 25.1093 308.432C24.0733 308.432 23.3873 307.76 23.3873 306.514V302.244H21.4273V306.794C21.4273 308.922 22.7293 310.098 24.5353 310.098C25.5013 310.098 26.3553 309.678 26.8453 309.02V310H28.8193V302.244ZM41.6031 310H43.5631V305.45C43.5631 303.308 42.2471 302.132 40.3851 302.132C39.2511 302.132 38.2291 302.734 37.7251 303.616C37.1931 302.65 36.1991 302.132 34.9951 302.132C34.0291 302.132 33.2031 302.538 32.7131 303.182V302.244H30.7531V310H32.7131V305.716C32.7131 304.484 33.3991 303.84 34.4631 303.84C35.4991 303.84 36.1851 304.484 36.1851 305.716V310H38.1451V305.716C38.1451 304.484 38.8311 303.84 39.8811 303.84C40.9171 303.84 41.6031 304.484 41.6031 305.716V310ZM56.273 310H58.233V305.45C58.233 303.308 56.917 302.132 55.055 302.132C53.921 302.132 52.899 302.734 52.395 303.616C51.863 302.65 50.869 302.132 49.665 302.132C48.699 302.132 47.873 302.538 47.383 303.182V302.244H45.423V310H47.383V305.716C47.383 304.484 48.069 303.84 49.133 303.84C50.169 303.84 50.855 304.484 50.855 305.716V310H52.815V305.716C52.815 304.484 53.501 303.84 54.551 303.84C55.587 303.84 56.273 304.484 56.273 305.716V310ZM59.589 306.094C59.589 308.516 61.157 310.126 63.117 310.126C64.349 310.126 65.231 309.538 65.693 308.866V310H67.667V302.244H65.693V303.35C65.231 302.706 64.377 302.118 63.131 302.118C61.157 302.118 59.589 303.672 59.589 306.094ZM65.693 306.122C65.693 307.592 64.713 308.404 63.635 308.404C62.585 308.404 61.591 307.564 61.591 306.094C61.591 304.624 62.585 303.84 63.635 303.84C64.713 303.84 65.693 304.652 65.693 306.122ZM71.5412 306.136C71.5412 304.638 72.2412 304.19 73.4032 304.19H73.9212V302.132C72.8432 302.132 72.0312 302.65 71.5412 303.448V302.244H69.5812V310H71.5412V306.136ZM78.5454 307.662L76.5434 302.244H74.3454L77.4534 309.804L75.7734 313.668H77.8594L82.6614 302.244H80.5754L78.5454 307.662Z" fill="#7D87AA"/>
<circle cx="173" cy="33" r="4" fill="#20273E" stroke="#7D87AA" stroke-width="2"/>
<circle cx="173" cy="94" r="5" fill="#52A6F8"/>
<circle cx="173" cy="164" r="4" fill="#20273E" stroke="#7D87AA" stroke-width="2"/>
<circle cx="173" cy="234" r="4" fill="#20273E" stroke="#7D87AA" stroke-width="2"/>
<circle cx="173" cy="304" r="4" fill="#20273E" stroke="#7D87AA" stroke-width="2"/>
<circle cx="120" cy="33" r="18" fill="#52A6F8" fill-opacity="0.1"/>
<circle cx="120" cy="94" r="18" fill="#52A6F8"/>
<path d="M124.167 87.3334H123.167C122.833 86.3334 121.917 85.6667 120.833 85.6667H119.167C118.083 85.6667 117.167 86.3334 116.833 87.3334H115.833C114.417 87.3334 113.333 88.4167 113.333 89.8334V99.8334C113.333 101.25 114.417 102.333 115.833 102.333H124.167C125.583 102.333 126.667 101.25 126.667 99.8334V89.8334C126.667 88.4167 125.583 87.3334 124.167 87.3334ZM118.333 88.1667C118.333 87.6667 118.667 87.3334 119.167 87.3334H120.833C121.333 87.3334 121.667 87.6667 121.667 88.1667V89H118.333V88.1667ZM120.833 97.3334H117.5C117 97.3334 116.667 97 116.667 96.5C116.667 96 117 95.6667 117.5 95.6667H120.833C121.333 95.6667 121.667 96 121.667 96.5C121.667 97 121.333 97.3334 120.833 97.3334ZM122.5 94H117.5C117 94 116.667 93.6667 116.667 93.1667C116.667 92.6667 117 92.3334 117.5 92.3334H122.5C123 92.3334 123.333 92.6667 123.333 93.1667C123.333 93.6667 123 94 122.5 94Z" fill="#F6F9FE"/>
<circle cx="120" cy="164" r="18" fill="#52A6F8" fill-opacity="0.1"/>
<path d="M117.083 163.583C118.917 163.583 120.417 162.083 120.417 160.25C120.417 158.417 118.917 156.917 117.083 156.917C115.25 156.917 113.75 158.417 113.75 160.25C113.75 162.083 115.25 163.583 117.083 163.583ZM120.833 162.833C122.25 164 124.333 163.75 125.5 162.333C126.667 160.917 126.417 158.833 125 157.667C124.417 157.167 123.667 156.917 122.917 156.917C122.167 156.917 121.417 157.167 120.833 157.667C122.25 158.833 122.5 160.833 121.333 162.333C121.25 162.5 121 162.667 120.833 162.833ZM129.083 170.167C128.583 167.083 126 164.833 122.917 164.833C122.167 164.833 121.5 164.917 120.833 165.167C123 165.917 124.583 167.833 124.917 170.083C125 170.5 124.667 171 124.167 171H124.083H128.25C128.75 171 129.083 170.667 129.083 170.167C129.083 170.167 129.083 170.25 129.083 170.167ZM117.083 164.833C114 164.833 111.333 167.083 110.917 170.167C110.833 170.583 111.167 171.083 111.667 171.083H111.75H122.417C122.917 171.083 123.25 170.75 123.25 170.25V170.167C122.833 167.083 120.167 164.833 117.083 164.833Z" fill="#52A6F8"/>
<circle cx="120" cy="234" r="18" fill="#52A6F8" fill-opacity="0.1"/>
<path d="M126.417 230.583C126.75 230.25 126.75 229.75 126.417 229.417L122.917 225.917C122.583 225.583 122.083 225.583 121.75 225.917L119.417 228.25L124.167 233L126.417 230.583ZM114.167 239H117.667C117.917 239 118.083 238.917 118.25 238.75L122.833 234.167L118.167 229.417L113.583 234C113.417 234.167 113.333 234.417 113.333 234.667V238.167C113.333 238.667 113.667 239 114.167 239ZM127.5 240.667H112.5C112 240.667 111.667 241 111.667 241.5C111.667 242 112 242.333 112.5 242.333H127.5C128 242.333 128.333 242 128.333 241.5C128.333 241 128 240.667 127.5 240.667Z" fill="#52A6F8"/>
<circle cx="120" cy="304" r="18" fill="#52A6F8" fill-opacity="0.1"/>
<path d="M128.167 304H125.667V296.5C125.667 296.167 125.5 295.917 125.25 295.75C125 295.583 124.667 295.583 124.417 295.75L121.917 297.167L119.417 295.75C119.167 295.583 118.833 295.583 118.583 295.75L116.083 297.167L113.583 295.75C113.333 295.583 113 295.583 112.75 295.75C112.5 295.917 112.333 296.167 112.333 296.5V309.833C112.333 311.25 113.417 312.333 114.833 312.333H126.5C127.917 312.333 129 311.25 129 309.833V304.833C129 304.417 128.583 304 128.167 304ZM118.167 309H116.5C116 309 115.667 308.667 115.667 308.167C115.667 307.667 116 307.333 116.5 307.333H118.167C118.667 307.333 119 307.667 119 308.167C119 308.667 118.583 309 118.167 309ZM118.167 305.667H116.5C116 305.667 115.667 305.333 115.667 304.833C115.667 304.333 116 304 116.5 304H118.167C118.667 304 119 304.333 119 304.833C119 305.333 118.583 305.667 118.167 305.667ZM117.333 302.333C116.833 302.333 116.5 302 116.5 301.5C116.5 301 116.833 300.667 117.333 300.667H120.667C121.167 300.667 121.5 301 121.5 301.5C121.5 302 121.167 302.333 120.667 302.333H117.333ZM121.5 309C121 309 120.667 308.667 120.667 308.167C120.667 307.667 121 307.333 121.5 307.333C122 307.333 122.333 307.667 122.333 308.167C122.333 308.667 121.917 309 121.5 309ZM121.5 305.667C121 305.667 120.667 305.333 120.667 304.833C120.667 304.333 121 304 121.5 304C122 304 122.333 304.333 122.333 304.833C122.333 305.333 121.917 305.667 121.5 305.667ZM127.333 309.833C127.333 310.333 127 310.667 126.5 310.667C126 310.667 125.667 310.333 125.667 309.833V305.667H127.333V309.833Z" fill="#52A6F8"/>
<path d="M126.042 29.5417H125.25V28.75C125.25 27.4042 124.221 26.375 122.875 26.375H114.958C113.612 26.375 112.583 27.4042 112.583 28.75V38.25C112.583 39.5958 113.612 40.625 114.958 40.625H126.042C127.387 40.625 128.417 39.5958 128.417 38.25V31.9167C128.417 30.5708 127.387 29.5417 126.042 29.5417ZM123.667 29.5417H114.958C114.483 29.5417 114.167 29.225 114.167 28.75C114.167 28.275 114.483 27.9583 114.958 27.9583H122.875C123.35 27.9583 123.667 28.275 123.667 28.75V29.5417ZM126.833 36.6667H126.042C125.171 36.6667 124.458 35.9542 124.458 35.0833C124.458 34.2125 125.171 33.5 126.042 33.5H126.833V36.6667Z" fill="#52A6F8"/>
</svg>
