<svg width="16" height="16" viewBox="0 0 16 16" fill="none" xmlns="http://www.w3.org/2000/svg">
<path opacity="0.99" d="M6.87505 10.7292C6.78749 10.7293 6.70078 10.7121 6.61989 10.6786C6.53901 10.6451 6.46554 10.5959 6.40372 10.5339L4.52872 8.65891C4.40501 8.53363 4.33588 8.3645 4.33643 8.18844C4.33698 8.01237 4.40716 7.84368 4.53166 7.71918C4.65615 7.59468 4.82484 7.52449 5.00091 7.52393C5.17697 7.52337 5.34611 7.59249 5.47139 7.7162L6.87503 9.11985L10.5287 5.4662C10.654 5.34249 10.8231 5.27337 10.9992 5.27393C11.1753 5.27449 11.344 5.34468 11.4685 5.46918C11.5929 5.59368 11.6631 5.76237 11.6637 5.93844C11.6642 6.1145 11.5951 6.28363 11.4714 6.40891L7.34639 10.5339C7.28456 10.5959 7.2111 10.6451 7.13021 10.6786C7.04932 10.7121 6.96261 10.7293 6.87505 10.7292Z" fill="#F6F9FE"/>
<path d="M8.00017 1.33301C6.68162 1.33301 5.39269 1.724 4.29636 2.45654C3.20004 3.18909 2.34555 4.23028 1.84097 5.44845C1.33638 6.66663 1.20436 8.00707 1.4616 9.30028C1.71883 10.5935 2.35377 11.7814 3.28612 12.7137C4.21847 13.6461 5.40636 14.281 6.69956 14.5382C7.99277 14.7955 9.33321 14.6635 10.5514 14.1589C11.7696 13.6543 12.8108 12.7998 13.5433 11.7035C14.2758 10.6071 14.6668 9.31822 14.6668 7.99967C14.6648 6.23219 13.9618 4.53767 12.712 3.28786C11.4622 2.03806 9.76765 1.33503 8.00017 1.33301ZM11.4715 6.40853L7.3465 10.5335C7.28461 10.5954 7.21113 10.6446 7.13025 10.6781C7.04938 10.7116 6.96269 10.7288 6.87515 10.7288C6.7876 10.7288 6.70091 10.7116 6.62004 10.6781C6.53916 10.6446 6.46568 10.5954 6.40379 10.5335L4.52883 8.65853C4.40512 8.53325 4.33599 8.36412 4.33654 8.18806C4.33709 8.01199 4.40727 7.8433 4.53177 7.7188C4.65626 7.5943 4.82496 7.52411 5.00102 7.52355C5.17708 7.52299 5.34622 7.59211 5.4715 7.71582L6.87515 9.11947L10.5288 5.46582C10.6541 5.34211 10.8232 5.27299 10.9993 5.27355C11.1754 5.27411 11.3441 5.3443 11.4686 5.4688C11.5931 5.5933 11.6632 5.76199 11.6638 5.93806C11.6643 6.11412 11.5952 6.28325 11.4715 6.40853Z" fill="#52A6F8"/>
</svg>
