<svg width="16" height="16" viewBox="0 0 16 16" fill="none" xmlns="http://www.w3.org/2000/svg">
<path d="M8.00017 14.6673C6.68162 14.6673 5.39269 14.2763 4.29636 13.5438C3.20004 12.8112 2.34555 11.7701 1.84097 10.5519C1.33638 9.3337 1.20436 7.99326 1.4616 6.70005C1.71883 5.40685 2.35377 4.21896 3.28612 3.28661C4.21847 2.35426 5.40636 1.71932 6.69956 1.46209C7.99277 1.20485 9.33321 1.33687 10.5514 1.84146C11.7696 2.34604 12.8108 3.20052 13.5433 4.29685C14.2758 5.39318 14.6668 6.68211 14.6668 8.00065C14.6648 9.76814 13.9618 11.4627 12.712 12.7125C11.4622 13.9623 9.76765 14.6653 8.00017 14.6673V14.6673Z" fill="#52A6F8"/>
<path d="M10.6665 8.66732H5.33317C5.15636 8.66732 4.98679 8.59708 4.86177 8.47206C4.73674 8.34703 4.6665 8.17746 4.6665 8.00065C4.6665 7.82384 4.73674 7.65427 4.86177 7.52925C4.98679 7.40422 5.15636 7.33398 5.33317 7.33398H10.6665C10.8433 7.33398 11.0129 7.40422 11.1379 7.52925C11.2629 7.65427 11.3332 7.82384 11.3332 8.00065C11.3332 8.17746 11.2629 8.34703 11.1379 8.47206C11.0129 8.59708 10.8433 8.66732 10.6665 8.66732Z" fill="#F6F9FE"/>
<path d="M8.00016 11.3327C7.91261 11.3327 7.82591 11.3155 7.74501 11.282C7.66412 11.2485 7.59062 11.1994 7.52871 11.1375C7.4668 11.0756 7.41769 11.0021 7.3842 10.9212C7.3507 10.8403 7.33347 10.7536 7.3335 10.666V5.33268C7.3335 5.15587 7.40373 4.9863 7.52876 4.86128C7.65378 4.73625 7.82335 4.66602 8.00016 4.66602C8.17697 4.66602 8.34654 4.73625 8.47157 4.86128C8.59659 4.9863 8.66683 5.15587 8.66683 5.33268V10.666C8.66685 10.7536 8.64962 10.8403 8.61613 10.9212C8.58263 11.0021 8.53353 11.0756 8.47162 11.1375C8.40971 11.1994 8.33621 11.2485 8.25531 11.282C8.17442 11.3155 8.08772 11.3327 8.00016 11.3327V11.3327Z" fill="#F6F9FE"/>
</svg>
